<svg width="32" height="32" viewBox="0 0 32 32" fill="none" xmlns="http://www.w3.org/2000/svg">
<g clip-path="url(#clip0_866_5327)">
<path d="M27.5871 8.7625V29.9375C27.5871 31.075 26.6621 32 25.5246 32H6.47461C5.33711 32 4.41211 31.075 4.41211 29.9375V2.0625C4.41211 0.925 5.33711 0 6.47461 0H18.8246L27.5871 8.7625Z" fill="#518FF5"/>
<path d="M10.0752 16.0687H21.9252V17.3875H10.0752V16.0687Z" fill="#1F1F1F"/>
<path d="M10.0752 19.0062H21.9252V20.325H10.0752V19.0062Z" fill="#1F1F1F"/>
<path d="M10.0752 21.95H21.9252V23.2687H10.0752V21.95Z" fill="#1F1F1F"/>
<path d="M10.0752 24.8875H18.5064V26.2062H10.0752V24.8875Z" fill="#1F1F1F"/>
<path opacity="0.19" d="M20.0186 8.43125L27.5873 14.5625V8.8L23.2998 6.3125L20.0186 8.43125Z" fill="black"/>
<path d="M27.5877 8.7625H20.8877C19.7502 8.7625 18.8252 7.8375 18.8252 6.7V0L27.5877 8.7625Z" fill="#A6C5FA"/>
</g>
<defs>
<clipPath id="clip0_866_5327">
<rect width="32" height="32" fill="white"/>
</clipPath>
</defs>
</svg>
