<svg width="182" height="133" viewBox="0 0 182 133" fill="none" xmlns="http://www.w3.org/2000/svg">
<path fill-rule="evenodd" clip-rule="evenodd" d="M77.0792 35.7034H66.41C65.5828 35.7034 64.9121 36.3741 64.9121 37.2014V49.725C70.5128 46.7239 74.8698 41.7422 77.0792 35.7034ZM81.3819 57.9352V68.712C81.3819 69.5393 82.0526 70.2099 82.8799 70.2099H95.1624C92.2299 64.6093 87.3338 60.2146 81.3819 57.9352ZM103.225 53.7409H114.259C115.086 53.7409 115.757 53.0702 115.757 52.2429V39.6475C110.001 42.5979 105.507 47.6192 103.225 53.7409ZM99.4194 31.824V20.8632C99.4194 20.0359 98.7487 19.3652 97.9214 19.3652H85.08C88.1006 25.1339 93.2111 29.6104 99.4194 31.824Z" fill="white"/>
<path fill-rule="evenodd" clip-rule="evenodd" d="M99.6734 52.4678C99.4992 52.9579 99.34 53.4553 99.1964 53.9594L90.2149 45.0766C90.092 45.851 91.3325 47.4636 92.7178 49.2643C93.9312 50.8417 95.2558 52.5636 95.8722 53.9928C98.3279 59.6868 98.6009 65.2557 98.8202 69.7267C98.9034 71.4251 98.9789 72.965 99.1633 74.2932L98.0668 70.5996C95.6825 62.5681 89.341 56.2719 81.2878 53.967L90.145 45.0113C89.3706 44.8883 87.758 46.1289 85.9572 47.5142C84.3798 48.7276 82.658 50.0522 81.2288 50.6686C75.5349 53.1243 69.9661 53.3974 65.4951 53.6166C63.7964 53.6999 62.2561 53.7754 60.9277 53.9599L64.6218 52.8631C72.6618 50.4762 78.93 44.1241 81.2288 36.0584L90.2103 44.9413C90.3333 44.1669 89.0927 42.5543 87.7074 40.7534C86.4939 39.176 85.1694 37.4542 84.553 36.025C82.0974 30.331 81.8243 24.7622 81.6051 20.2911C81.5218 18.5932 81.4463 17.0536 81.262 15.7257L82.3582 19.4182C84.7451 27.4583 91.0971 33.7264 99.1627 36.0253L90.2802 45.0066C91.0546 45.1296 92.6672 43.889 94.468 42.5037C96.0454 41.2902 97.7672 39.9657 99.1964 39.3493C104.89 36.8936 110.459 36.6205 114.93 36.4013C116.629 36.318 118.169 36.2425 119.498 36.0579L115.803 37.1547C108.266 39.3925 102.286 45.1152 99.6734 52.4678Z" fill="white"/>
<path fill-rule="evenodd" clip-rule="evenodd" d="M125.25 22.7792L93.21 4.28107C92.0186 3.59321 90.5507 3.5932 89.3593 4.28107L57.2869 22.7981C56.0955 23.486 55.3615 24.7572 55.3615 26.1329L55.3615 63.2019C55.3615 64.5776 56.0954 65.8489 57.2869 66.5367L89.3284 85.0359C90.5209 85.7244 91.9903 85.7237 93.1821 85.0341L125.222 66.4967C126.411 65.8089 127.143 64.5401 127.144 63.1668L127.175 26.1172C127.176 24.7403 126.442 23.4676 125.25 22.7792ZM89.0709 88.6706L54.1949 68.6562C52.7992 67.8552 51.9385 66.3689 51.9385 64.7597V24.5598C51.9385 22.9525 52.7972 21.4677 54.1903 20.666L89.0629 0.598676C90.4539 -0.201765 92.1663 -0.199405 93.555 0.604869L128.264 20.7057C129.651 21.509 130.505 22.9905 130.505 24.5934V64.7687C130.505 66.3749 129.648 67.8588 128.256 68.6609L93.5506 88.6663C92.1646 89.4652 90.4584 89.4669 89.0709 88.6706Z" fill="white"/>
<path d="M11.901 117.726L6.17011 111.754L9.86172 109.642L17.6528 117.726H11.901ZM3.66023 109.14H7.05902L11.4931 104.476H17.1926L8.8996 113.051H3.66023V109.14ZM1.38043 117.726V104.476H5.90866V117.726H1.38043ZM17.36 111.158V110.907C17.36 108.627 18.2105 106.94 19.9117 105.846C21.6128 104.751 23.7288 104.204 26.2596 104.204C28.7904 104.204 30.9133 104.751 32.6284 105.846C34.3435 106.94 35.201 108.627 35.201 110.907V111.158C35.201 113.508 34.3435 115.237 32.6284 116.345C30.9133 117.447 28.7904 117.997 26.2596 117.997C23.7288 117.997 21.6128 117.447 19.9117 116.345C18.2105 115.237 17.36 113.508 17.36 111.158ZM22.1078 111.702C22.1078 112.72 22.4878 113.455 23.2477 113.908C24.0146 114.362 25.0255 114.595 26.2805 114.609C27.5215 114.623 28.5289 114.397 29.3028 113.929C30.0767 113.462 30.4636 112.723 30.4636 111.712V110.426C30.4636 109.464 30.0767 108.77 29.3028 108.345C28.5359 107.913 27.5284 107.69 26.2805 107.676C25.0116 107.662 23.9972 107.878 23.2373 108.324C22.4843 108.763 22.1078 109.46 22.1078 110.416V111.702ZM36.9997 117.726V104.476H41.528V108.836H47.2275V104.476H51.7557V117.726H47.2275V112.925H41.528V117.726H36.9997ZM53.5649 111.242V110.938C53.5649 108.617 54.3876 106.916 56.033 105.835C57.6853 104.747 59.8152 104.204 62.4227 104.204C65.0232 104.204 66.9579 104.608 68.2268 105.417C69.5026 106.225 70.3009 107.578 70.6216 109.474L70.6739 110.196H66.2293L66.177 109.38C65.9818 108.843 65.6088 108.422 65.058 108.115C64.5073 107.801 63.6672 107.644 62.5377 107.644C61.2131 107.644 60.1952 107.895 59.484 108.397C58.7729 108.899 58.4173 109.579 58.4173 110.436V111.733C58.4173 112.793 58.7834 113.539 59.5154 113.971C60.2475 114.403 61.2549 114.62 62.5377 114.62C63.7648 114.62 64.6641 114.463 65.2358 114.149C65.8075 113.828 66.1282 113.372 66.1979 112.779L66.2398 112.068H70.6739L70.6425 112.884C70.517 114.654 69.778 115.951 68.4255 116.774C67.0729 117.59 65.079 117.997 62.4436 117.997C59.7385 117.997 57.5807 117.443 55.9702 116.335C54.3667 115.219 53.5649 113.522 53.5649 111.242ZM71.3641 111.158V110.907C71.3641 108.627 72.2147 106.94 73.9158 105.846C75.617 104.751 77.7329 104.204 80.2637 104.204C82.7945 104.204 84.9174 104.751 86.6325 105.846C88.3476 106.94 89.2051 108.627 89.2051 110.907V111.158C89.2051 113.508 88.3476 115.237 86.6325 116.345C84.9174 117.447 82.7945 117.997 80.2637 117.997C77.7329 117.997 75.617 117.447 73.9158 116.345C72.2147 115.237 71.3641 113.508 71.3641 111.158ZM76.112 111.702C76.112 112.72 76.4919 113.455 77.2519 113.908C78.0188 114.362 79.0297 114.595 80.2846 114.609C81.5256 114.623 82.5331 114.397 83.3069 113.929C84.0808 113.462 84.4678 112.723 84.4678 111.712V110.426C84.4678 109.464 84.0808 108.77 83.3069 108.345C82.54 107.913 81.5326 107.69 80.2846 107.676C79.0157 107.662 78.0013 107.878 77.2414 108.324C76.4884 108.763 76.112 109.46 76.112 110.416V111.702ZM91.0039 117.726V104.476H100.238C102.03 104.476 103.372 104.929 104.264 105.835C105.164 106.734 105.613 107.993 105.613 109.61C105.613 111.186 105.174 112.451 104.296 113.407C103.424 114.355 102.044 114.829 100.154 114.829H95.5321V117.726H91.0039ZM95.5321 111.472H99.0564C99.7815 111.472 100.301 111.318 100.615 111.012C100.935 110.698 101.096 110.262 101.096 109.704C101.096 109.161 100.935 108.753 100.615 108.481C100.294 108.202 99.7745 108.059 99.0564 108.052H95.5321V111.472ZM119.512 120.717V117.726H107.276V104.476H111.804V113.846H117.378V104.476H121.907V113.846H123.789V120.717H119.512ZM140.271 117.726H135.753V111.869C135.753 111.59 135.756 111.374 135.763 111.221C135.777 111.067 135.784 110.911 135.784 110.75H135.732C135.683 110.911 135.627 111.074 135.565 111.242C135.502 111.409 135.38 111.611 135.199 111.848L130.378 117.726H125.306V104.476H129.813L129.802 110.133C129.802 110.384 129.802 110.593 129.802 110.761C129.802 110.921 129.799 111.099 129.792 111.294H129.844C129.907 111.106 129.966 110.942 130.022 110.803C130.078 110.663 130.193 110.464 130.367 110.206L135.188 104.476H140.271V117.726ZM144.234 113.511C144.429 113.567 144.632 113.609 144.841 113.637C145.057 113.664 145.35 113.678 145.719 113.678C146.221 113.678 146.622 113.591 146.922 113.417C147.222 113.236 147.532 112.88 147.853 112.35L147.591 113.469L141.316 104.476H146.232L149.683 109.401C149.78 109.506 149.85 109.607 149.892 109.704C149.934 109.802 149.986 109.928 150.049 110.081H150.122C150.185 109.921 150.24 109.792 150.289 109.694C150.338 109.596 150.411 109.495 150.509 109.391L153.782 104.476H158.478L152.193 113.825C151.307 115.045 150.457 116.049 149.641 116.837C148.832 117.618 147.619 118.008 146.002 118.008C145.569 118.008 145.207 117.98 144.914 117.924C144.621 117.869 144.395 117.806 144.234 117.736V113.511ZM159.429 117.726V104.476H165.254L169.553 111.21C169.629 111.364 169.688 111.486 169.73 111.576C169.779 111.667 169.821 111.772 169.856 111.89H169.887C169.929 111.772 169.971 111.671 170.013 111.587C170.054 111.496 170.117 111.371 170.201 111.21L174.468 104.476H180.345V117.726H175.9L175.911 111.378C175.911 111.238 175.918 111.109 175.932 110.991C175.946 110.865 175.956 110.733 175.963 110.593H175.879C175.824 110.74 175.771 110.872 175.723 110.991C175.681 111.102 175.625 111.228 175.555 111.367L171.655 117.726H168.287L164.209 111.242C164.125 111.095 164.062 110.963 164.02 110.844C163.978 110.726 163.93 110.597 163.874 110.457H163.79C163.79 110.604 163.801 110.74 163.822 110.865C163.843 110.984 163.853 111.116 163.853 111.263L163.863 117.726H159.429Z" fill="white"/>
<path d="M22.5825 130.849V126.118H23.8296L25.7563 129.232C25.7936 129.302 25.821 129.357 25.8384 129.397C25.8583 129.434 25.877 129.478 25.8944 129.527H25.9019C25.9193 129.478 25.9367 129.434 25.9542 129.397C25.9716 129.359 26.0002 129.305 26.04 129.232L27.9481 126.118H29.2176V130.849H28.2169L28.2244 127.955C28.2244 127.903 28.2281 127.853 28.2356 127.806C28.243 127.756 28.248 127.705 28.2505 127.653H28.2169C28.1995 127.703 28.1796 127.754 28.1572 127.806C28.1372 127.856 28.1161 127.904 28.0937 127.952L26.3388 130.849H25.5285L23.6728 127.869C23.6404 127.812 23.6143 127.757 23.5944 127.705C23.5769 127.65 23.5583 127.601 23.5384 127.556H23.5047C23.5072 127.601 23.5122 127.65 23.5197 127.705C23.5272 127.76 23.5309 127.816 23.5309 127.873L23.5421 130.849H22.5825ZM32.2897 130.849V126.118H36.2513V127.059H33.2642V127.993H35.904V128.874H33.2642V129.927H36.2998V130.849H32.2897ZM43.4493 131.902V130.849H39.413V131.902H38.4496V129.901H44.4126V131.902H43.4493ZM39.5661 126.118H43.6845V130.849H42.6764V127.067H40.4622L40.3539 128.4C40.2967 129.007 40.2344 129.431 40.1672 129.673C40.1 129.914 39.9955 130.142 39.8536 130.356H38.823C39.0321 130.082 39.1715 129.826 39.2412 129.587C39.3134 129.346 39.3682 128.929 39.4055 128.336L39.5661 126.118ZM51.7749 130.849H50.7705V127.978C50.7705 127.903 50.7718 127.831 50.7743 127.761C50.7767 127.692 50.778 127.628 50.778 127.571H50.7631C50.7406 127.626 50.7158 127.687 50.6884 127.754C50.661 127.818 50.6137 127.891 50.5465 127.97L48.0821 130.849H46.947V126.118H47.9514V128.964C47.9514 129.041 47.9502 129.11 47.9477 129.173C47.9477 129.232 47.9477 129.296 47.9477 129.363H47.9626C47.9851 129.306 48.0087 129.247 48.0336 129.188C48.061 129.128 48.1058 129.058 48.168 128.978L50.6436 126.118H51.7749V130.849ZM59.3463 131.902V130.849H54.847V126.118H55.8552V129.908H58.5771V126.118H59.5853V129.908H60.3097V131.902H59.3463ZM67.672 130.849H66.6675V127.978C66.6675 127.903 66.6688 127.831 66.6713 127.761C66.6738 127.692 66.675 127.628 66.675 127.571H66.6601C66.6377 127.626 66.6128 127.687 66.5854 127.754C66.558 127.818 66.5107 127.891 66.4435 127.97L63.9792 130.849H62.8441V126.118H63.8485V128.964C63.8485 129.041 63.8472 129.11 63.8447 129.173C63.8447 129.232 63.8447 129.296 63.8447 129.363H63.8597C63.8821 129.306 63.9057 129.247 63.9306 129.188C63.958 129.128 64.0028 129.058 64.065 128.978L66.5406 126.118H67.672V130.849ZM70.744 130.849V126.118H71.7522V127.918H74.5152V126.118H75.5234V130.849H74.5152V128.893H71.7522V130.849H70.744ZM78.2072 128.542V128.433C78.2072 127.607 78.4822 126.998 79.0323 126.607C79.5825 126.217 80.2869 126.021 81.1457 126.021C81.9721 126.021 82.5882 126.157 82.994 126.428C83.4022 126.7 83.6723 127.154 83.8042 127.791L83.8192 127.955H82.811L82.7961 127.787C82.7065 127.519 82.5384 127.306 82.292 127.149C82.0481 126.992 81.6722 126.914 81.1644 126.914C80.5545 126.914 80.0853 127.038 79.7567 127.287C79.4306 127.533 79.2676 127.892 79.2676 128.362V128.609C79.2676 129.151 79.4381 129.53 79.7791 129.744C80.1201 129.955 80.5856 130.061 81.1756 130.061C81.7157 130.061 82.1128 129.983 82.3667 129.826C82.6231 129.669 82.7687 129.454 82.8035 129.18L82.811 129.023H83.8192L83.8117 129.202C83.7644 129.805 83.5192 130.247 83.0761 130.528C82.6355 130.807 81.9933 130.946 81.1494 130.946C80.2757 130.946 79.5663 130.747 79.0211 130.349C78.4785 129.951 78.2072 129.348 78.2072 128.542ZM89.953 130.849L87.5297 128.575L88.3437 128.135L91.2823 130.849H89.953ZM86.8838 127.993H87.7874L89.7999 126.118H91.1478L88.1271 128.937H86.8838V127.993ZM86.3648 130.849V126.118H87.3729V130.849H86.3648ZM92.6442 130.849L94.9816 126.122H96.0682L98.4429 130.849H97.3153L95.6761 127.358C95.6463 127.296 95.6201 127.243 95.5977 127.201C95.5778 127.159 95.5554 127.115 95.5305 127.07H95.523C95.4982 127.115 95.4745 127.16 95.4521 127.205C95.4322 127.247 95.4073 127.301 95.3774 127.365L93.7383 130.849H92.6442ZM93.742 129.841L94.0706 128.99H96.983L97.3153 129.841H93.742ZM104.834 130.849H103.826V129.427H102.12L101.821 129.371C101.346 129.308 100.99 129.133 100.753 128.844C100.519 128.555 100.402 128.189 100.402 127.746C100.402 127.251 100.558 126.856 100.869 126.563C101.18 126.266 101.612 126.118 102.165 126.118H104.834V130.849ZM103.826 128.564V127.011H102.31C102.012 127.011 101.788 127.08 101.638 127.22C101.491 127.359 101.418 127.547 101.418 127.784C101.418 128.018 101.491 128.207 101.638 128.351C101.785 128.493 102.009 128.564 102.31 128.564H103.826ZM101.265 130.849H100.163L101.642 128.937H102.729L101.265 130.849ZM111.27 127.063V126.118H116.131V127.063H114.208V130.849H113.193V127.063H111.27ZM118.666 130.849V126.118H122.627V127.059H119.64V127.993H122.28V128.874H119.64V129.927H122.676V130.849H118.666ZM124.583 130.849L126.767 128.194L126.939 128.15L128.541 126.118H129.635L127.593 128.639L127.424 128.687L125.733 130.849H124.583ZM124.699 126.118H125.89L127.514 128.105L127.522 128.157L129.71 130.849H128.489L126.786 128.732L126.779 128.68L124.699 126.118ZM132.039 130.849V126.118H133.047V127.918H135.81V126.118H136.818V130.849H135.81V128.893H133.047V130.849H132.039ZM144.714 130.849H143.71V127.978C143.71 127.903 143.711 127.831 143.714 127.761C143.716 127.692 143.717 127.628 143.717 127.571H143.702C143.68 127.626 143.655 127.687 143.628 127.754C143.6 127.818 143.553 127.891 143.486 127.97L141.021 130.849H139.886V126.118H140.891V128.964C140.891 129.041 140.89 129.11 140.887 129.173C140.887 129.232 140.887 129.296 140.887 129.363H140.902C140.924 129.306 140.948 129.247 140.973 129.188C141 129.128 141.045 129.058 141.107 128.978L143.583 126.118H144.714V130.849ZM151.375 130.849L148.951 128.575L149.765 128.135L152.704 130.849H151.375ZM148.305 127.993H149.209L151.221 126.118H152.569L149.549 128.937H148.305V127.993ZM147.786 130.849V126.118H148.794V130.849H147.786ZM154.066 130.849L156.403 126.122H157.49L159.865 130.849H158.737L157.098 127.358C157.068 127.296 157.042 127.243 157.019 127.201C156.999 127.159 156.977 127.115 156.952 127.07H156.945C156.92 127.115 156.896 127.16 156.874 127.205C156.854 127.247 156.829 127.301 156.799 127.365L155.16 130.849H154.066ZM155.164 129.841L155.492 128.99H158.405L158.737 129.841H155.164Z" fill="white"/>
</svg>
