<svg width="48" height="48" viewBox="0 0 48 48" fill="none" xmlns="http://www.w3.org/2000/svg">
<g clip-path="url(#clip0_828_4442)">
<path d="M43.5888 31.5387C42.6279 30.9838 41.512 30.9724 40.5763 31.4057L36.2313 28.8971C36.1452 27.9118 35.6199 27.0506 34.8527 26.5108V21.4896C35.62 20.9498 36.1453 20.0885 36.2314 19.1032L37.0937 18.6053C37.43 18.4111 37.5452 17.9811 37.3511 17.6448C37.1569 17.3086 36.7267 17.1934 36.3906 17.3875L36.0114 17.6064C35.8938 17.3127 35.7347 17.0399 35.5414 16.7952L38.9219 14.8434C39.0379 15.1336 39.1962 15.4082 39.3903 15.6555L39.2266 15.7502C38.8903 15.9444 38.7751 16.3744 38.9693 16.7107C39.1644 17.0487 39.5951 17.1613 39.9297 16.9681L40.5763 16.5947C40.7468 16.6737 40.9253 16.7385 41.1104 16.7882C41.9507 17.0134 42.8316 16.8992 43.5888 16.4619C45.152 15.5595 45.6869 13.5639 44.7843 12.0003C43.8839 10.4407 41.8826 9.90456 40.3228 10.8048C39.3669 11.3567 38.7955 12.3222 38.7036 13.346L34.3561 15.856C33.5056 15.4585 32.4912 15.4393 31.5995 15.856L27.2506 13.3452C27.1566 12.3726 26.6341 11.5234 25.8748 10.9892V5.93921C26.7156 5.34774 27.2659 4.37012 27.2659 3.2664C27.2658 1.46546 25.8007 0.000244141 23.9998 0.000244141C22.1988 0.000244141 20.7337 1.46546 20.7337 3.2664C20.7337 4.37012 21.2841 5.34774 22.1248 5.93921V6.74584C22.1248 7.13424 22.4396 7.44896 22.8279 7.44896C23.2162 7.44896 23.531 7.13424 23.531 6.74584V6.49881C23.8371 6.54296 24.1538 6.54418 24.4685 6.49881V10.4296C24.1624 10.3854 23.8457 10.3842 23.531 10.4296V10.0271C23.531 9.63868 23.2162 9.32396 22.8279 9.32396C22.4396 9.32396 22.1248 9.63868 22.1248 10.0271V10.9892C21.3655 11.5233 20.843 12.3725 20.749 13.3451L16.4001 15.8559C15.5496 15.4583 14.535 15.4391 13.6434 15.8559L9.296 13.3459C9.20413 12.3221 8.63272 11.3567 7.67685 10.8047C6.11713 9.90418 4.11566 10.4405 3.21528 12.0002C2.31285 13.5635 2.84722 15.5592 4.41078 16.4618C5.35607 17.0076 6.47066 17.0359 7.42325 16.5947L11.7682 19.1034C11.8543 20.0887 12.3796 20.95 13.1469 21.4897V26.5109C12.3797 27.0507 11.8543 27.9119 11.7683 28.8972L7.42325 31.4058C7.25281 31.3269 7.07432 31.2621 6.88916 31.2124C6.04644 30.9865 5.16632 31.1025 4.41078 31.5387C3.65525 31.9748 3.11478 32.6791 2.88903 33.5218C2.66328 34.3644 2.77916 35.2446 3.21528 36.0002C4.11135 37.5523 6.10991 38.1003 7.67685 37.1957C8.63272 36.6438 9.20413 35.6784 9.2961 34.6546L10.0517 34.2182C10.388 34.0241 10.5032 33.5941 10.3091 33.2578C10.1149 32.9214 9.68469 32.8065 9.3486 33.0004L9.07766 33.1569C8.96169 32.8668 8.80335 32.5922 8.60928 32.3448L11.9883 30.3939C12.1059 30.6876 12.265 30.9604 12.4583 31.205L12.3194 31.2852C11.9832 31.4793 11.8679 31.9094 12.0621 32.2457C12.2568 32.5831 12.6872 32.6966 13.0227 32.503L13.6437 32.1444C14.4943 32.5419 15.5087 32.5611 16.4004 32.1444L20.7464 34.6536C20.8325 35.6389 21.3579 36.5001 22.125 37.0399V42.0612C21.2843 42.6526 20.734 43.6303 20.734 44.734C20.734 46.5349 22.1991 48.0001 24 48.0001C25.801 48.0001 27.2661 46.5349 27.2661 44.734C27.2661 43.6303 26.7157 42.6526 25.875 42.0612V37.0399C26.6422 36.5001 27.1677 35.6389 27.2536 34.6536L31.5997 32.1444C32.4502 32.5419 33.4647 32.5612 34.3564 32.1444L38.7038 34.6545C38.7957 35.6783 39.3671 36.6437 40.3229 37.1957C41.8921 38.1017 43.8898 37.5498 44.7845 36.0001C45.6868 34.437 45.1524 32.4413 43.5888 31.5387ZM22.1398 3.2664C22.1398 2.24087 22.9741 1.40649 23.9997 1.40649C25.0252 1.40649 25.8595 2.24078 25.8595 3.2664C25.8595 4.29184 25.0252 5.12621 23.9997 5.12621C22.9742 5.12621 22.1398 4.29184 22.1398 3.2664ZM38.922 33.1569L35.5415 31.2051C35.7348 30.9605 35.8938 30.6877 36.0115 30.394L39.3905 32.3449C39.1967 32.5916 39.0382 32.8662 38.922 33.1569ZM33.4465 25.9512C33.1404 25.907 32.8237 25.9058 32.509 25.9512V22.0493C32.8151 22.0935 33.1317 22.0947 33.4465 22.0493V25.9512ZM25.8578 34.2854C25.9041 35.3468 25.0531 36.227 23.9998 36.227C22.9457 36.227 22.0955 35.3461 22.1417 34.2854C22.1421 34.2793 22.1424 34.2732 22.1426 34.2671C22.1948 33.2879 23.0078 32.5074 23.9998 32.5074C24.9916 32.5074 25.8047 33.288 25.8569 34.2671C25.857 34.2731 25.8574 34.2792 25.8578 34.2854ZM21.4205 15.6636L18.0553 17.6065C17.9377 17.3128 17.7786 17.04 17.5853 16.7954L20.9567 14.8488C21.0721 15.1436 21.2292 15.4176 21.4205 15.6636ZM18.2753 19.1033L22.5941 16.6098C23.4807 17.0343 24.5185 17.0344 25.4053 16.6098L29.7241 19.1033C29.8102 20.0886 30.3356 20.9498 31.1027 21.4896V26.5109C30.3356 27.0507 29.8101 27.9119 29.7241 28.8972L25.3781 31.4064C24.5276 31.0089 23.513 30.9896 22.6213 31.4064L18.2753 28.8972C18.1892 27.9119 17.6638 27.0507 16.8967 26.5109V21.4896C17.6638 20.9499 18.1892 20.0886 18.2753 19.1033ZM27.0426 14.8488L30.414 16.7954C30.2207 17.04 30.0617 17.3128 29.9441 17.6065L26.5788 15.6636C26.7703 15.4176 26.9273 15.1436 27.0426 14.8488ZM18.0553 30.3939L21.4361 32.3458C21.2428 32.5904 21.0838 32.8632 20.9661 33.1569L17.5854 31.205C17.7787 30.9605 17.9377 30.6877 18.0553 30.3939ZM26.5634 32.3458L29.9442 30.3939C30.0617 30.6876 30.2208 30.9604 30.4141 31.205L27.0334 33.1569C26.9157 32.8633 26.7567 32.5904 26.5634 32.3458ZM41.0259 12.0226C41.9215 11.5056 43.0581 11.8227 43.5665 12.7034C44.0803 13.5934 43.776 14.73 42.8857 15.244C41.9953 15.7577 40.8591 15.4536 40.3451 14.5633C39.8323 13.6751 40.1378 12.5354 41.0259 12.0226ZM34.8348 18.7142C34.8351 18.7219 34.8355 18.7296 34.8359 18.7374C34.8806 19.795 34.0332 20.6765 32.9777 20.6765C31.9522 20.6765 31.1179 19.8422 31.1179 18.8167C31.1179 17.7927 31.9508 16.9568 32.9777 16.9568C33.9688 16.9569 34.7814 17.7362 34.8348 18.7142ZM25.8596 13.6621C25.8596 14.687 25.0258 15.522 23.9998 15.522C22.9747 15.522 22.1399 14.6881 22.1399 13.6621C22.1399 12.6366 22.9742 11.8022 23.9998 11.8022C25.0253 11.8022 25.8596 12.6365 25.8596 13.6621ZM16.8815 18.8168C16.8815 19.8422 16.0472 20.6766 15.0217 20.6766C13.9962 20.6766 13.1618 19.8423 13.1618 18.8168C13.1618 17.7928 13.9947 16.9569 15.0217 16.9569C16.0498 16.9569 16.8815 17.7938 16.8815 18.8168ZM9.07738 14.8436L12.4579 16.7954C12.2646 17.04 12.1056 17.3128 11.9879 17.6065L8.609 15.6557C8.80278 15.4089 8.96122 15.1343 9.07738 14.8436ZM5.11372 15.244C4.22366 14.7302 3.91888 13.5937 4.43291 12.7034C4.94413 11.8179 6.083 11.5084 6.97353 12.0226C7.86163 12.5354 8.16697 13.6751 7.65425 14.5633C7.14032 15.4534 6.00397 15.7579 5.11372 15.244ZM14.5529 22.0493C14.859 22.0935 15.1757 22.0947 15.4904 22.0493V25.9513C15.1843 25.9071 14.8677 25.9059 14.5529 25.9513V22.0493ZM6.97353 35.9779C6.08525 36.4906 4.94563 36.1852 4.43291 35.2971C4.18457 34.8669 4.11857 34.3656 4.24719 33.8858C4.47416 33.0385 5.23869 32.5065 6.04063 32.5065C6.689 32.5065 7.31113 32.8428 7.65425 33.4372C8.16707 34.3254 7.86163 35.4651 6.97353 35.9779ZM13.1619 29.1837C13.1619 28.1582 13.9962 27.3239 15.0217 27.3239C16.0472 27.3239 16.8815 28.1582 16.8815 29.1837C16.8815 30.2077 16.0486 31.0436 15.0217 31.0436C13.9936 31.0436 13.1619 30.2067 13.1619 29.1837ZM23.9998 46.594C22.9742 46.594 22.1399 45.7597 22.1399 44.7341C22.1399 43.7087 22.9742 42.8743 23.9998 42.8743C25.0253 42.8743 25.8596 43.7086 25.8596 44.7341C25.8596 45.7597 25.0253 46.594 23.9998 46.594ZM24.4685 41.5017C24.1624 41.4575 23.8457 41.4563 23.531 41.5017V37.5997C23.8371 37.6439 24.1538 37.6451 24.4685 37.5997V41.5017ZM31.1179 29.1837C31.1179 28.1582 31.9522 27.3239 32.9777 27.3239C34.0032 27.3239 34.8375 28.1582 34.8375 29.1837C34.8375 30.2077 34.0047 31.0436 32.9777 31.0436C31.9497 31.0436 31.1179 30.2067 31.1179 29.1837ZM43.5665 35.2971C43.0538 36.1853 41.914 36.4907 41.0259 35.9779C40.1378 35.4651 39.8324 34.3254 40.3452 33.4372C40.8603 32.5449 41.9974 32.2438 42.8858 32.7565C43.7758 33.2703 44.0805 34.4068 43.5665 35.2971Z" fill="#0149D6"/>
<path d="M20.0835 26.5045H21.4957V27.9167C21.4957 28.3579 21.8547 28.7169 22.296 28.7169H25.704C26.1453 28.7169 26.5043 28.3579 26.5043 27.9167V26.5045H27.9165C28.3578 26.5045 28.7167 26.1455 28.7167 25.7043V22.2961C28.7167 21.8549 28.3577 21.496 27.9165 21.496H26.5043V20.0837C26.5043 19.6425 26.1453 19.2836 25.704 19.2836H22.296C21.8547 19.2836 21.4957 19.6425 21.4957 20.0837V21.496H20.0835C19.6422 21.496 19.2832 21.8549 19.2832 22.2961V25.7043C19.2833 26.1455 19.6423 26.5045 20.0835 26.5045ZM20.6895 22.9022H22.1019C22.5432 22.9022 22.902 22.5433 22.902 22.1021V20.6898H25.098V22.1021C25.098 22.5433 25.457 22.9022 25.8982 22.9022H27.3105V25.0982H25.8982C25.4569 25.0982 25.098 25.4572 25.098 25.8984V27.3106H22.902V25.8984C22.902 25.4572 22.5431 25.0982 22.1019 25.0982H20.6895V22.9022Z" fill="#0149D6"/>
</g>
<defs>
<clipPath id="clip0_828_4442">
<rect width="48" height="48" fill="white" transform="translate(0 0.000244141)"/>
</clipPath>
</defs>
</svg>
