<svg width="48" height="48" viewBox="0 0 48 48" fill="none" xmlns="http://www.w3.org/2000/svg">
<path d="M32.6655 41.4736C29.9741 42.815 27.0065 43.5089 23.9993 43.5002C22.7876 43.5004 21.5784 43.3887 20.3873 43.1665L20.1113 44.6409C21.3935 44.8801 22.695 45.0004 23.9993 45.0002C27.2382 45.0094 30.4344 44.2618 33.3331 42.8169L32.6655 41.4736Z" fill="white"/>
<path d="M40.2166 13.1674L41.4631 12.333C39.4212 9.28337 36.6191 6.81909 33.3336 5.18347L32.666 6.52673C35.7176 8.04596 38.3201 10.3348 40.2166 13.1674Z" fill="white"/>
<path d="M8.54181 12.1115C10.6791 9.33417 13.5237 7.18233 16.7777 5.88116L16.2218 4.48792C12.6889 5.89861 9.6051 8.24164 7.29914 11.2672C4.99319 14.2927 3.55155 17.8874 3.12793 21.6678L4.61877 21.8326C5.01101 18.294 6.3681 14.9312 8.54181 12.1115Z" fill="white"/>
<path d="M25.0325 39.391C25.2994 39.5629 25.5996 39.6763 25.9134 39.7239C26.2272 39.7715 26.5475 39.7521 26.8533 39.667C27.1591 39.5819 27.4434 39.4331 27.6876 39.2303C27.9318 39.0275 28.1302 38.7753 28.27 38.4903C28.4097 38.2053 28.4876 37.894 28.4984 37.5768C28.5092 37.2596 28.4528 36.9437 28.3328 36.6498C28.2128 36.3559 28.032 36.0908 27.8023 35.8718C27.5725 35.6529 27.299 35.485 26.9997 35.3792V27.6212C27.2992 27.5156 27.573 27.3478 27.803 27.1289C28.033 26.9099 28.214 26.6447 28.3342 26.3507C28.4543 26.0568 28.5108 25.7407 28.5001 25.4233C28.4893 25.106 28.4114 24.7944 28.2716 24.5093C28.1318 24.2242 27.9332 23.9719 27.6889 23.769C27.4445 23.5662 27.16 23.4173 26.8541 23.3323C26.5481 23.2473 26.2276 23.228 25.9136 23.2758C25.5997 23.3236 25.2994 23.4373 25.0325 23.6094L21.7497 21.6944V18.7502C21.749 18.1537 21.5118 17.5818 21.0899 17.16C20.6681 16.7382 20.0962 16.5009 19.4997 16.5002C19.3009 16.5 19.1102 16.4209 18.9696 16.2803C18.829 16.1397 18.7499 15.9491 18.7497 15.7502V12.7502H16.4011L18.7497 9.22732V9.00023C18.7497 8.42666 18.8323 7.85609 18.9948 7.30604L22.1891 10.5002H24.7497V9.00023H22.8103L19.6516 5.84144C20.1409 5.05497 20.8045 4.39146 21.5909 3.90212L23.2497 5.56086V7.50023H24.7497V4.93959L23.0555 3.24536C24.2272 2.89943 25.4766 2.92006 26.6362 3.30448C27.7959 3.68891 28.8102 4.41874 29.5432 5.39608L27.4391 7.50023H26.2497V9.00023H28.0603L30.3103 6.75026C30.6009 7.46479 30.7501 8.22889 30.7497 9.00023V9.55641C30.7491 10.1299 30.6662 10.7003 30.5035 11.2502H25.9391L24.2193 12.9699L25.2801 14.0305L26.5603 12.7502H29.8283C29.6865 12.9762 29.5297 13.1925 29.359 13.3975L27.5211 15.603C27.1845 16.0075 27.0001 16.5171 26.9997 17.0433V22.5002H28.4997V17.0433C28.4998 16.8679 28.5613 16.698 28.6735 16.5632L30.5113 14.3578C31.6335 13.0094 32.2485 11.3107 32.2497 9.55641V9.00023C32.2497 7.03123 31.4754 5.14122 30.0939 3.73819C28.7125 2.33516 26.8347 1.53166 24.8659 1.50115C22.8972 1.47064 20.9954 2.21556 19.5711 3.57511C18.1468 4.93466 17.3143 6.79977 17.2533 8.76782L15.1531 11.9181C15.0024 12.144 14.916 12.4066 14.9028 12.6778C14.8897 12.949 14.9505 13.2186 15.0786 13.458C15.2067 13.6974 15.3974 13.8975 15.6303 14.037C15.8632 14.1765 16.1296 14.2502 16.4011 14.2502H17.2497V15.7502C17.2504 16.3468 17.4877 16.9187 17.9095 17.3405C18.3313 17.7623 18.9032 17.9995 19.4997 18.0002C19.6985 18.0005 19.8892 18.0795 20.0298 18.2201C20.1704 18.3608 20.2495 18.5514 20.2497 18.7502V20.8194L17.2283 19.0569C17.2726 18.7383 17.248 18.4139 17.1564 18.1056C17.0647 17.7973 16.9079 17.5123 16.6967 17.2697C16.4855 17.027 16.2248 16.8325 15.932 16.6993C15.6393 16.566 15.3214 16.497 14.9997 16.497C14.678 16.497 14.3601 16.566 14.0674 16.6993C13.7746 16.8325 13.5139 17.027 13.3027 17.2697C13.0915 17.5123 12.9347 17.7973 12.8431 18.1056C12.7514 18.4139 12.7268 18.7383 12.7712 19.0569L4.9669 23.6094C4.70005 23.4375 4.39985 23.3241 4.08603 23.2765C3.77222 23.229 3.45188 23.2484 3.14609 23.3334C2.8403 23.4185 2.55598 23.5673 2.31182 23.7701C2.06766 23.9729 1.86918 24.2251 1.72944 24.5101C1.58969 24.7951 1.51185 25.1064 1.50102 25.4237C1.49019 25.7409 1.54662 26.0568 1.6666 26.3506C1.78658 26.6445 1.9674 26.9096 2.19716 27.1286C2.42692 27.3476 2.70043 27.5155 2.99971 27.6212V35.3792C2.7002 35.4848 2.42644 35.6526 2.19644 35.8716C1.96644 36.0905 1.78541 36.3557 1.66526 36.6497C1.54511 36.9437 1.48856 37.2597 1.49934 37.5771C1.51012 37.8945 1.58798 38.206 1.72779 38.4911C1.86761 38.7763 2.06621 39.0286 2.31054 39.2314C2.55487 39.4343 2.83938 39.5831 3.14536 39.6681C3.45133 39.7531 3.77184 39.7724 4.0858 39.7246C4.39976 39.6769 4.70004 39.5632 4.9669 39.391L12.7712 43.9435C12.7268 44.2621 12.7514 44.5865 12.8431 44.8948C12.9347 45.2031 13.0915 45.4882 13.3027 45.7308C13.5139 45.9734 13.7746 46.1679 14.0674 46.3012C14.3601 46.4345 14.678 46.5034 14.9997 46.5034C15.3214 46.5034 15.6393 46.4345 15.932 46.3012C16.2248 46.1679 16.4855 45.9734 16.6967 45.7308C16.9079 45.4882 17.0647 45.2031 17.1564 44.8948C17.248 44.5865 17.2726 44.2621 17.2283 43.9435L25.0325 39.391ZM5.29773 27.1307L12.7695 31.2062C12.7431 31.4013 12.7431 31.5991 12.7695 31.7942L5.29773 35.8697C5.06902 35.6521 4.79714 35.485 4.49971 35.3792V27.6212C4.79714 27.5154 5.06902 27.3483 5.29773 27.1307ZM5.97988 37.2062L13.4517 33.1307C13.6804 33.3483 13.9523 33.5154 14.2497 33.6212V42.1292C13.9568 42.2334 13.6886 42.3971 13.462 42.6099L5.89009 38.193C5.99371 37.875 6.0244 37.5377 5.97988 37.2062ZM14.9997 30.7502C15.148 30.7502 15.293 30.7942 15.4164 30.8766C15.5397 30.959 15.6358 31.0762 15.6926 31.2132C15.7494 31.3503 15.7642 31.5011 15.7353 31.6465C15.7064 31.792 15.6349 31.9257 15.53 32.0306C15.4251 32.1354 15.2915 32.2069 15.146 32.2358C15.0005 32.2648 14.8497 32.2499 14.7127 32.1931C14.5756 32.1364 14.4585 32.0402 14.3761 31.9169C14.2937 31.7936 14.2497 31.6486 14.2497 31.5002C14.2499 31.3014 14.329 31.1107 14.4696 30.9701C14.6102 30.8295 14.8009 30.7505 14.9997 30.7502ZM15.7497 33.6212C16.0471 33.5154 16.319 33.3483 16.5477 33.1307L24.0195 37.2062C23.975 37.5377 24.0057 37.875 24.1093 38.193L16.5374 42.6099C16.3109 42.3971 16.0426 42.2334 15.7497 42.1292V33.6212ZM24.7017 27.1307C24.9304 27.3483 25.2023 27.5154 25.4997 27.6212V35.3792C25.2023 35.485 24.9304 35.6521 24.7017 35.8697L17.2299 31.7942C17.2563 31.5991 17.2563 31.4013 17.2299 31.2062L24.7017 27.1307ZM26.2497 38.2502C26.1014 38.2502 25.9564 38.2062 25.833 38.1238C25.7097 38.0414 25.6136 37.9243 25.5568 37.7872C25.5 37.6502 25.4852 37.4994 25.5141 37.3539C25.5431 37.2084 25.6145 37.0748 25.7194 36.9699C25.8243 36.865 25.9579 36.7936 26.1034 36.7646C26.2489 36.7357 26.3997 36.7505 26.5367 36.8073C26.6738 36.8641 26.7909 36.9602 26.8733 37.0835C26.9557 37.2069 26.9997 37.3519 26.9997 37.5002C26.9995 37.6991 26.9204 37.8897 26.7798 38.0303C26.6392 38.1709 26.4485 38.25 26.2497 38.2502ZM26.9997 25.5002C26.9997 25.6486 26.9557 25.7936 26.8733 25.9169C26.7909 26.0402 26.6738 26.1364 26.5367 26.1931C26.3997 26.2499 26.2489 26.2648 26.1034 26.2358C25.9579 26.2069 25.8243 26.1354 25.7194 26.0306C25.6145 25.9257 25.5431 25.792 25.5141 25.6465C25.4852 25.5011 25.5 25.3503 25.5568 25.2132C25.6136 25.0762 25.7097 24.959 25.833 24.8766C25.9564 24.7942 26.1014 24.7502 26.2497 24.7502C26.4485 24.7505 26.6392 24.8295 26.7798 24.9701C26.9204 25.1108 26.9995 25.3014 26.9997 25.5002ZM24.1093 24.8074C24.0057 25.1255 23.975 25.4627 24.0195 25.7942L16.5477 29.8697C16.319 29.6521 16.0471 29.485 15.7497 29.3792V20.8712C16.0426 20.7671 16.3108 20.6034 16.5374 20.3905L24.1093 24.8074ZM14.9997 18.0002C15.148 18.0002 15.293 18.0442 15.4164 18.1266C15.5397 18.209 15.6358 18.3262 15.6926 18.4632C15.7494 18.6003 15.7642 18.7511 15.7353 18.8965C15.7064 19.042 15.6349 19.1757 15.53 19.2806C15.4251 19.3854 15.2915 19.4569 15.146 19.4858C15.0005 19.5148 14.8497 19.4999 14.7127 19.4431C14.5756 19.3864 14.4585 19.2902 14.3761 19.1669C14.2937 19.0436 14.2497 18.8986 14.2497 18.7502C14.2499 18.5514 14.329 18.3608 14.4696 18.2201C14.6102 18.0795 14.8009 18.0005 14.9997 18.0002ZM13.462 20.3905C13.6886 20.6034 13.9568 20.7671 14.2497 20.8712V29.3792C13.9523 29.485 13.6804 29.6521 13.4517 29.8697L5.97988 25.7942C6.0244 25.4627 5.99371 25.1255 5.89009 24.8074L13.462 20.3905ZM3.74971 24.7502C3.89804 24.7502 4.04305 24.7942 4.16638 24.8766C4.28972 24.959 4.38585 25.0762 4.44262 25.2132C4.49938 25.3503 4.51423 25.5011 4.48529 25.6465C4.45636 25.792 4.38493 25.9257 4.28004 26.0306C4.17515 26.1354 4.04151 26.2069 3.89602 26.2358C3.75054 26.2648 3.59974 26.2499 3.46269 26.1931C3.32565 26.1364 3.20851 26.0402 3.1261 25.9169C3.04369 25.7936 2.99971 25.6486 2.99971 25.5002C2.99993 25.3014 3.07902 25.1108 3.21963 24.9701C3.36023 24.8295 3.55086 24.7505 3.74971 24.7502ZM2.99971 37.5002C2.99971 37.3519 3.04369 37.2069 3.1261 37.0835C3.20851 36.9602 3.32565 36.8641 3.46269 36.8073C3.59974 36.7505 3.75054 36.7357 3.89602 36.7646C4.04151 36.7936 4.17515 36.865 4.28004 36.9699C4.38493 37.0748 4.45636 37.2084 4.48529 37.3539C4.51423 37.4994 4.49938 37.6502 4.44262 37.7872C4.38585 37.9243 4.28972 38.0414 4.16638 38.1238C4.04305 38.2062 3.89804 38.2502 3.74971 38.2502C3.55086 38.25 3.36023 38.1709 3.21963 38.0303C3.07902 37.8897 2.99993 37.6991 2.99971 37.5002ZM14.9997 45.0002C14.8514 45.0002 14.7064 44.9562 14.583 44.8738C14.4597 44.7914 14.3636 44.6743 14.3068 44.5372C14.25 44.4002 14.2352 44.2494 14.2641 44.1039C14.2931 43.9584 14.3645 43.8248 14.4694 43.7199C14.5743 43.615 14.7079 43.5436 14.8534 43.5146C14.9989 43.4857 15.1497 43.5005 15.2867 43.5573C15.4238 43.6141 15.5409 43.7102 15.6233 43.8335C15.7057 43.9569 15.7497 44.1019 15.7497 44.2502C15.7495 44.4491 15.6704 44.6397 15.5298 44.7803C15.3892 44.9209 15.1985 45 14.9997 45.0002Z" fill="white"/>
<path d="M41.7 39.9003L40.25 38.8127L42.6 37.0502C44.5586 35.5835 45.8931 33.433 46.3379 31.0268C46.7826 28.6206 46.305 26.1352 45 24.0652V24.0002H44.959C44.3322 23.0155 43.5331 22.1517 42.6 21.4503L40.25 19.6878L41.7 18.6002C42.7224 17.8297 43.5524 16.8328 44.1249 15.6877C44.6974 14.5426 44.997 13.2805 45 12.0002H43.5C43.4993 12.767 43.3673 13.528 43.11 14.2502H34.8901C34.6327 13.528 34.5008 12.767 34.5 12.0002H33C33.0031 13.2805 33.3026 14.5426 33.8752 15.6877C34.4477 16.8328 35.2777 17.8297 36.3001 18.6002L37.7501 19.6878L35.4001 21.4503C34.467 22.1517 33.6679 23.0155 33.0411 24.0002H33V24.0652C31.6951 26.1352 31.2174 28.6206 31.6622 31.0268C32.1069 33.433 33.4414 35.5835 35.4001 37.0502L37.7501 38.8127L36.3001 39.9003C35.2777 40.6708 34.4477 41.6677 33.8752 42.8128C33.3026 43.9579 33.0031 45.22 33 46.5002H34.5C34.5008 45.7335 34.6327 44.9725 34.8901 44.2502H43.11C43.3673 44.9725 43.4993 45.7335 43.5 46.5002H45C44.997 45.22 44.6974 43.9579 44.1249 42.8128C43.5524 41.6677 42.7224 40.6708 41.7 39.9003ZM33.0351 30.0002H44.965C44.8671 31.0465 44.571 32.0647 44.0925 33.0002H33.9075C33.429 32.0647 33.1329 31.0465 33.0351 30.0002ZM33.0351 28.5002C33.1329 27.4539 33.429 26.4358 33.9075 25.5002H44.0925C44.571 26.4358 44.8671 27.4539 44.965 28.5002H33.0351ZM37.2 17.4003C36.591 16.9425 36.0642 16.3845 35.6422 15.7502H42.3579C41.9358 16.3845 41.4091 16.9425 40.8001 17.4003L39 18.7503L37.2 17.4003ZM36.3001 22.6503L39 20.6252L41.7 22.6503C42.2222 23.0424 42.6956 23.4956 43.1101 24.0002H34.89C35.3045 23.4956 35.7779 23.0424 36.3001 22.6503ZM36.3001 35.8502C35.7779 35.4581 35.3045 35.0049 34.89 34.5002H43.1101C42.6956 35.0049 42.2222 35.4581 41.7 35.8502L39 37.8752L36.3001 35.8502ZM35.6422 42.7502C36.0642 42.1159 36.591 41.558 37.2 41.1002L39 39.7502L40.8001 41.1002C41.4091 41.558 41.9358 42.1159 42.3579 42.7502H35.6422Z" fill="white"/>
</svg>
