<svg width="48" height="48" viewBox="0 0 48 48" fill="none" xmlns="http://www.w3.org/2000/svg">
<g clip-path="url(#clip0_828_4279)">
<path d="M47.2955 44.2925H44.0576V31.1087C44.0576 30.7196 43.7422 30.4042 43.3531 30.4042C42.964 30.4042 42.6486 30.7196 42.6486 31.1087V44.2925H37.1618V21.1032C37.1618 20.9737 37.2671 20.8684 37.3966 20.8684H42.4138C42.5432 20.8684 42.6486 20.9737 42.6486 21.1032V28.2907C42.6486 28.6798 42.964 28.9952 43.3531 28.9952C43.7422 28.9952 44.0576 28.6798 44.0576 28.2907V21.1032C44.0576 20.1968 43.3202 19.4594 42.4138 19.4594H37.3966C36.4902 19.4594 35.7528 20.1968 35.7528 21.1032V44.2926H33.4541V26.2303C33.4541 25.3239 32.7166 24.5864 31.8103 24.5864H26.7931C25.8867 24.5864 25.1493 25.3239 25.1493 26.2303V44.2926H22.8506V31.3573C22.8506 30.451 22.1133 29.7135 21.2068 29.7135H16.1896C15.2833 29.7135 14.5458 30.451 14.5458 31.3573V37.5177C14.5458 37.9068 14.8612 38.2222 15.2503 38.2222C15.6394 38.2222 15.9548 37.9068 15.9548 37.5177V31.3573C15.9548 31.2278 16.0602 31.1225 16.1896 31.1225H21.2068C21.3363 31.1225 21.4416 31.2278 21.4416 31.3573V44.2925H15.9548V40.3357C15.9548 39.9466 15.6394 39.6312 15.2503 39.6312C14.8612 39.6312 14.5458 39.9466 14.5458 40.3357V44.2925H12.2471V36.4844C12.2471 35.5781 11.5098 34.8406 10.6033 34.8406H5.58622C4.67986 34.8406 3.94239 35.5781 3.94239 36.4844V44.2925H0.704501C0.315429 44.2925 0 44.608 0 44.997C0 45.3861 0.315429 45.7015 0.704501 45.7015H47.2955C47.6846 45.7015 48 45.3861 48 44.997C48 44.608 47.6846 44.2925 47.2955 44.2925ZM26.5583 26.2303C26.5583 26.1008 26.6637 25.9954 26.7931 25.9954H31.8103C31.9397 25.9954 32.0451 26.1008 32.0451 26.2303V44.2926H26.5583V26.2303ZM5.35139 36.4844C5.35139 36.355 5.45678 36.2496 5.58622 36.2496H10.6034C10.7329 36.2496 10.8382 36.355 10.8382 36.4844V44.2925H5.35139V36.4844Z" fill="#0149D6"/>
<path d="M7.52294 26.4301C7.56154 26.4301 7.60053 26.4287 7.6396 26.4261C12.8352 26.0652 17.721 24.9313 22.1613 23.0559C28.1404 20.5306 33.0902 16.7241 36.8834 11.7361L39.2579 13.3871C39.7257 13.7359 40.4384 13.3166 40.361 12.7383L39.3769 2.93463C39.3449 2.51597 38.9022 2.20797 38.4983 2.32322L28.9568 4.80833C28.3872 4.93683 28.2421 5.75123 28.7321 6.06854L31.1282 7.73454C30.6515 8.48357 29.6012 9.96875 27.7697 11.7854C27.4935 12.0595 27.4917 12.5055 27.7657 12.7817C28.0397 13.0579 28.4858 13.0597 28.762 12.7857C31.5853 9.98509 32.6513 7.93734 32.6952 7.85158C32.8561 7.53766 32.7601 7.15309 32.4705 6.9517L30.7938 5.78589L38.0572 3.89417L38.8064 11.3569L37.1283 10.1902C36.814 9.97166 36.3831 10.044 36.1573 10.3528C32.4659 15.4036 27.5725 19.2409 21.6131 21.7579C16.2611 24.0183 11.0071 24.7796 7.5421 25.0204C7.33967 25.0722 7.27833 24.7005 7.47991 24.6789C15.1989 22.2969 21.6453 18.9481 26.64 14.7258C26.9372 14.4746 26.9744 14.0302 26.7232 13.733C26.4721 13.4359 26.0275 13.3985 25.7304 13.6498C20.8814 17.749 14.6013 21.0067 7.06454 23.3326C6.28189 23.5741 5.82265 24.3331 5.97256 25.1374C6.11506 25.9022 6.75728 26.4301 7.52294 26.4301Z" fill="#0149D6"/>
</g>
<defs>
<clipPath id="clip0_828_4279">
<rect width="48" height="48" fill="white" transform="translate(0 0.000244141)"/>
</clipPath>
</defs>
</svg>
