<svg width="48" height="48" viewBox="0 0 48 48" fill="none" xmlns="http://www.w3.org/2000/svg">
<path d="M45.75 27.0002C45.9489 27.0002 46.1397 26.9212 46.2803 26.7806C46.421 26.6399 46.5 26.4492 46.5 26.2502V14.2502C46.5 14.0513 46.421 13.8606 46.2803 13.7199C46.1397 13.5793 45.9489 13.5002 45.75 13.5002H38.25C38.0511 13.5002 37.8603 13.5793 37.7197 13.7199C37.579 13.8606 37.5 14.0513 37.5 14.2502C37.5 14.4492 37.579 14.6399 37.7197 14.7806C37.8603 14.9212 38.0511 15.0002 38.25 15.0002H45V25.5002H30V15.0002H35.25C35.4489 15.0002 35.6397 14.9212 35.7803 14.7806C35.921 14.6399 36 14.4492 36 14.2502C36 14.0513 35.921 13.8606 35.7803 13.7199C35.6397 13.5793 35.4489 13.5002 35.25 13.5002H29.25C29.0511 13.5002 28.8603 13.5793 28.7197 13.7199C28.579 13.8606 28.5 14.0513 28.5 14.2502V26.2502C28.5 26.4492 28.579 26.6399 28.7197 26.7806C28.8603 26.9212 29.0511 27.0002 29.25 27.0002H34.5V30.0002H26.9438C26.9775 29.482 27 28.9795 27 28.5002C27 20.5097 23.376 14.2502 18.75 14.2502H9.75001C7.47376 14.2502 5.36401 15.7795 3.80851 18.556C3.76035 18.6419 3.72959 18.7365 3.71798 18.8343C3.70637 18.9322 3.71414 19.0313 3.74084 19.1261C3.79478 19.3176 3.92259 19.4799 4.09614 19.5771C4.26969 19.6744 4.47477 19.6987 4.66627 19.6448C4.85777 19.5908 5.02 19.463 5.11726 19.2895C6.39526 17.0072 8.04076 15.7502 9.75001 15.7502H15.0248C12.3218 18.0647 10.5 22.8415 10.5 28.5002C10.4998 30.5254 10.7612 32.5421 11.2778 34.5002H4.50001C4.28559 34.5014 4.07189 34.5253 3.86251 34.5715C3.28721 32.5992 2.99678 30.5548 3.00001 28.5002C2.98522 26.2648 3.32183 24.0409 3.99751 21.91C4.02834 21.8164 4.04044 21.7177 4.03311 21.6195C4.02579 21.5212 3.99918 21.4254 3.95482 21.3374C3.91046 21.2495 3.8492 21.1711 3.77456 21.1068C3.69991 21.0425 3.61333 20.9936 3.51976 20.9627C3.4262 20.9319 3.32747 20.9198 3.22923 20.9271C3.13099 20.9345 3.03515 20.9611 2.94719 21.0054C2.85923 21.0498 2.78087 21.1111 2.71658 21.1857C2.6523 21.2603 2.60334 21.3469 2.57251 21.4405C1.16667 25.9423 1.14237 30.7622 2.50276 35.278C2.18861 35.557 1.9369 35.8991 1.7641 36.282C1.5913 36.665 1.50131 37.0801 1.50001 37.5002V45.7502C1.50001 45.9492 1.57903 46.1399 1.71968 46.2806C1.86034 46.4212 2.0511 46.5002 2.25001 46.5002H5.25001C5.44893 46.5002 5.63969 46.4212 5.78034 46.2806C5.921 46.1399 6.00001 45.9492 6.00001 45.7502C6.00001 45.5513 5.921 45.3606 5.78034 45.2199C5.63969 45.0793 5.44893 45.0002 5.25001 45.0002H3.00001V37.5002C3.00001 37.1024 3.15805 36.7209 3.43935 36.4396C3.72066 36.1583 4.10219 36.0002 4.50001 36.0002H15C15.3978 36.0002 15.7794 36.1583 16.0607 36.4396C16.342 36.7209 16.5 37.1024 16.5 37.5002V45.0002H8.25001C8.0511 45.0002 7.86034 45.0793 7.71968 45.2199C7.57903 45.3606 7.50001 45.5513 7.50001 45.7502C7.50001 45.9492 7.57903 46.1399 7.71968 46.2806C7.86034 46.4212 8.0511 46.5002 8.25001 46.5002H23.25C23.4489 46.5002 23.6397 46.4212 23.7803 46.2806C23.921 46.1399 24 45.9492 24 45.7502V39.5387C24.7472 38.4444 25.3431 37.2542 25.7715 36.0002H28.125L30 38.5V42.5732L28.575 45.415C28.5177 45.5297 28.4908 45.6571 28.4967 45.7851C28.5027 45.9132 28.5414 46.0375 28.609 46.1464C28.6767 46.2552 28.7712 46.3449 28.8834 46.4068C28.9956 46.4688 29.1218 46.5009 29.25 46.5002H42C42.1393 46.5002 42.2758 46.4615 42.3943 46.3882C42.5128 46.315 42.6085 46.2102 42.6708 46.0857C42.7331 45.9611 42.7595 45.8216 42.747 45.6829C42.7345 45.5442 42.6836 45.4117 42.6 45.3002L40.5 42.5005V38.4272L41.7135 36.0002H42.75C42.9489 36.0002 43.1397 35.9212 43.2803 35.7806C43.421 35.6399 43.5 35.4492 43.5 35.2502C43.5 35.0513 43.421 34.8606 43.2803 34.7199C43.1397 34.5793 42.9489 34.5002 42.75 34.5002H15.9653C15.623 33.5261 15.3744 32.5216 15.2228 31.5002H45V35.2502C45 35.4492 45.079 35.6399 45.2197 35.7806C45.3603 35.9212 45.5511 36.0002 45.75 36.0002C45.9489 36.0002 46.1397 35.9212 46.2803 35.7806C46.421 35.6399 46.5 35.4492 46.5 35.2502V30.7502C46.5 30.5513 46.421 30.3606 46.2803 30.2199C46.1397 30.0793 45.9489 30.0002 45.75 30.0002H40.5V27.0002H45.75ZM12 28.5002C12 21.589 15.0915 15.7502 18.75 15.7502C22.4085 15.7502 25.5 21.589 25.5 28.5002C25.5 28.9757 25.476 29.4752 25.44 30.0002H20.925C20.7509 29.1538 20.2904 28.3933 19.621 27.8468C18.9515 27.3003 18.1142 27.0013 17.25 27.0002H15.0608C15.4418 21.8357 17.7 18.7502 18.75 18.7502C19.7415 18.7502 22.275 21.913 22.4805 27.7765C22.4875 27.9754 22.5732 28.1634 22.7187 28.2991C22.8643 28.4349 23.0579 28.5072 23.2568 28.5002C23.4557 28.4933 23.6437 28.4076 23.7794 28.262C23.9151 28.1164 23.9875 27.9229 23.9805 27.724C23.7653 21.5515 21.051 17.2502 18.75 17.2502C16.275 17.2502 13.5 22.0615 13.5 28.5002C13.4828 30.5339 13.7811 32.558 14.3843 34.5002H12.8325C12.277 32.5488 11.9967 30.5293 12 28.5002ZM17.583 36.0002H20.883C20.0475 37.6105 19.1715 38.2502 18.7523 38.2502C18.4684 38.2052 18.206 38.0719 18.0023 37.8692V37.5002C17.9985 36.9718 17.8537 36.454 17.583 36.0002ZM18 45.0002V42.6827C18.2479 42.7242 18.4987 42.7468 18.75 42.7502C20.1434 42.7225 21.4781 42.1836 22.5 41.236V45.0002H18ZM18.75 41.2502C18.4975 41.2468 18.246 41.2161 18 41.1587V39.5905C18.2385 39.6881 18.4925 39.7422 18.75 39.7502C20.0843 39.7502 21.5078 38.3192 22.539 36.0002H24.1718C22.893 39.262 20.8695 41.2502 18.75 41.2502ZM39 39.0002V42.0002H37.5V39.0002H39ZM36 42.0002H34.5V39.0002H36V42.0002ZM33 42.0002H31.5V39.0002H33V42.0002ZM30.4635 45.0002L31.2135 43.5002H39.375L40.5 45.0002H30.4635ZM40.0365 36.0002L39.2865 37.5002H31.125L30 36.0002H40.0365ZM15 28.5002H17.25C17.7137 28.5022 18.1655 28.6473 18.5435 28.9158C18.9216 29.1843 19.2075 29.5631 19.362 30.0002H15.06C15.0248 29.5225 15 29.029 15 28.5002ZM39 30.0002H36V27.0002H39V30.0002Z" fill="#0149D6"/>
<path d="M36 17.2502C36 17.0513 35.921 16.8606 35.7803 16.7199C35.6397 16.5793 35.4489 16.5002 35.25 16.5002H32.25C32.0511 16.5002 31.8603 16.5793 31.7197 16.7199C31.579 16.8606 31.5 17.0513 31.5 17.2502V20.2502C31.5 20.4492 31.579 20.6399 31.7197 20.7806C31.8603 20.9212 32.0511 21.0002 32.25 21.0002H35.25C35.4489 21.0002 35.6397 20.9212 35.7803 20.7806C35.921 20.6399 36 20.4492 36 20.2502V17.2502ZM34.5 19.5002H33V18.0002H34.5V19.5002Z" fill="#0149D6"/>
<path d="M42.75 18.0002C42.9489 18.0002 43.1397 17.9212 43.2803 17.7806C43.421 17.6399 43.5 17.4492 43.5 17.2502C43.5 17.0513 43.421 16.8606 43.2803 16.7199C43.1397 16.5793 42.9489 16.5002 42.75 16.5002H39.75C39.5511 16.5002 39.3603 16.5793 39.2197 16.7199C39.079 16.8606 39 17.0513 39 17.2502C39 17.4492 39.079 17.6399 39.2197 17.7806C39.3603 17.9212 39.5511 18.0002 39.75 18.0002H42.75Z" fill="#0149D6"/>
<path d="M37.5 20.2502C37.5 20.4492 37.579 20.6399 37.7197 20.7806C37.8603 20.9212 38.0511 21.0002 38.25 21.0002H43.5C43.6989 21.0002 43.8897 20.9212 44.0303 20.7806C44.171 20.6399 44.25 20.4492 44.25 20.2502C44.25 20.0513 44.171 19.8606 44.0303 19.7199C43.8897 19.5793 43.6989 19.5002 43.5 19.5002H38.25C38.0511 19.5002 37.8603 19.5793 37.7197 19.7199C37.579 19.8606 37.5 20.0513 37.5 20.2502Z" fill="#0149D6"/>
<path d="M41.25 22.5002C41.0511 22.5002 40.8603 22.5793 40.7197 22.7199C40.579 22.8606 40.5 23.0513 40.5 23.2502C40.5 23.4492 40.579 23.6399 40.7197 23.7806C40.8603 23.9212 41.0511 24.0002 41.25 24.0002H42.75C42.9489 24.0002 43.1397 23.9212 43.2803 23.7806C43.421 23.6399 43.5 23.4492 43.5 23.2502C43.5 23.0513 43.421 22.8606 43.2803 22.7199C43.1397 22.5793 42.9489 22.5002 42.75 22.5002H41.25Z" fill="#0149D6"/>
<path d="M35.25 22.5002H32.25C32.0511 22.5002 31.8603 22.5793 31.7197 22.7199C31.579 22.8606 31.5 23.0513 31.5 23.2502C31.5 23.4492 31.579 23.6399 31.7197 23.7806C31.8603 23.9212 32.0511 24.0002 32.25 24.0002H35.25C35.4489 24.0002 35.6397 23.9212 35.7803 23.7806C35.921 23.6399 36 23.4492 36 23.2502C36 23.0513 35.921 22.8606 35.7803 22.7199C35.6397 22.5793 35.4489 22.5002 35.25 22.5002Z" fill="#0149D6"/>
<path d="M38.25 24.0002C38.6642 24.0002 39 23.6645 39 23.2502C39 22.836 38.6642 22.5002 38.25 22.5002C37.8358 22.5002 37.5 22.836 37.5 23.2502C37.5 23.6645 37.8358 24.0002 38.25 24.0002Z" fill="#0149D6"/>
<path d="M13.5 39.7502C13.6989 39.7502 13.8897 39.6712 14.0303 39.5306C14.171 39.3899 14.25 39.1992 14.25 39.0002C14.25 38.8013 14.171 38.6106 14.0303 38.4699C13.8897 38.3293 13.6989 38.2502 13.5 38.2502H6C5.80109 38.2502 5.61032 38.3293 5.46967 38.4699C5.32902 38.6106 5.25 38.8013 5.25 39.0002C5.25 39.1992 5.32902 39.3899 5.46967 39.5306C5.61032 39.6712 5.80109 39.7502 6 39.7502H13.5Z" fill="#0149D6"/>
<path d="M4.5 42.7502C4.5 42.9492 4.57902 43.1399 4.71967 43.2806C4.86032 43.4212 5.05109 43.5002 5.25 43.5002H13.5C13.6989 43.5002 13.8897 43.4212 14.0303 43.2806C14.171 43.1399 14.25 42.9492 14.25 42.7502C14.25 42.5513 14.171 42.3606 14.0303 42.2199C13.8897 42.0793 13.6989 42.0002 13.5 42.0002H5.25C5.05109 42.0002 4.86032 42.0793 4.71967 42.2199C4.57902 42.3606 4.5 42.5513 4.5 42.7502Z" fill="#0149D6"/>
<path d="M5.25 32.2502H8.25C8.44891 32.2502 8.63968 32.1712 8.78033 32.0306C8.92098 31.8899 9 31.6992 9 31.5002C9 31.3013 8.92098 31.1106 8.78033 30.9699C8.63968 30.8293 8.44891 30.7502 8.25 30.7502H5.25C5.05109 30.7502 4.86032 30.8293 4.71967 30.9699C4.57902 31.1106 4.5 31.3013 4.5 31.5002C4.5 31.6992 4.57902 31.8899 4.71967 32.0306C4.86032 32.1712 5.05109 32.2502 5.25 32.2502Z" fill="#0149D6"/>
<path d="M4.5 28.5002C4.5 28.6992 4.57902 28.8899 4.71967 29.0306C4.86032 29.1712 5.05109 29.2502 5.25 29.2502H8.25C8.44891 29.2502 8.63968 29.1712 8.78033 29.0306C8.92098 28.8899 9 28.6992 9 28.5002C9 28.3013 8.92098 28.1106 8.78033 27.9699C8.63968 27.8293 8.44891 27.7502 8.25 27.7502H5.25C5.05109 27.7502 4.86032 27.8293 4.71967 27.9699C4.57902 28.1106 4.5 28.3013 4.5 28.5002Z" fill="#0149D6"/>
<path d="M5.25 23.2502C5.25 23.6953 5.38196 24.1303 5.62919 24.5003C5.87643 24.8703 6.22783 25.1587 6.63896 25.329C7.0501 25.4993 7.5025 25.5438 7.93895 25.457C8.37541 25.3702 8.77632 25.1559 9.09099 24.8412C9.40566 24.5266 9.61995 24.1257 9.70677 23.6892C9.79358 23.2527 9.74903 22.8003 9.57873 22.3892C9.40843 21.9781 9.12004 21.6267 8.75003 21.3794C8.38002 21.1322 7.94501 21.0002 7.5 21.0002C6.90326 21.0002 6.33097 21.2373 5.90901 21.6593C5.48705 22.0812 5.25 22.6535 5.25 23.2502ZM8.25 23.2502C8.25 23.3986 8.20601 23.5436 8.1236 23.6669C8.04119 23.7903 7.92406 23.8864 7.78701 23.9432C7.64997 23.9999 7.49917 24.0148 7.35368 23.9858C7.2082 23.9569 7.07456 23.8855 6.96967 23.7806C6.86478 23.6757 6.79335 23.542 6.76441 23.3966C6.73547 23.2511 6.75032 23.1003 6.80709 22.9632C6.86386 22.8262 6.95999 22.7091 7.08332 22.6266C7.20666 22.5442 7.35166 22.5002 7.5 22.5002C7.69891 22.5002 7.88968 22.5793 8.03033 22.7199C8.17098 22.8606 8.25 23.0513 8.25 23.2502Z" fill="#0149D6"/>
<path d="M10.5 19.5002C10.6989 19.5002 10.8897 19.4212 11.0303 19.2806C11.171 19.1399 11.25 18.9492 11.25 18.7502C11.25 18.5513 11.171 18.3606 11.0303 18.2199C10.8897 18.0793 10.6989 18.0002 10.5 18.0002H8.25C8.05109 18.0002 7.86032 18.0793 7.71967 18.2199C7.57902 18.3606 7.5 18.5513 7.5 18.7502C7.5 18.9492 7.57902 19.1399 7.71967 19.2806C7.86032 19.4212 8.05109 19.5002 8.25 19.5002H10.5Z" fill="#0149D6"/>
</svg>
