<svg width="316" height="71" viewBox="0 0 316 71" fill="none" xmlns="http://www.w3.org/2000/svg">
<path fill-rule="evenodd" clip-rule="evenodd" d="M19.9964 28.3974L11.5826 28.3974C10.8839 28.3974 10.3174 28.9639 10.3174 29.6626V39.5505C14.7728 37.1637 18.2388 33.201 19.9964 28.3974ZM23.4181 46.0796V54.5775C23.4181 55.2763 23.9845 55.8428 24.6833 55.8428H34.3793C32.0468 51.388 28.1523 47.8924 23.4181 46.0796ZM40.7919 42.7438H49.4925C50.1912 42.7438 50.7577 42.1774 50.7577 41.4786V31.5351C46.1802 33.882 42.6066 37.8754 40.7919 42.7438ZM37.7645 25.3115V16.6677C37.7645 15.9689 37.198 15.4025 36.4992 15.4025H26.36C28.7625 19.9905 32.8269 23.5508 37.7645 25.3115Z" fill="white"/>
<path fill-rule="evenodd" clip-rule="evenodd" d="M54.0319 28.3974L51.0712 29.2763C44.628 31.1891 39.6048 36.2796 37.7624 42.7434L30.5648 35.6247C30.4663 36.2453 31.4604 37.5377 32.5705 38.9807L32.5706 38.9808L32.5706 38.9808C33.5431 40.2449 34.6045 41.6248 35.0985 42.7701C37.0664 47.3332 37.2853 51.796 37.461 55.3791C37.5277 56.7398 37.5882 57.9736 37.7359 59.0379L36.8574 56.0787C34.9466 49.6423 29.8645 44.5966 23.4105 42.7494L30.5087 35.5724C29.8881 35.4739 28.5958 36.468 27.1526 37.5782L27.1526 37.5782C25.8885 38.5507 24.5087 39.6121 23.3633 40.1061C18.8002 42.0741 14.3374 42.2929 10.7544 42.4686L10.7542 42.4686H10.7542C9.39284 42.5354 8.15848 42.5959 7.09388 42.7438L10.0546 41.8648C12.6449 41.0958 15.0057 39.8132 17.0226 38.1343C20.0226 35.637 22.2617 32.2629 23.3633 28.3977L30.561 35.5164C30.6596 34.8958 29.6654 33.6034 28.5552 32.1602C27.5828 30.8961 26.5213 29.5163 26.0274 28.371C24.0594 23.8079 23.8406 19.345 23.6649 15.762C23.5981 14.4011 23.5376 13.1671 23.3899 12.1027L24.2686 15.0625C26.1814 21.5057 31.2718 26.5289 37.7355 28.3712L30.6171 35.5687C31.2377 35.6672 32.53 34.673 33.9732 33.5629L33.9732 33.5629C35.2373 32.5904 36.6171 31.5289 37.7624 31.035C42.3256 29.067 46.7884 28.8482 50.3714 28.6725L50.3715 28.6725L50.3717 28.6725C51.7329 28.6057 52.9671 28.5452 54.0316 28.3974C54.0317 28.3974 54.0318 28.3974 54.0319 28.3974Z" fill="white"/>
<path fill-rule="evenodd" clip-rule="evenodd" d="M58.3096 18.1179L32.8262 3.40504C31.8786 2.85793 30.711 2.85792 29.7634 3.40503L4.25396 18.1329C3.30635 18.68 2.72258 19.6911 2.72258 20.7853L2.72256 50.2689C2.72256 51.3631 3.30631 52.3742 4.25394 52.9213L29.7388 67.635C30.6873 68.1826 31.856 68.1821 32.804 67.6336L58.2876 52.8895C59.233 52.3424 59.8156 51.3333 59.8165 50.241L59.8409 20.7728C59.8419 19.6777 59.258 18.6654 58.3096 18.1179ZM29.534 70.5259L1.7947 54.6071C0.684583 53.97 0 52.7879 0 51.5079V19.5341C0 18.2557 0.682983 17.0747 1.79103 16.4371L29.5277 0.476169C30.634 -0.160478 31.996 -0.158601 33.1006 0.481095L60.7072 16.4687C61.8105 17.1076 62.4897 18.2859 62.4897 19.5608V51.5151C62.4897 52.7926 61.8077 53.9729 60.701 54.6108L33.097 70.5225C31.9947 71.1579 30.6376 71.1592 29.534 70.5259Z" fill="white"/>
<path d="M96.4304 35.4255L88.9884 27.6711L93.7822 24.9279L103.9 35.4255H96.4304ZM85.7291 24.276H90.1427L95.9008 18.2192H103.302L92.5328 29.3551H85.7291V24.276ZM82.7686 35.4255V18.2192H88.6489V35.4255H82.7686Z" fill="white"/>
<path d="M103.519 26.897V26.5711C103.519 23.6106 104.624 21.4196 106.833 19.9982C109.042 18.5768 111.79 17.8661 115.076 17.8661C118.363 17.8661 121.12 18.5768 123.347 19.9982C125.574 21.4196 126.687 23.6106 126.687 26.5711V26.897C126.687 29.9481 125.574 32.1934 123.347 33.6329C121.12 35.0634 118.363 35.7786 115.076 35.7786C111.79 35.7786 109.042 35.0634 106.833 33.6329C104.624 32.1934 103.519 29.9481 103.519 26.897ZM109.685 27.6032C109.685 28.925 110.178 29.8802 111.165 30.4687C112.161 31.0572 113.474 31.3605 115.103 31.3786C116.715 31.3967 118.023 31.1024 119.028 30.4958C120.033 29.8892 120.536 28.9296 120.536 27.6168V25.9464C120.536 24.697 120.033 23.7962 119.028 23.2439C118.032 22.6826 116.724 22.3929 115.103 22.3748C113.456 22.3567 112.138 22.6373 111.152 23.2168C110.174 23.7871 109.685 24.6925 109.685 25.9328V27.6032Z" fill="white"/>
<path d="M129.023 35.4255V18.2192H134.904V23.8822H142.305V18.2192H148.185V35.4255H142.305V29.1921H134.904V35.4255H129.023Z" fill="white"/>
<path d="M150.535 27.0057V26.6118C150.535 23.597 151.603 21.3879 153.74 19.9846C155.885 18.5723 158.651 17.8661 162.037 17.8661C165.414 17.8661 167.927 18.3912 169.574 19.4414C171.231 20.4916 172.268 22.248 172.684 24.7106L172.752 25.6476H166.98L166.913 24.5884C166.659 23.8912 166.175 23.3435 165.459 22.9451C164.744 22.5377 163.653 22.334 162.187 22.334C160.466 22.334 159.145 22.66 158.221 23.3118C157.298 23.9637 156.836 24.8464 156.836 25.96V27.644C156.836 29.0201 157.311 29.9888 158.262 30.5502C159.212 31.1115 160.521 31.3921 162.187 31.3921C163.78 31.3921 164.948 31.1884 165.69 30.781C166.433 30.3646 166.849 29.7715 166.94 29.002L166.994 28.0785H172.752L172.711 29.1378C172.548 31.4374 171.589 33.1214 169.832 34.1897C168.076 35.249 165.487 35.7786 162.064 35.7786C158.552 35.7786 155.749 35.0588 153.658 33.6193C151.576 32.1707 150.535 29.9662 150.535 27.0057Z" fill="white"/>
<path d="M173.648 26.897V26.5711C173.648 23.6106 174.753 21.4196 176.962 19.9982C179.171 18.5768 181.919 17.8661 185.205 17.8661C188.492 17.8661 191.249 18.5768 193.476 19.9982C195.703 21.4196 196.816 23.6106 196.816 26.5711V26.897C196.816 29.9481 195.703 32.1934 193.476 33.6329C191.249 35.0634 188.492 35.7786 185.205 35.7786C181.919 35.7786 179.171 35.0634 176.962 33.6329C174.753 32.1934 173.648 29.9481 173.648 26.897ZM179.814 27.6032C179.814 28.925 180.307 29.8802 181.294 30.4687C182.29 31.0572 183.603 31.3605 185.232 31.3786C186.844 31.3967 188.152 31.1024 189.157 30.4958C190.162 29.8892 190.665 28.9296 190.665 27.6168V25.9464C190.665 24.697 190.162 23.7962 189.157 23.2439C188.161 22.6826 186.853 22.3929 185.232 22.3748C183.585 22.3567 182.267 22.6373 181.281 23.2168C180.303 23.7871 179.814 24.6925 179.814 25.9328V27.6032Z" fill="white"/>
<path d="M199.152 35.4255V18.2192H211.144C213.471 18.2192 215.213 18.8077 216.372 19.9846C217.54 21.1525 218.124 22.7867 218.124 24.8871C218.124 26.9332 217.554 28.5765 216.413 29.8168C215.281 31.0481 213.489 31.6637 211.035 31.6637H205.033V35.4255H199.152ZM205.033 27.3044H209.609C210.551 27.3044 211.225 27.1053 211.633 26.7069C212.049 26.2995 212.257 25.7337 212.257 25.0094C212.257 24.3032 212.049 23.7736 211.633 23.4205C211.216 23.0583 210.542 22.8727 209.609 22.8637H205.033V27.3044Z" fill="white"/>
<path d="M236.172 39.3095V35.4255H220.283V18.2192H226.164V30.3872H233.402V18.2192H239.282V30.3872H241.727V39.3095H236.172Z" fill="white"/>
<path d="M263.129 35.4255H257.263V27.8205C257.263 27.4584 257.267 27.1777 257.276 26.9785C257.294 26.7793 257.303 26.5756 257.303 26.3674H257.236C257.172 26.5756 257.1 26.7884 257.018 27.0057C256.937 27.223 256.778 27.4855 256.543 27.7933L250.282 35.4255H243.696V18.2192H249.549L249.535 25.5662C249.535 25.8921 249.535 26.1637 249.535 26.381C249.535 26.5892 249.531 26.8201 249.522 27.0736H249.59C249.671 26.8291 249.748 26.6164 249.821 26.4353C249.893 26.2542 250.042 25.9962 250.269 25.6612L256.529 18.2192H263.129V35.4255Z" fill="white"/>
<path d="M268.276 29.9526C268.53 30.025 268.792 30.0794 269.064 30.1156C269.345 30.1518 269.725 30.1699 270.205 30.1699C270.857 30.1699 271.377 30.0567 271.767 29.8304C272.156 29.595 272.559 29.1333 272.975 28.4452L272.636 29.8983L264.487 18.2192H270.87L275.352 24.6155C275.479 24.7513 275.569 24.8826 275.623 25.0094C275.678 25.1361 275.746 25.2991 275.827 25.4983H275.922C276.004 25.29 276.076 25.1225 276.139 24.9958C276.203 24.869 276.298 24.7378 276.425 24.602L280.675 18.2192H286.773L278.611 30.36C277.461 31.9444 276.357 33.2481 275.297 34.2712C274.247 35.2852 272.672 35.7922 270.571 35.7922C270.01 35.7922 269.539 35.756 269.159 35.6835C268.779 35.6111 268.485 35.5296 268.276 35.4391V29.9526Z" fill="white"/>
<path d="M288.009 35.4255V18.2192H295.573L301.154 26.9649C301.254 27.1641 301.331 27.3226 301.385 27.4402C301.449 27.5579 301.503 27.6938 301.548 27.8477H301.589C301.643 27.6938 301.698 27.5625 301.752 27.4538C301.806 27.3361 301.888 27.1732 301.996 26.9649L307.537 18.2192H315.169V35.4255H309.398L309.411 27.1822C309.411 27.0012 309.42 26.8337 309.439 26.6797C309.457 26.5168 309.47 26.3448 309.479 26.1637H309.371C309.298 26.3538 309.23 26.5258 309.167 26.6797C309.113 26.8246 309.04 26.9876 308.95 27.1686L303.884 35.4255H299.511L294.215 27.0057C294.106 26.8156 294.025 26.6435 293.97 26.4896C293.916 26.3357 293.853 26.1682 293.78 25.9872H293.672C293.672 26.1773 293.685 26.3538 293.712 26.5168C293.74 26.6707 293.753 26.8427 293.753 27.0328L293.767 35.4255H288.009Z" fill="white"/>
<g opacity="0.5">
<path d="M83.5244 54.149V48.0056H85.1439L87.6459 52.0495C87.6943 52.14 87.7299 52.2111 87.7525 52.2628C87.7784 52.3113 87.8026 52.3679 87.8253 52.4325H87.835C87.8576 52.3679 87.8802 52.3113 87.9028 52.2628C87.9255 52.2143 87.9626 52.1432 88.0144 52.0495L90.4921 48.0056H92.1406V54.149H90.8412L90.8509 50.3912C90.8509 50.3233 90.8557 50.2587 90.8654 50.1973C90.8751 50.1326 90.8816 50.0663 90.8848 49.9985H90.8412C90.8186 50.0631 90.7927 50.1294 90.7636 50.1973C90.7377 50.2619 90.7103 50.3249 90.6812 50.3864L88.4023 54.149H87.3501L84.9402 50.2797C84.8982 50.2053 84.8643 50.1342 84.8384 50.0663C84.8158 49.9952 84.7916 49.9306 84.7657 49.8724H84.7221C84.7253 49.9306 84.7318 49.9952 84.7415 50.0663C84.7511 50.1374 84.756 50.2102 84.756 50.2845L84.7705 54.149H83.5244Z" fill="white"/>
<path d="M96.13 54.149V48.0056H101.275V49.2275H97.3955V50.4397H100.824V51.584H97.3955V52.9513H101.338V54.149H96.13Z" fill="white"/>
<path d="M110.622 55.5163V54.149H105.38V55.5163H104.129V52.9174H111.873V55.5163H110.622ZM105.579 48.0056H110.927V54.149H109.618V49.2372H106.743L106.602 50.9682C106.528 51.7569 106.447 52.3081 106.36 52.6216C106.272 52.9352 106.137 53.231 105.952 53.5089H104.614C104.886 53.1534 105.067 52.8204 105.157 52.5101C105.251 52.1966 105.322 51.6551 105.371 50.8858L105.579 48.0056Z" fill="white"/>
<path d="M121.433 54.149H120.129V50.4203C120.129 50.3233 120.131 50.2296 120.134 50.1391C120.137 50.0486 120.139 49.9661 120.139 49.8918H120.119C120.09 49.9629 120.058 50.0421 120.022 50.1294C119.987 50.2134 119.925 50.3072 119.838 50.4106L116.638 54.149H115.164V48.0056H116.468V51.7004C116.468 51.8006 116.467 51.8911 116.463 51.9719C116.463 52.0495 116.463 52.1319 116.463 52.2192H116.483C116.512 52.1448 116.543 52.0689 116.575 51.9913C116.61 51.9137 116.669 51.8232 116.749 51.7198L119.964 48.0056H121.433V54.149Z" fill="white"/>
<path d="M131.265 55.5163V54.149H125.423V48.0056H126.732V52.9271H130.267V48.0056H131.576V52.9271H132.516V55.5163H131.265Z" fill="white"/>
<path d="M142.077 54.149H140.773V50.4203C140.773 50.3233 140.774 50.2296 140.778 50.1391C140.781 50.0486 140.782 49.9661 140.782 49.8918H140.763C140.734 49.9629 140.702 50.0421 140.666 50.1294C140.63 50.2134 140.569 50.3072 140.482 50.4106L137.282 54.149H135.808V48.0056H137.112V51.7004C137.112 51.8006 137.11 51.8911 137.107 51.9719C137.107 52.0495 137.107 52.1319 137.107 52.2192H137.126C137.155 52.1448 137.186 52.0689 137.219 51.9913C137.254 51.9137 137.312 51.8232 137.393 51.7198L140.608 48.0056H142.077V54.149Z" fill="white"/>
<path d="M146.066 54.149V48.0056H147.375V50.3427H150.964V48.0056H152.273V54.149H150.964V51.6082H147.375V54.149H146.066Z" fill="white"/>
<path d="M155.758 51.1525V51.0118C155.758 49.9387 156.115 49.1483 156.829 48.6408C157.544 48.1333 158.459 47.8795 159.574 47.8795C160.647 47.8795 161.447 48.0557 161.974 48.4081C162.504 48.7604 162.855 49.3503 163.026 50.1779L163.046 50.3912H161.736L161.717 50.173C161.601 49.8239 161.382 49.5475 161.062 49.3439C160.746 49.1402 160.257 49.0384 159.598 49.0384C158.806 49.0384 158.197 49.2 157.77 49.5233C157.347 49.8433 157.135 50.3088 157.135 50.9197V51.2397C157.135 51.9444 157.356 52.4358 157.799 52.7138C158.242 52.9885 158.846 53.1259 159.613 53.1259C160.314 53.1259 160.83 53.0241 161.159 52.8204C161.492 52.6168 161.681 52.3372 161.727 51.9816L161.736 51.7779H163.046L163.036 52.0107C162.974 52.7929 162.656 53.3667 162.081 53.732C161.508 54.094 160.674 54.2751 159.579 54.2751C158.444 54.2751 157.523 54.0165 156.815 53.4993C156.11 52.9821 155.758 52.1998 155.758 51.1525Z" fill="white"/>
<path d="M171.011 54.149L167.864 51.1961L168.921 50.6239L172.737 54.149H171.011ZM167.025 50.4397H168.199L170.812 48.0056H172.562L168.64 51.6664H167.025V50.4397ZM166.351 54.149V48.0056H167.66V54.149H166.351Z" fill="white"/>
<path d="M174.506 54.149L177.541 48.0105H178.952L182.036 54.149H180.571L178.443 49.6154C178.404 49.5346 178.37 49.4667 178.341 49.4118C178.315 49.3568 178.286 49.3002 178.254 49.242H178.244C178.212 49.3002 178.181 49.3584 178.152 49.4166C178.126 49.4716 178.094 49.5411 178.055 49.6251L175.926 54.149H174.506ZM175.931 52.8398L176.358 51.7343H180.14L180.571 52.8398H175.931Z" fill="white"/>
<path d="M190.336 54.149H189.026V52.3016H186.811L186.423 52.2289C185.805 52.1481 185.343 51.9202 185.036 51.5452C184.732 51.1702 184.58 50.6951 184.58 50.1197C184.58 49.4764 184.782 48.9641 185.186 48.5826C185.59 48.1979 186.151 48.0056 186.869 48.0056H190.336V54.149ZM189.026 51.1815V49.1645H187.058C186.67 49.1645 186.379 49.255 186.185 49.436C185.994 49.617 185.899 49.8611 185.899 50.1682C185.899 50.472 185.994 50.7177 186.185 50.9052C186.376 51.0894 186.667 51.1815 187.058 51.1815H189.026ZM185.7 54.149H184.27L186.19 51.6664H187.601L185.7 54.149Z" fill="white"/>
<path d="M198.693 49.2323V48.0056H205.006V49.2323H202.509V54.149H201.19V49.2323H198.693Z" fill="white"/>
<path d="M208.297 54.149V48.0056H213.441V49.2275H209.562V50.4397H212.99V51.584H209.562V52.9513H213.504V54.149H208.297Z" fill="white"/>
<path d="M215.981 54.149L218.817 50.7015L219.04 50.6433L221.121 48.0056H222.541L219.889 51.2785L219.671 51.3416L217.474 54.149H215.981ZM216.131 48.0056H217.678L219.787 50.5852L219.797 50.653L222.638 54.149H221.053L218.842 51.3997L218.832 51.3319L216.131 48.0056Z" fill="white"/>
<path d="M225.663 54.149V48.0056H226.972V50.3427H230.56V48.0056H231.869V54.149H230.56V51.6082H226.972V54.149H225.663Z" fill="white"/>
<path d="M242.123 54.149H240.819V50.4203C240.819 50.3233 240.82 50.2296 240.824 50.1391C240.827 50.0486 240.828 49.9661 240.828 49.8918H240.809C240.78 49.9629 240.748 50.0421 240.712 50.1294C240.676 50.2134 240.615 50.3072 240.528 50.4106L237.328 54.149H235.854V48.0056H237.158V51.7004C237.158 51.8006 237.156 51.8911 237.153 51.9719C237.153 52.0495 237.153 52.1319 237.153 52.2192H237.172C237.202 52.1448 237.232 52.0689 237.265 51.9913C237.3 51.9137 237.358 51.8232 237.439 51.7198L240.654 48.0056H242.123V54.149Z" fill="white"/>
<path d="M250.772 54.149L247.625 51.1961L248.682 50.6239L252.498 54.149H250.772ZM246.786 50.4397H247.96L250.573 48.0056H252.324L248.401 51.6664H246.786V50.4397ZM246.112 54.149V48.0056H247.422V54.149H246.112Z" fill="white"/>
<path d="M254.267 54.149L257.302 48.0105H258.713L261.797 54.149H260.333L258.204 49.6154C258.165 49.5346 258.131 49.4667 258.102 49.4118C258.076 49.3568 258.047 49.3002 258.015 49.242H258.005C257.973 49.3002 257.942 49.3584 257.913 49.4166C257.887 49.4716 257.855 49.5411 257.816 49.6251L255.688 54.149H254.267ZM255.692 52.8398L256.119 51.7343H259.901L260.333 52.8398H255.692Z" fill="white"/>
</g>
</svg>
