<svg width="48" height="50" viewBox="0 0 48 50" fill="none" xmlns="http://www.w3.org/2000/svg">
<path d="M46.9358 6.31565C46.2499 5.63031 45.343 5.26752 44.3861 5.29476C42.7378 5.34116 41.3583 6.60624 41.0387 8.24085C39.4014 8.54801 38.1562 10.0223 38.1562 11.7906V20.9412C38.1562 21.34 38.471 21.6631 38.8594 21.6631C39.2477 21.6631 39.5625 21.34 39.5625 20.9412V11.7906C39.5625 10.8495 40.1504 10.047 40.9688 9.74899V23.8295C39.5931 22.7775 37.5915 22.9136 36.3321 24.2067L26.5566 34.2435C25.3614 35.4707 24.7031 37.1023 24.7031 38.8377V48.5602C24.7031 48.9589 25.0179 49.2821 25.4062 49.2821H41.2031C41.4116 49.2821 41.6093 49.1871 41.7429 49.0228C41.8766 48.8584 41.9322 48.6417 41.8949 48.4311L41.0051 43.4062L47.3983 32.5665C47.4047 32.5558 47.4109 32.5446 47.4167 32.5334C47.7983 31.802 48 30.9768 48 30.1472V8.9029C48 7.92004 47.6221 7.00118 46.9358 6.31565ZM46.5938 30.1471C46.5938 30.7337 46.4526 31.3171 46.1854 31.8357L39.6642 42.8921C39.5752 43.043 39.5431 43.2218 39.5738 43.3953L40.3607 47.8382H26.1094V38.8377C26.1094 37.4879 26.6213 36.2189 27.551 35.2645L37.3265 25.2276C38.1502 24.3818 39.4858 24.3818 40.3095 25.2276C41.1332 26.0734 41.1333 27.4447 40.3095 28.2904L30.534 38.3272C30.2595 38.6092 30.2594 39.0662 30.534 39.3482C30.8086 39.63 31.2537 39.6301 31.5284 39.3482L41.3453 29.2689C42.0138 28.5825 42.3786 27.6728 42.3749 26.7036V8.96296C42.3749 7.76795 43.2944 6.76988 44.4245 6.73802C45.0002 6.72108 45.5434 6.93939 45.955 7.35049C46.367 7.76189 46.5938 8.31314 46.5938 8.9029V30.1471Z" fill="#0149D6"/>
<path d="M21.4435 34.2435L11.6679 24.2066C10.4084 22.9135 8.40694 22.7775 7.03125 23.8295V9.74895C7.84959 10.047 8.4375 10.8494 8.4375 11.7905V20.9412C8.4375 21.3399 8.75222 21.6631 9.14062 21.6631C9.52903 21.6631 9.84375 21.3399 9.84375 20.9412V11.7905C9.84375 10.0222 8.59856 8.54797 6.96141 8.24072C6.64172 6.60611 5.26219 5.34103 3.61397 5.29463C2.65706 5.26749 1.75022 5.63018 1.06425 6.31552C0.377906 7.00115 0 7.92 0 8.90287V30.147C0 30.9767 0.20175 31.8018 0.583313 32.5333C0.589219 32.5445 0.595313 32.5555 0.601688 32.5664L6.99487 43.406L6.10509 48.4309C6.06778 48.6416 6.12337 48.8583 6.25706 49.0226C6.39066 49.1869 6.58838 49.2819 6.79688 49.2819H22.5938C22.9822 49.2819 23.2969 48.9587 23.2969 48.56V38.8375C23.2969 37.1023 22.6387 35.4706 21.4435 34.2435ZM21.8906 47.8382H7.63941L8.42625 43.3952C8.457 43.2218 8.42484 43.0429 8.33587 42.8921L1.81463 31.8356C1.54744 31.3171 1.40625 30.7337 1.40625 30.147V8.90287C1.40625 8.31311 1.63303 7.76185 2.04478 7.35046C2.45644 6.93935 2.99972 6.72104 3.57534 6.73798C4.7055 6.76984 5.625 7.76792 5.625 8.96293V26.7036C5.62134 27.6728 5.98612 28.5826 6.65456 29.2689L16.4715 39.3482C16.7463 39.6301 17.1914 39.6299 17.4659 39.3482C17.7405 39.0662 17.7405 38.6091 17.4659 38.3272L7.6905 28.2904C6.86672 27.4446 6.86672 26.0734 7.6905 25.2276C8.51428 24.3818 9.84984 24.3818 10.6735 25.2276L20.449 35.2644C21.3787 36.2188 21.8906 37.4879 21.8906 38.8376V47.8382Z" fill="#0149D6"/>
<path d="M24 10.9242C22.8368 10.9242 21.8906 11.8958 21.8906 13.0899C21.8906 14.2841 22.8368 15.2557 24 15.2557C25.1631 15.2557 26.1094 14.2841 26.1094 13.0899C26.1094 11.8958 25.1631 10.9242 24 10.9242ZM24 13.8119C23.6122 13.8119 23.2969 13.4881 23.2969 13.0899C23.2969 12.6918 23.6122 12.368 24 12.368C24.3877 12.368 24.7031 12.6918 24.7031 13.0899C24.7031 13.4881 24.3877 13.8119 24 13.8119Z" fill="#0149D6"/>
<path d="M26.6229 25.5182L27.2971 23.3783C27.796 23.2097 28.2835 23.0022 28.7533 22.7584L30.7045 23.7825C30.939 23.9054 31.2212 23.8836 31.4351 23.7256C31.9963 23.311 32.5281 22.847 33.0155 22.3466C33.5032 21.8458 33.9549 21.2999 34.3585 20.724C34.5125 20.5044 34.5338 20.2148 34.4138 19.9738L33.4165 17.9705C33.6539 17.4882 33.856 16.9877 34.0203 16.4754L36.1044 15.7831C36.3552 15.6999 36.5395 15.4797 36.582 15.2124C36.6934 14.5118 36.7497 13.7978 36.7497 13.0901C36.7497 12.3825 36.6933 11.6684 36.582 10.9677C36.5396 10.7007 36.3552 10.4803 36.1044 10.397L34.0203 9.70471C33.856 9.19234 33.6539 8.69191 33.4164 8.20957L34.4138 6.20621C34.5337 5.96528 34.5124 5.67565 34.3584 5.45609C33.9547 4.8799 33.5028 4.33394 33.0155 3.83351C32.5278 3.33279 31.9959 2.86884 31.435 2.45446C31.221 2.2966 30.9391 2.27446 30.7043 2.39776L28.7532 3.42173C28.2835 3.17801 27.796 2.97048 27.2971 2.80184L26.6228 0.661988C26.5417 0.404505 26.3273 0.215267 26.067 0.171663C24.7023 -0.0568474 23.2979 -0.0569436 21.9327 0.171663C21.6726 0.215171 21.4581 0.404505 21.3769 0.661988L20.7027 2.80165C20.2037 2.97029 19.7162 3.17782 19.2465 3.42163L17.2953 2.39757C17.0604 2.27427 16.7784 2.29631 16.5646 2.45436C16.0033 2.86922 15.4716 3.33308 14.9843 3.83332C14.4969 4.33375 14.045 4.87971 13.6412 5.4558C13.4873 5.67545 13.4659 5.96509 13.5859 6.20611L14.5833 8.20948C14.3458 8.69172 14.1437 9.19224 13.9795 9.70461L11.8953 10.3969C11.6445 10.4801 11.4602 10.7004 11.4177 10.9676C11.3064 11.6682 11.25 12.3822 11.25 13.0899C11.25 13.7975 11.3064 14.5116 11.4177 15.2123C11.4602 15.4794 11.6445 15.6997 11.8953 15.783L13.9794 16.4752C14.1436 16.9876 14.3457 17.488 14.5832 17.9704L13.5859 19.9737C13.466 20.2147 13.4873 20.5043 13.6412 20.7238C14.0449 21.2999 14.4967 21.8459 14.9842 22.3464C15.4716 22.8467 16.0033 23.3107 16.5645 23.7254C16.7785 23.8834 17.0605 23.9055 17.2952 23.7822L19.2464 22.7582C19.7162 23.002 20.2036 23.2094 20.7026 23.378L21.3769 25.5179C21.458 25.7754 21.6726 25.9647 21.9327 26.0083C22.6152 26.1226 23.3107 26.1805 23.9998 26.1805C24.689 26.1805 25.3845 26.1225 26.067 26.0083C26.3273 25.965 26.5417 25.7757 26.6229 25.5182ZM22.5801 24.6458L21.9283 22.5772C21.8564 22.3492 21.6789 22.1726 21.4547 22.106C20.8089 21.9142 20.182 21.6474 19.5914 21.3129C19.3868 21.1969 19.1396 21.1929 18.9317 21.3022L17.0454 22.2921C16.6703 21.9927 16.3128 21.6688 15.9787 21.3257C15.6444 20.9827 15.3291 20.6155 15.0374 20.2305L16.0016 18.2937C16.1079 18.0802 16.104 17.8265 15.9912 17.6164C15.6653 17.01 15.4055 16.3665 15.2186 15.7033C15.1537 15.473 14.9818 15.2909 14.7596 15.2171L12.745 14.548C12.6861 14.0639 12.6563 13.5753 12.6563 13.0901C12.6563 12.6049 12.6861 12.1164 12.745 11.6323L14.7597 10.9632C14.9819 10.8893 15.1538 10.7072 15.2187 10.4769C15.4056 9.81367 15.6655 9.17001 15.9913 8.5637C16.1042 8.35367 16.108 8.09994 16.0017 7.88635L15.0374 5.94959C15.329 5.56457 15.6444 5.19755 15.9787 4.8544C16.3127 4.51144 16.6703 4.18744 17.0454 3.88799L18.9318 4.87788C19.1397 4.98713 19.3869 4.98309 19.5915 4.8672C20.182 4.53271 20.8089 4.26589 21.4548 4.07396C21.679 4.00744 21.8565 3.83081 21.9283 3.60269L22.5801 1.53426C23.5231 1.41317 24.4769 1.41317 25.4197 1.53426L26.0715 3.60269C26.1434 3.83072 26.3208 4.00735 26.5451 4.07396C27.191 4.26579 27.8179 4.53281 28.4084 4.8672C28.6129 4.98309 28.86 4.98704 29.0681 4.87788L30.9544 3.88799C31.3293 4.18715 31.6868 4.51115 32.0212 4.8544C32.3553 5.19735 32.6707 5.56457 32.9623 5.94959L31.9983 7.88635C31.8919 8.09984 31.8958 8.35357 32.0087 8.5636C32.3345 9.16982 32.5943 9.81348 32.7813 10.4768C32.8461 10.707 33.0181 10.8891 33.2403 10.963L35.2549 11.6321C35.3138 12.1162 35.3437 12.6048 35.3437 13.09C35.3437 13.5752 35.3138 14.0637 35.2549 14.5478L33.2403 15.217C33.0182 15.2908 32.8462 15.4729 32.7813 15.7033C32.5944 16.3664 32.3344 17.01 32.0087 17.6163C31.8958 17.8264 31.8919 18.0801 31.9983 18.2937L32.9624 20.2303C32.6709 20.6152 32.3555 20.9824 32.0212 21.3256C31.6871 21.6687 31.3295 21.9926 30.9545 22.2919L29.068 21.302C28.8601 21.1929 28.6129 21.1967 28.4084 21.3127C27.8178 21.6473 27.1909 21.9141 26.5451 22.1058C26.3208 22.1724 26.1434 22.349 26.0715 22.577L25.4198 24.6456C24.4768 24.7668 23.5231 24.7668 22.5801 24.6458Z" fill="#0149D6"/>
<path d="M21.6844 9.69173C21.8192 9.83015 21.9992 9.90311 22.1818 9.90311C22.2843 9.90311 22.3878 9.8801 22.4845 9.83275C23.4335 9.36745 24.5665 9.36745 25.5151 9.83265C25.7839 9.96442 26.1045 9.90811 26.3154 9.69164L28.3749 7.577C28.524 7.42386 28.5984 7.20998 28.5773 6.99436C28.5561 6.77885 28.4419 6.58432 28.266 6.46477C25.6755 4.70262 22.3268 4.703 19.7348 6.46583C19.5589 6.58547 19.4445 6.78 19.4234 6.99552C19.4024 7.21104 19.4766 7.42501 19.6259 7.57825L21.6844 9.69173ZM26.729 7.22509L25.6534 8.32962C24.5816 7.93526 23.4186 7.93545 22.3466 8.32962L21.2718 7.22624C22.9977 6.37544 25.0039 6.37487 26.729 7.22509Z" fill="#0149D6"/>
<path d="M20.8278 14.6457C20.3747 13.6718 20.3747 12.5085 20.8278 11.5341C20.9562 11.258 20.9011 10.9288 20.6905 10.7125L18.632 8.59904C18.4828 8.44589 18.2741 8.36966 18.0645 8.39132C17.8545 8.41298 17.6652 8.53021 17.5486 8.71089C15.8318 11.3721 15.8314 14.8103 17.5477 17.4701C17.6642 17.6507 17.8536 17.768 18.0635 17.7897C18.087 17.792 18.1105 17.7933 18.1338 17.7933C18.3194 17.7933 18.4985 17.7179 18.631 17.5819L20.6905 15.4673C20.9012 15.251 20.9563 14.9218 20.8278 14.6457ZM19.3639 14.7876L18.2882 15.892C17.4601 14.1207 17.4604 12.0611 18.2893 10.289L19.3639 11.3925C18.9801 12.4931 18.9801 13.6872 19.3639 14.7876Z" fill="#0149D6"/>
<path d="M27.1722 11.5342C27.6253 12.5082 27.6253 13.6715 27.1721 14.6459C27.0438 14.9219 27.0988 15.251 27.3095 15.4674L29.3679 17.5809C29.5005 17.7169 29.6796 17.7923 29.8651 17.7923C29.8885 17.7923 29.912 17.791 29.9355 17.7886C30.1454 17.7669 30.3349 17.6497 30.4514 17.469C32.1683 14.8078 32.1687 11.3696 30.4524 8.70978C30.336 8.5292 30.1465 8.41187 29.9366 8.39021C29.7263 8.36951 29.5183 8.44488 29.3692 8.59802L27.3096 10.7126C27.0988 10.9289 27.0438 11.2581 27.1722 11.5342ZM28.6361 11.3923L29.7119 10.2879C30.54 12.0592 30.5396 14.1189 29.7108 15.8909L28.6361 14.7875C29.0199 13.687 29.0199 12.4928 28.6361 11.3923Z" fill="#0149D6"/>
<path d="M28.5763 19.1844C28.5974 18.9689 28.5231 18.7549 28.3739 18.6017L26.3154 16.4882C26.1046 16.2718 25.7838 16.2154 25.5153 16.3472C24.5663 16.8125 23.4333 16.8124 22.4845 16.3473C22.2157 16.2153 21.895 16.2718 21.6844 16.4883L19.6249 18.603C19.4756 18.7561 19.4014 18.97 19.4225 19.1856C19.4436 19.4012 19.5578 19.5956 19.7337 19.7152C21.0288 20.5961 22.513 21.0367 23.9978 21.0366C25.483 21.0365 26.9688 20.5957 28.265 19.7142C28.4409 19.5945 28.5552 19.4001 28.5763 19.1844ZM21.2708 18.955L22.3465 17.8504C23.4182 18.2445 24.5814 18.2445 25.6533 17.8504L26.728 18.9538C25.0021 19.8047 22.9959 19.8051 21.2708 18.955Z" fill="#0149D6"/>
</svg>
