<svg width="48" height="48" viewBox="0 0 48 48" fill="none" xmlns="http://www.w3.org/2000/svg">
<g clip-path="url(#clip0_828_4283)">
<path d="M15.0209 12.6808H13.9092C13.5209 12.6808 13.2061 12.9956 13.2061 13.3839C13.2061 13.7722 13.5209 14.087 13.9092 14.087H15.0209C15.4092 14.087 15.724 13.7722 15.724 13.3839C15.724 12.9956 15.4092 12.6808 15.0209 12.6808Z" fill="#0149D6"/>
<path d="M33.6816 14.087H34.7933C35.1816 14.087 35.4965 13.7722 35.4965 13.3839C35.4965 12.9956 35.1817 12.6808 34.7933 12.6808H33.6816C33.2933 12.6808 32.9785 12.9956 32.9785 13.3839C32.9785 13.7722 33.2933 14.087 33.6816 14.087Z" fill="#0149D6"/>
<path d="M47.9982 21.063C47.9432 19.547 46.6411 18.3136 45.0954 18.3136H36.7361C35.9746 18.3136 35.2583 18.6105 34.7191 19.1496C34.1801 19.6887 33.8833 20.4049 33.8833 21.1664C33.8833 21.8723 34.1436 22.5498 34.6157 23.0735C35.2311 23.7581 35.2884 24.917 34.7424 25.6084C34.731 25.6221 34.7197 25.636 34.7084 25.6505C34.13 26.3623 33.2444 26.6939 32.3562 26.5629V25.6273C32.3562 24.2015 31.4063 22.9939 30.1063 22.6027V21.2319C30.1063 18.9936 31.9268 17.1727 34.1645 17.1727C35.1248 17.1727 35.9928 16.7725 36.6124 16.1309C36.6374 16.1267 36.665 16.1228 36.6961 16.1188C37.5173 16.0155 38.336 16.3607 38.835 17.0194C38.9689 17.1961 39.1769 17.298 39.3953 17.298C39.4239 17.298 39.4527 17.2962 39.4816 17.2926C39.7304 17.2619 39.944 17.101 40.0423 16.8703C40.2976 16.2705 40.3895 15.6085 40.3077 14.9553C40.0838 13.1813 38.6281 11.8252 36.8693 11.7037C36.2465 10.8901 35.266 10.364 34.1644 10.364H26.9226C25.8961 10.364 25.0609 11.1992 25.0609 12.2258C25.0609 12.723 25.2545 13.1906 25.6062 13.5423C25.7622 13.6983 25.9411 13.8232 26.1357 13.9138C25.2042 14.9336 24.4831 16.1116 24.0006 17.385C23.5181 16.1116 22.797 14.9336 21.8656 13.9138C22.06 13.8232 22.2391 13.6983 22.3951 13.5423C22.7467 13.1907 22.9403 12.7231 22.9403 12.2258C22.9403 11.1992 22.1051 10.364 21.0785 10.364H13.8367C12.7355 10.364 11.7553 10.8898 11.1325 11.703C9.36915 11.8198 7.90787 13.1779 7.68343 14.956C7.60168 15.6085 7.69346 16.2705 7.94884 16.8703C8.04709 17.101 8.26065 17.262 8.50955 17.2926C8.53843 17.2962 8.56721 17.298 8.5959 17.298C8.81424 17.298 9.02237 17.1961 9.15624 17.0194C9.65527 16.3607 10.4747 16.0158 11.2935 16.1185C11.331 16.1233 11.3626 16.128 11.391 16.1329C12.0104 16.7733 12.8776 17.1726 13.8368 17.1726C16.0745 17.1726 17.8951 18.9935 17.8951 21.2318V22.6024C16.5951 22.9933 15.6451 24.2007 15.6451 25.6262V26.5628C14.7558 26.6943 13.8692 26.3624 13.2913 25.65C13.2802 25.6359 13.2692 25.6225 13.2579 25.6088C12.7113 24.9175 12.7686 23.7582 13.3836 23.0741C13.8563 22.5497 14.1166 21.8721 14.1166 21.1662C14.1166 20.4046 13.8197 19.6884 13.2807 19.1494C12.7417 18.6104 12.0255 18.3135 11.2639 18.3135H8.27724C7.88893 18.3135 7.57412 18.6284 7.57412 19.0167C7.57412 19.405 7.88893 19.7198 8.27724 19.7198H11.264C11.65 19.7198 12.013 19.8704 12.2865 20.1438C12.5598 20.4173 12.7105 20.7804 12.7105 21.1663C12.7105 21.5238 12.5786 21.867 12.3386 22.1333C11.2536 23.34 11.1764 25.254 12.1626 26.4906C12.1658 26.4945 12.1696 26.4992 12.1728 26.5032L12.1831 26.5156C12.1865 26.52 12.19 26.5244 12.1934 26.5287C12.9629 27.4816 14.0841 28.0008 15.2571 28.0008C15.3859 28.0008 15.5154 27.9938 15.6451 27.9811V32.068C15.3224 32.056 14.9828 32.0134 14.6472 32.0098C13.4669 32.0098 12.3515 32.5802 11.6636 33.5358C11.6587 33.5427 11.6538 33.5495 11.6492 33.5565C11.3804 33.9599 10.9297 34.2006 10.4437 34.2006C10.1552 34.2006 9.87624 34.115 9.63605 33.9524C8.97887 33.509 8.81593 32.5905 9.27277 31.9049L9.67309 31.305C9.85909 31.0261 9.82243 30.6548 9.58552 30.4177C9.34852 30.1806 8.97727 30.1438 8.69837 30.3297L7.59746 31.0634C7.35812 31.2225 7.08137 31.3066 6.79712 31.3066C6.30455 31.3066 5.85015 31.0605 5.58174 30.6484C5.1518 29.988 5.3544 29.0822 6.03305 28.6293L6.80921 28.1118C7.09374 27.9221 7.20062 27.5551 7.06224 27.2424C6.92387 26.9296 6.58055 26.7617 6.24868 26.8448L4.13284 27.374C4.01443 27.4033 3.89518 27.4182 3.77846 27.4182C3.10768 27.4182 2.51471 26.9413 2.36856 26.2838C2.19981 25.5261 2.69649 24.7509 3.47555 24.5558L5.70671 23.998C6.05124 23.9118 6.27746 23.5824 6.23406 23.23C6.19065 22.8776 5.8913 22.6128 5.53627 22.6128H2.85315C2.45706 22.6128 2.08721 22.4558 1.81196 22.1706C1.53699 21.8857 1.39318 21.5102 1.40715 21.114C1.43499 20.3453 2.10681 19.7199 2.90471 19.7199H5.46484C5.85315 19.7199 6.16796 19.4051 6.16796 19.0168C6.16796 18.6285 5.85315 18.3136 5.46484 18.3136H2.90471C1.33281 18.3136 0.0577112 19.5213 0.00183624 21.0637C-0.0257263 21.8454 0.257774 22.5853 0.800211 23.1472C1.11146 23.4696 1.48384 23.7089 1.89231 23.8544C1.14577 24.5282 0.767868 25.5657 0.995961 26.5892C1.28387 27.8844 2.45406 28.8243 3.77846 28.8243C3.90634 28.8243 4.03506 28.8155 4.16368 28.7979C3.82524 29.6371 3.88243 30.6155 4.4034 31.4158C4.93243 32.2279 5.82727 32.7129 6.79712 32.7129C7.07537 32.7129 7.34968 32.6724 7.61293 32.5934C7.55959 33.5696 7.99609 34.5423 8.84874 35.1175C9.32162 35.4375 9.87315 35.6068 10.4437 35.6068C11.3961 35.6068 12.2801 35.1367 12.8113 34.3485C13.2361 33.7644 13.9216 33.4159 14.6473 33.4159C14.9837 33.426 15.3249 33.4648 15.6452 33.476V33.6124C15.6452 33.8196 15.6596 34.0243 15.685 34.2262C14.0872 34.653 12.9267 36.1044 12.9267 37.8276V40.2584C12.9267 41.3265 13.6876 42.2299 14.6844 42.4224V42.9314L11.9028 43.626C11.404 43.0357 10.6668 42.6855 9.87437 42.6855C9.62977 42.6855 9.39052 42.719 9.16112 42.7825L7.12159 39.3784C7.36721 39.0576 7.51496 38.658 7.51496 38.2236C7.51496 37.173 6.66024 36.3182 5.60959 36.3182C4.55893 36.3182 3.70421 37.173 3.70421 38.2236C3.70421 39.2743 4.55893 40.129 5.60959 40.129C5.71402 40.129 5.81584 40.1183 5.91577 40.1021L7.95502 43.5057C7.47943 44.0031 7.21749 44.6528 7.21749 45.3423C7.21749 46.0512 7.49349 46.7182 7.99524 47.2213C8.49681 47.7228 9.16412 47.999 9.87418 47.999C10.177 47.999 10.4746 47.9478 10.7599 47.8467C10.9606 47.7751 11.151 47.6805 11.3281 47.5644C11.3963 47.5552 11.4639 47.5421 11.5304 47.5254L16.9771 46.1654C17.8013 45.9605 18.3768 45.2238 18.3768 44.3741V42.4235C18.8019 42.3451 19.1932 42.1417 19.5058 41.8292C19.9118 41.4217 20.1354 40.881 20.1354 40.3065V38.4444C20.2846 38.4575 20.4351 38.4649 20.5869 38.4649C20.8225 38.465 21.0522 38.4954 21.2717 38.5524L19.2776 45.1602C19.2148 45.3684 19.183 45.5834 19.183 45.799C19.183 47.0122 20.1712 47.9992 21.386 47.9992C21.9634 47.9992 22.5095 47.7773 22.9239 47.374L24.0005 46.3245L25.0775 47.3745C25.4841 47.7732 26.0469 48.001 26.6151 47.9993C27.3188 47.9993 27.9632 47.6752 28.3831 47.11C28.8029 46.5448 28.9269 45.834 28.7236 45.16L26.7294 38.5521C26.9485 38.4953 27.1776 38.465 27.4126 38.4649C27.6391 38.4647 27.8628 38.4489 28.0833 38.4198V40.3065C28.0833 40.8809 28.307 41.4217 28.7139 41.8301C29.0257 42.142 29.417 42.3451 29.8421 42.4235V44.3741C29.8421 45.2239 30.4176 45.9605 31.2409 46.1652L36.471 47.4716C36.9281 47.8129 37.4851 47.9992 38.0579 47.9992C38.7679 47.9992 39.4352 47.723 39.9376 47.2207C40.2704 46.887 40.5031 46.4805 40.6224 46.0377C41.4542 45.9851 42.229 45.637 42.8234 45.0427C43.4705 44.3955 43.8271 43.5354 43.8271 42.621C43.8271 41.7053 43.4704 40.845 42.8238 40.1997C42.3464 39.7213 41.752 39.4023 41.1049 39.268V38.4582H41.5726C41.961 38.4582 42.2758 38.1434 42.2758 37.755C42.2758 37.3667 41.9611 37.0519 41.5726 37.0519H41.1049V36.5487C41.1049 36.1604 40.7902 35.8455 40.4018 35.8455C40.0135 35.8455 39.6987 36.1604 39.6987 36.5487V37.0519H39.231C38.8426 37.0519 38.5278 37.3667 38.5278 37.755C38.5278 38.1434 38.8426 38.4582 39.231 38.4582H39.6987V39.2685C38.1464 39.5937 36.9769 40.9732 36.9769 42.621C36.9769 42.7185 36.9823 42.8155 36.9904 42.912C36.6468 43.0635 36.3363 43.2868 36.0827 43.5686L33.5346 42.9317V42.4229C34.5316 42.2308 35.2933 41.3271 35.2933 40.2587V37.8279C35.2933 36.0314 34.0163 34.5277 32.3224 34.1764C32.344 33.9898 32.3563 33.801 32.3563 33.6099V33.4762C32.6762 33.465 33.0163 33.4263 33.3527 33.4162C34.0784 33.4162 34.7639 33.7646 35.1887 34.3488C35.7199 35.137 36.6039 35.607 37.5564 35.607C38.1271 35.607 38.6785 35.4378 39.1504 35.1184C40.0036 34.5429 40.4404 33.57 40.3871 32.5936C40.6503 32.6726 40.9246 32.7132 41.2031 32.7132C42.1728 32.7132 43.0678 32.2283 43.5969 31.416C44.1178 30.6158 44.1751 29.6375 43.8366 28.7983C43.965 28.8159 44.0938 28.8247 44.2217 28.8247C45.546 28.8247 46.7162 27.8848 47.0042 26.5899C47.2322 25.5662 46.8541 24.5287 46.1078 23.8547C46.5162 23.7092 46.8887 23.4699 47.1999 23.1475C47.7422 22.5853 48.0257 21.8454 47.9982 21.063ZM38.9127 15.1308C38.9172 15.167 38.9208 15.2032 38.9236 15.2394C38.4706 14.9641 37.9617 14.7872 37.4323 14.7227C37.521 14.4195 37.5695 14.0994 37.5695 13.768C37.5695 13.6076 37.5575 13.45 37.536 13.2955C38.2652 13.6145 38.8076 14.298 38.9127 15.1308ZM27.9694 14.087H30.1658C30.5541 14.087 30.8689 13.7722 30.8689 13.3839C30.8689 12.9956 30.5542 12.6808 30.1658 12.6808L26.9228 12.6804C26.8005 12.6804 26.6861 12.6333 26.6007 12.5479C26.5146 12.4619 26.4673 12.3474 26.4673 12.2257C26.4673 11.9745 26.6716 11.7701 26.9228 11.7701H34.1646C35.2666 11.7701 36.1633 12.6662 36.1633 13.7678C36.1633 14.8698 35.2666 15.7665 34.1646 15.7665C31.1515 15.7665 28.7002 18.2182 28.7002 21.2318V22.4688H24.7038V21.2318C24.7038 18.4815 25.8909 15.8916 27.9694 14.087ZM9.06784 15.2394C9.07065 15.2034 9.0743 15.1674 9.0788 15.1315C9.18446 14.2941 9.73149 13.608 10.4662 13.2908C10.4442 13.4468 10.4321 13.606 10.4321 13.768C10.4321 14.099 10.4805 14.4187 10.569 14.7215C10.0362 14.785 9.52374 14.9624 9.06784 15.2394ZM13.8369 15.7665C12.7349 15.7665 11.8382 14.8699 11.8382 13.7679C11.8382 12.6663 12.7349 11.7702 13.8369 11.7702H21.0787C21.33 11.7702 21.5343 11.9745 21.5343 12.2258C21.5343 12.3476 21.487 12.462 21.4009 12.5479C21.3154 12.6333 21.2011 12.6804 21.0787 12.6804L17.8357 12.6808C17.4474 12.6808 17.1326 12.9956 17.1326 13.3839C17.1326 13.7722 17.4474 14.087 17.8357 14.087H20.0321C22.1105 15.8916 23.2977 18.4815 23.2977 21.2319V22.4689H19.3013V21.2319C19.3013 18.2183 16.8499 15.7665 13.8369 15.7665ZM5.11037 38.2237C5.11037 37.9485 5.33434 37.7246 5.60949 37.7246C5.88465 37.7246 6.10862 37.9485 6.10862 38.2237C6.10862 38.499 5.88465 38.7229 5.60949 38.7229C5.33434 38.7229 5.11037 38.499 5.11037 38.2237ZM16.6373 44.8008L11.188 46.1615C11.153 46.1703 11.1176 46.1748 11.0798 46.1748C10.9223 46.1748 10.7694 46.2277 10.6456 46.3249C10.5376 46.4097 10.4173 46.476 10.2887 46.5218C10.1559 46.569 10.0164 46.5929 9.87418 46.5929C9.53968 46.5929 9.22552 46.4629 8.99021 46.2276C8.75387 45.9906 8.62365 45.6762 8.62365 45.3423C8.62365 45.0085 8.75387 44.694 8.98956 44.4577C9.22552 44.2217 9.53968 44.0918 9.87418 44.0918C10.3378 44.0918 10.7611 44.3465 10.9793 44.7567C11.1309 45.0418 11.4573 45.1869 11.7705 45.1086L15.5578 44.1628C15.8708 44.0846 16.0905 43.8033 16.0905 43.4806V42.2079C16.2481 42.1238 16.3967 42.0212 16.5316 41.898C16.6637 42.0185 16.8118 42.1215 16.9708 42.2065V44.374C16.9708 44.5765 16.834 44.7519 16.6373 44.8008ZM18.7294 40.3064C18.7294 40.5061 18.6514 40.6945 18.5107 40.8357C18.3696 40.9768 18.1816 41.0544 17.9813 41.0544C17.5694 41.0544 17.2342 40.7188 17.2342 40.3063C17.2342 39.918 16.9194 39.6031 16.5311 39.6031C16.1428 39.6031 15.828 39.918 15.828 40.3063C15.828 40.5085 15.7486 40.6979 15.6044 40.8396C15.4598 40.9816 15.2704 41.0581 15.0659 41.0545C14.6616 41.0469 14.3327 40.6898 14.3327 40.2584V37.8276C14.3327 36.7496 15.0616 35.8423 16.063 35.5808C16.3088 36.13 16.6582 36.6334 17.1039 37.0659C17.576 37.524 18.128 37.8771 18.7294 38.1142V40.3064ZM27.2543 46.2714C27.1025 46.4758 26.8696 46.593 26.6153 46.593C26.4106 46.5935 26.2058 46.5112 26.059 46.367L24.4916 44.839C24.2186 44.5728 23.783 44.5728 23.51 44.839L21.943 46.3666C21.793 46.5126 21.5953 46.593 21.3862 46.593C20.9468 46.593 20.5893 46.2369 20.5893 45.799C20.5893 45.7209 20.6011 45.6425 20.624 45.5662L22.5219 39.2773C22.852 39.6135 23.0981 40.0366 23.218 40.5195C23.3076 40.8806 23.6295 41.1328 24.0007 41.1328C24.3716 41.1328 24.6933 40.8809 24.7834 40.5196C24.9033 40.0366 25.1494 39.6133 25.4794 39.277L27.3774 45.566C27.451 45.8099 27.4062 46.0669 27.2543 46.2714ZM27.4117 37.0586C26.0107 37.0594 24.7481 37.7613 24.0007 38.8696C23.2531 37.7613 21.9897 37.0594 20.5878 37.0586C18.6048 37.0577 17.0515 35.544 17.0515 33.6125V25.6263C17.0515 24.6607 17.837 23.8752 18.8026 23.8752H29.1981C30.1642 23.8752 30.9502 24.6612 30.9502 25.6273V33.6097C30.9501 35.5421 29.3957 37.057 27.4117 37.0586ZM40.4015 40.6017C40.9411 40.6017 41.448 40.8117 41.8294 41.194C42.2108 41.5746 42.4208 42.0814 42.4208 42.621C42.4208 43.1598 42.2106 43.6667 41.829 44.0484C41.4991 44.3782 41.0748 44.5791 40.617 44.6273C40.496 44.1921 40.2651 43.7925 39.9368 43.4633C39.5134 43.04 38.9718 42.778 38.3863 42.7064C38.3851 42.6779 38.3832 42.6495 38.3832 42.621C38.3832 41.5075 39.2886 40.6017 40.4015 40.6017ZM36.1981 45.0466C36.5022 45.1227 36.8199 44.9881 36.977 44.7167C37.2001 44.3312 37.6143 44.0917 38.0579 44.0917C38.3924 44.0917 38.7066 44.2216 38.9418 44.457C39.1782 44.694 39.3084 45.0084 39.3084 45.3423C39.3084 45.6763 39.1782 45.9906 38.9426 46.227C38.7066 46.4629 38.3924 46.593 38.0579 46.593C37.7567 46.593 37.4763 46.4891 37.247 46.2925C37.1641 46.2214 37.0657 46.1707 36.9599 46.1443L31.581 44.8006C31.385 44.752 31.2482 44.5765 31.2482 44.374V42.2068C31.4074 42.1217 31.5556 42.0187 31.6878 41.898C31.8226 42.0212 31.9711 42.1237 32.1285 42.2077V43.4805C32.1285 43.8031 32.3481 44.0844 32.6611 44.1627L36.1981 45.0466ZM33.8871 37.8277V40.2585C33.8871 40.6899 33.5578 41.047 33.1541 41.0546C32.9519 41.0569 32.7597 40.9819 32.6154 40.8402C32.4712 40.6984 32.3918 40.5089 32.3918 40.3064C32.3918 39.918 32.0771 39.6032 31.6887 39.6032C31.3004 39.6032 30.9856 39.918 30.9856 40.3064C30.9856 40.7189 30.65 41.0545 30.2375 41.0545C30.0372 41.0545 29.8492 40.9768 29.7091 40.8366C29.5674 40.6945 29.4894 40.5061 29.4894 40.3064V38.0213C30.0065 37.7881 30.4827 37.4669 30.8972 37.0645C31.3539 36.6212 31.71 36.1037 31.9565 35.5385C33.0511 35.7256 33.8871 36.6806 33.8871 37.8277ZM46.1881 22.1705C45.9129 22.4557 45.5431 22.6128 45.147 22.6128H42.4639C42.1088 22.6128 41.8095 22.8776 41.7661 23.23C41.7227 23.5824 41.9489 23.9118 42.2934 23.998L44.5243 24.5557C45.3036 24.7509 45.8004 25.5261 45.6316 26.2841C45.4854 26.9413 44.8925 27.4183 44.2217 27.4183C44.105 27.4183 43.9859 27.4035 43.8691 27.3746L41.7514 26.8449C41.4198 26.7618 41.0763 26.9297 40.938 27.2425C40.7996 27.5552 40.9063 27.9223 41.1909 28.1119L41.9669 28.6292C42.6458 29.0823 42.8483 29.9881 42.4186 30.6483C42.15 31.0606 41.6956 31.3067 41.2031 31.3067C40.9188 31.3067 40.6422 31.2226 40.4034 31.0638L39.3019 30.3298C39.0227 30.1438 38.6515 30.1808 38.4148 30.4178C38.1779 30.6549 38.1411 31.0262 38.3271 31.305L38.7271 31.9047C39.1842 32.5905 39.0213 33.5091 38.3631 33.9531C38.1238 34.115 37.8449 34.2007 37.5564 34.2007C37.0704 34.2007 36.6196 33.96 36.3508 33.5566C36.3461 33.5496 36.3413 33.5427 36.3364 33.5358C35.6484 32.5803 34.5331 32.0099 33.3527 32.0099C33.0171 32.0135 32.6786 32.056 32.3563 32.068V27.9816C33.6655 28.1089 34.9524 27.5857 35.8065 26.5289C35.8104 26.5242 35.8137 26.52 35.8174 26.515L35.8268 26.5037C35.8304 26.4994 35.8339 26.4951 35.8374 26.4907C36.8237 25.254 36.7464 23.34 35.6609 22.1326C35.4214 21.867 35.2895 21.5238 35.2895 21.1663C35.2895 20.7804 35.4401 20.4173 35.7135 20.1438C35.987 19.8704 36.3501 19.7198 36.7361 19.7198H45.0954C45.8933 19.7198 46.5651 20.3452 46.593 21.1133C46.6069 21.5101 46.4631 21.8856 46.1881 22.1705Z" fill="#0149D6"/>
<path d="M30.012 33.072C30.012 32.6837 29.6973 32.3689 29.3089 32.3689C28.9206 32.3689 28.6058 32.6837 28.6058 33.072V33.6101C28.6058 34.2293 28.0801 34.7148 27.4096 34.7153C26.1912 34.7153 25.0222 35.0496 24.0001 35.6862C22.9779 35.0496 21.8084 34.7153 20.5893 34.7153C19.9086 34.7148 19.3953 34.2408 19.3953 33.6129V26.2192H28.6058V30.2597C28.6058 30.648 28.9205 30.9628 29.3089 30.9628C29.6972 30.9628 30.012 30.648 30.012 30.2597V25.6277C30.012 25.1784 29.6471 24.813 29.1984 24.813H18.802C18.3538 24.813 17.9893 25.1781 17.9893 25.6267V33.6129C17.9893 35.0183 19.1309 36.1203 20.5889 36.1216C21.6759 36.1216 22.7115 36.4605 23.5839 37.1016C23.7077 37.1926 23.854 37.2381 24.0002 37.2381C24.1465 37.2381 24.2927 37.1925 24.4166 37.1016C25.2889 36.4605 26.324 36.1216 27.4104 36.1216C28.8693 36.1203 30.0121 35.0171 30.0121 33.6101V33.072H30.012Z" fill="#0149D6"/>
<path d="M18.5439 9.42687H29.4572C29.8455 9.42687 30.1603 9.11206 30.1603 8.72375C30.1603 8.33544 29.8456 8.02062 29.4572 8.02062H29.2335L29.5569 6.67456C29.8198 5.57956 29.5707 4.44444 28.8736 3.56C28.1765 2.67566 27.1308 2.16847 26.0048 2.16847H24.7037V0.704468C24.7037 0.316155 24.389 0.00134277 24.0006 0.00134277C23.6123 0.00134277 23.2974 0.316155 23.2974 0.704468V2.16856H21.9965C20.8704 2.16856 19.8248 2.67575 19.1276 3.56019C18.4305 4.44453 18.1815 5.57975 18.4445 6.67475L18.7677 8.02081H18.5439C18.1556 8.02081 17.8408 8.33562 17.8408 8.72394C17.8408 9.11225 18.1556 9.42687 18.5439 9.42687ZM25.1794 3.57472L24.463 8.02072H23.5381L22.8219 3.57472H25.1794ZM27.7693 4.43066C28.1981 4.97459 28.3513 5.67284 28.1895 6.34625L27.7873 8.02072H25.8874L26.5912 3.65244C27.0524 3.77619 27.4649 4.04459 27.7693 4.43066ZM19.8117 6.34625C19.65 5.67284 19.8032 4.97459 20.2319 4.43066C20.5362 4.04459 20.9488 3.77619 21.4102 3.65244L22.1139 8.02072H20.2139L19.8117 6.34625Z" fill="#0149D6"/>
</g>
<defs>
<clipPath id="clip0_828_4283">
<rect width="48" height="48" fill="white" transform="translate(0 0.000244141)"/>
</clipPath>
</defs>
</svg>
