<svg width="65" height="65" viewBox="0 0 65 65" fill="none" xmlns="http://www.w3.org/2000/svg">
<g clip-path="url(#clip0_859_12223)">
<path d="M49.1665 4.25V0.5H0.166504V55.125C0.166504 60.2944 4.37213 64.5 9.5415 64.5H54.7915C59.9609 64.5 64.1665 60.2944 64.1665 55.125V4.25H49.1665ZM9.5415 60.75C6.43988 60.75 3.9165 58.2266 3.9165 55.125V4.25H45.4165V55.125C45.4165 57.2336 46.1165 59.1821 47.2959 60.75H9.5415ZM60.4165 55.125C60.4165 58.2266 57.8931 60.75 54.7915 60.75C51.6899 60.75 49.1665 58.2266 49.1665 55.125V8H52.9165V55.125H56.6665V8H60.4165V55.125Z" fill="#0149D6"/>
<path d="M7.6665 8V19.25H41.6665V8H7.6665ZM37.9165 15.5H11.4165V11.75H37.9165V15.5Z" fill="#0149D6"/>
<path d="M41.6665 23H7.6665V26.75H41.6665V23Z" fill="#0149D6"/>
<path d="M22.7915 34.25H7.6665V38H22.7915V34.25Z" fill="#0149D6"/>
<path d="M41.6665 34.25H26.5415V38H41.6665V34.25Z" fill="#0149D6"/>
<path d="M22.7915 41.75H7.6665V45.5H22.7915V41.75Z" fill="#0149D6"/>
<path d="M41.6665 41.75H26.5415V45.5H41.6665V41.75Z" fill="#0149D6"/>
<path d="M22.7915 49.25H7.6665V53H22.7915V49.25Z" fill="#0149D6"/>
<path d="M41.6665 49.25H26.5415V53H41.6665V49.25Z" fill="#0149D6"/>
</g>
<defs>
<clipPath id="clip0_859_12223">
<rect width="64" height="64" fill="white" transform="translate(0.166504 0.5)"/>
</clipPath>
</defs>
</svg>
