<svg width="65" height="65" viewBox="0 0 65 65" fill="none" xmlns="http://www.w3.org/2000/svg">
<g clip-path="url(#clip0_859_12217)">
<path d="M60.0002 21C60.0002 18.9233 59.3844 16.8932 58.2307 15.1665C57.0769 13.4398 55.437 12.094 53.5184 11.2993C51.5998 10.5045 49.4886 10.2966 47.4518 10.7018C45.415 11.1069 43.5441 12.1069 42.0756 13.5754C40.6072 15.0438 39.6071 16.9148 39.202 18.9516C38.7969 20.9884 39.0048 23.0996 39.7995 25.0182C40.5942 26.9368 41.94 28.5767 43.6668 29.7304C45.3935 30.8842 47.4235 31.5 49.5002 31.5C52.284 31.4968 54.9529 30.3895 56.9213 28.4211C58.8898 26.4526 59.997 23.7838 60.0002 21ZM49.5002 27.5C48.2147 27.5 46.958 27.1188 45.889 26.4046C44.8201 25.6903 43.987 24.6752 43.495 23.4874C43.0031 22.2997 42.8743 20.9928 43.1251 19.7319C43.3759 18.471 43.995 17.3129 44.9041 16.4038C45.8131 15.4948 46.9713 14.8757 48.2322 14.6249C49.493 14.3741 50.8 14.5028 51.9877 14.9948C53.1754 15.4868 54.1906 16.3199 54.9048 17.3888C55.619 18.4577 56.0002 19.7144 56.0002 21C55.9983 22.7233 55.3128 24.3754 54.0942 25.594C52.8757 26.8126 51.2235 27.498 49.5002 27.5Z" fill="#0149D6"/>
<path d="M59.5002 31.5H42.844L31.0095 26.7524C26.789 24.9275 23.3735 31.1 27.1409 33.7168L39.118 42.5H6.50024V4.5H49.5002V6.5C49.5002 7.03043 49.711 7.53914 50.086 7.91421C50.4611 8.28929 50.9698 8.5 51.5002 8.5C52.0307 8.5 52.5394 8.28929 52.9145 7.91421C53.2895 7.53914 53.5002 7.03043 53.5002 6.5V4.5C54.0307 4.5 54.5394 4.28929 54.9145 3.91421C55.2895 3.53914 55.5002 3.03043 55.5002 2.5C55.5002 1.96957 55.2895 1.46086 54.9145 1.08579C54.5394 0.710714 54.0307 0.5 53.5002 0.5H2.50024C1.96981 0.5 1.4611 0.710714 1.08603 1.08579C0.710958 1.46086 0.500244 1.96957 0.500244 2.5C0.500244 3.03043 0.710958 3.53914 1.08603 3.91421C1.4611 4.28929 1.96981 4.5 2.50024 4.5V44.5C2.50027 45.0304 2.71099 45.5391 3.08606 45.9142C3.46113 46.2893 3.96982 46.5 4.50024 46.5H26.5002V48.85C25.1658 49.3218 24.0411 50.2501 23.325 51.471C22.6088 52.6918 22.3473 54.1265 22.5867 55.5215C22.826 56.9165 23.5508 58.1819 24.6329 59.0942C25.7151 60.0065 27.0849 60.5069 28.5002 60.5069C29.9156 60.5069 31.2854 60.0065 32.3676 59.0942C33.4497 58.1819 34.1745 56.9165 34.4138 55.5215C34.6532 54.1265 34.3917 52.6918 33.6755 51.471C32.9594 50.2501 31.8347 49.3218 30.5002 48.85V46.5H40.5002V62.5C40.5003 63.0304 40.711 63.5391 41.0861 63.9142C41.4611 64.2893 41.9698 64.5 42.5002 64.5H56.5002C57.0307 64.5 57.5394 64.2893 57.9144 63.9142C58.2895 63.5391 58.5002 63.0304 58.5002 62.5V52.5H59.5002C60.8258 52.4984 62.0967 51.9712 63.0341 51.0338C63.9714 50.0965 64.4987 48.8256 64.5002 47.5V36.5C64.4987 35.1744 63.9714 33.9035 63.0341 32.9662C62.0967 32.0288 60.8258 31.5016 59.5002 31.5ZM28.5002 56.5C28.1047 56.5 27.718 56.3827 27.3891 56.1629C27.0602 55.9432 26.8039 55.6308 26.6525 55.2654C26.5011 54.8999 26.4615 54.4978 26.5387 54.1098C26.6158 53.7219 26.8063 53.3655 27.086 53.0858C27.3657 52.8061 27.7221 52.6156 28.1101 52.5384C28.498 52.4613 28.9002 52.5009 29.2656 52.6522C29.6311 52.8036 29.9434 53.06 30.1632 53.3889C30.3829 53.7178 30.5002 54.1044 30.5002 54.5C30.4997 55.0303 30.2888 55.5387 29.9139 55.9136C29.5389 56.2886 29.0305 56.4995 28.5002 56.5ZM60.5002 47.5C60.4999 47.7651 60.3944 48.0193 60.207 48.2067C60.0195 48.3942 59.7654 48.4997 59.5002 48.5H50.5149L57.3459 45.3125C57.8266 45.0882 58.1985 44.6821 58.3798 44.1836C58.5611 43.6851 58.537 43.135 58.3127 42.6543C58.0884 42.1736 57.6823 41.8017 57.1838 41.6204C56.6853 41.4391 56.1352 41.4632 55.6545 41.6875L47.5979 45.4473C46.8348 45.8034 46.2161 46.4092 45.8439 47.1646C45.4717 47.92 45.3683 48.7797 45.5508 49.6018C45.7332 50.4238 46.1907 51.1591 46.8475 51.686C47.5043 52.213 48.3213 52.5001 49.1633 52.5H54.5002V60.5H44.5002V42.5C44.5002 42.1859 44.4262 41.8762 44.2842 41.596C44.1422 41.3158 43.9362 41.073 43.6829 40.8872L29.5202 30.4653L41.7131 35.3564C41.9499 35.4512 42.2027 35.4999 42.4578 35.5H59.5002C59.7654 35.5003 60.0195 35.6058 60.207 35.7933C60.3944 35.9807 60.4999 36.2349 60.5002 36.5V47.5Z" fill="#0149D6"/>
<path d="M12.5002 38.5C13.6048 38.5 14.5002 37.6046 14.5002 36.5C14.5002 35.3954 13.6048 34.5 12.5002 34.5C11.3957 34.5 10.5002 35.3954 10.5002 36.5C10.5002 37.6046 11.3957 38.5 12.5002 38.5Z" fill="#0149D6"/>
<path d="M24.5002 21.5C24.5002 20.9696 24.2895 20.4609 23.9144 20.0858C23.5394 19.7107 23.0307 19.5 22.5002 19.5H12.5002C11.9698 19.5 11.4611 19.7107 11.086 20.0858C10.711 20.4609 10.5002 20.9696 10.5002 21.5C10.5002 22.0304 10.711 22.5391 11.086 22.9142C11.4611 23.2893 11.9698 23.5 12.5002 23.5H22.5002C23.0307 23.5 23.5394 23.2893 23.9144 22.9142C24.2895 22.5391 24.5002 22.0304 24.5002 21.5Z" fill="#0149D6"/>
<path d="M34.5002 13.5C34.5002 12.9696 34.2895 12.4609 33.9144 12.0858C33.5394 11.7107 33.0307 11.5 32.5002 11.5H12.5002C11.9698 11.5 11.4611 11.7107 11.086 12.0858C10.711 12.4609 10.5002 12.9696 10.5002 13.5C10.5002 14.0304 10.711 14.5391 11.086 14.9142C11.4611 15.2893 11.9698 15.5 12.5002 15.5H32.5002C33.0307 15.5 33.5394 15.2893 33.9144 14.9142C34.2895 14.5391 34.5002 14.0304 34.5002 13.5Z" fill="#0149D6"/>
</g>
<defs>
<clipPath id="clip0_859_12217">
<rect width="64" height="64" fill="white" transform="translate(0.500244 0.5)"/>
</clipPath>
</defs>
</svg>
