<?xml version="1.0" encoding="utf-8"?><svg xmlns="http://www.w3.org/2000/svg" xmlns:xlink="http://www.w3.org/1999/xlink"><symbol viewBox="0 0 22 24" id="basket" xmlns="http://www.w3.org/2000/svg"><g clip-path="url(#aa)"><path d="M10.363 18.443a2.046 2.046 0 0 0-2.045 2.042 2.046 2.046 0 0 0 4.09 0 2.046 2.046 0 0 0-2.045-2.042Zm6.134 0a2.046 2.046 0 0 0-2.045 2.042 2.046 2.046 0 0 0 4.089 0 2.046 2.046 0 0 0-2.044-2.042Zm3.978-8.199L7.413 6.891a.614.614 0 0 0-.75.73L8.67 16.4h-.786L5.482 5.895a.613.613 0 0 0-.474-.464l-4.27-.882A.614.614 0 0 0 .489 5.75l3.885.802L6.797 17.15a.613.613 0 0 0 .598.477h12.07a.615.615 0 0 0 .607-.53l.858-6.175a.613.613 0 0 0-.455-.678Zm-8.14 3.91a.613.613 0 0 1-1.227 0v-2.696a.613.613 0 0 1 1.227 0v2.696Zm2.625 0a.613.613 0 0 1-1.227 0v-1.88a.613.613 0 0 1 1.227 0v1.88Zm2.625 0a.613.613 0 0 1-1.227 0v-1.226a.613.613 0 0 1 1.227 0v1.226Z"/></g><path fill-rule="evenodd" clip-rule="evenodd" d="M16.268 4.568a2.996 2.996 0 0 0-1.693-.523c-.627 0-1.21.193-1.693.523-.28-.843-.492-1.752-.492-2.383C12.39.98 13.37 0 14.575 0s2.185.98 2.185 2.185c0 .631-.212 1.54-.492 2.383Zm-4.722 2.274.024.006v-.011l-.024.005Zm4.972 1.217c-1.333-.33-2.766-.681-4.129-1.013a2.185 2.185 0 1 1 4.129 1.013Zm4.436 1.103c-.866-.217-2.155-.538-3.618-.9a2.995 2.995 0 0 0 .243-1.425c.87.18 1.762.45 2.308.765.596.344.969.928 1.067 1.56ZM9.869 6.439c-.36-.086-.706-.167-1.03-.243a2.19 2.19 0 0 1-.376-2.667 2.188 2.188 0 0 1 3.147-.7c.098.738.338 1.599.61 2.353a3.01 3.01 0 0 0-.449.774c-.628.113-1.305.278-1.902.483Zm10.124.075a3.43 3.43 0 0 1-.217.114c-.696-.295-1.587-.526-2.397-.672a3.01 3.01 0 0 0-.449-.774c.262-.727.494-1.553.599-2.273.095-.067.189-.128.278-.18a2.188 2.188 0 0 1 2.986.8 2.188 2.188 0 0 1-.8 2.985Z"/><defs><clipPath id="aa"><path transform="translate(0 3.064)" d="M0 0h20.936v20.936H0z"/></clipPath></defs></symbol><symbol viewBox="0 0 344.96 344.96" id="check" xmlns="http://www.w3.org/2000/svg"><g data-name="Слой 2"><path class="bcls-1" d="m321.85 86.24-40-23.11-23.1-40H212.5L172.48 0l-40 23.11H86.24l-23.11 40-40 23.1v46.21L0 172.48l23.11 40v46.21l40 23.11 23.11 40h46.21l40 23.1 40-23.11h46.21l23.11-40 40-23.11V212.5l23.11-40-23.11-40V86.24ZM156.91 243.07a16.79 16.79 0 0 1-23.34 0l-50.45-50.44a16.19 16.19 0 0 1 0-22.89l13.35-13.35a16.19 16.19 0 0 1 22.89 0l25.87 25.87 80.34-80.35a16.19 16.19 0 0 1 22.89 0l13.35 13.35a16.19 16.19 0 0 1 0 22.89Z" data-name="Capa 1"/></g></symbol><symbol viewBox="0 0 24 24" id="fb" xmlns="http://www.w3.org/2000/svg"><path d="M13.397 20.997v-8.196h2.765l.411-3.209h-3.176V7.548c0-.926.258-1.56 1.587-1.56h1.684v-2.86A22.108 22.108 0 0 0 14.201 3c-2.444 0-4.122 1.492-4.122 4.231v2.355H7.332v3.21h2.753v8.201h3.312Z"/></symbol><symbol viewBox="0 0 48 48" id="goals-1" xmlns="http://www.w3.org/2000/svg"><g clip-path="url(#da)"><path d="M15.02 12.68h-1.11a.703.703 0 0 0 0 1.407h1.11a.703.703 0 0 0 0-1.406Zm18.662 1.407h1.111a.703.703 0 1 0 0-1.406h-1.111a.703.703 0 0 0 0 1.406Z"/><path d="M47.998 21.063c-.055-1.516-1.357-2.75-2.903-2.75h-8.359c-.761 0-1.478.297-2.017.837a2.834 2.834 0 0 0-.836 2.016c0 .706.26 1.384.733 1.907.615.685.672 1.844.126 2.535a2.532 2.532 0 0 1-2.386.954v-.935c0-1.425-.95-2.633-2.25-3.024v-1.371c0-2.238 1.82-4.06 4.058-4.06.96 0 1.829-.4 2.448-1.041a2.325 2.325 0 0 1 2.223.889.703.703 0 0 0 1.207-.15c.256-.6.347-1.262.266-1.915a3.733 3.733 0 0 0-3.439-3.251 3.401 3.401 0 0 0-2.705-1.34h-7.241a1.864 1.864 0 0 0-.787 3.55A10.84 10.84 0 0 0 24 17.385a10.84 10.84 0 0 0-2.135-3.471 1.859 1.859 0 0 0 1.074-1.688 1.864 1.864 0 0 0-1.862-1.862h-7.241a3.401 3.401 0 0 0-2.704 1.339 3.733 3.733 0 0 0-3.45 3.253c-.081.652.01 1.314.266 1.914a.703.703 0 0 0 1.207.15 2.326 2.326 0 0 1 2.235-.887c.62.64 1.487 1.04 2.446 1.04a4.063 4.063 0 0 1 4.058 4.059v1.37a3.163 3.163 0 0 0-2.25 3.024v.937a2.53 2.53 0 0 1-2.387-.954c-.547-.692-.49-1.85.126-2.535a2.845 2.845 0 0 0 .733-1.908c0-.761-.297-1.478-.836-2.017a2.834 2.834 0 0 0-2.017-.835H8.277a.703.703 0 0 0 0 1.406h2.987c.386 0 .749.15 1.023.424a1.442 1.442 0 0 1 .052 1.99c-1.085 1.206-1.163 3.12-.176 4.357l.01.012.01.013.01.013a3.92 3.92 0 0 0 3.452 1.452v4.087c-.323-.012-.662-.055-.998-.058a3.68 3.68 0 0 0-2.983 1.526l-.015.02a1.445 1.445 0 0 1-2.013.396c-.657-.443-.82-1.361-.363-2.047l.4-.6a.703.703 0 0 0-.975-.975l-1.1.733a1.445 1.445 0 0 1-2.016-.415c-.43-.66-.228-1.566.451-2.019l.776-.517a.703.703 0 0 0-.56-1.267l-2.116.529a1.455 1.455 0 0 1-1.764-1.09c-.17-.758.327-1.533 1.107-1.728l2.23-.558a.703.703 0 0 0-.17-1.385H2.853c-.396 0-.766-.157-1.041-.442a1.436 1.436 0 0 1-.405-1.057c.028-.769.7-1.394 1.498-1.394h2.56a.703.703 0 0 0 0-1.406h-2.56c-1.572 0-2.847 1.207-2.903 2.75A2.83 2.83 0 0 0 .8 23.147a2.84 2.84 0 0 0 1.092.707c-.746.674-1.124 1.712-.896 2.735a2.87 2.87 0 0 0 2.782 2.235c.128 0 .257-.009.386-.026a2.841 2.841 0 0 0 .24 2.618 2.847 2.847 0 0 0 3.209 1.177 2.845 2.845 0 0 0 1.236 2.524 2.849 2.849 0 0 0 3.963-.769 2.275 2.275 0 0 1 1.835-.932c.337.01.678.049.998.06v.136c0 .208.015.412.04.614a3.72 3.72 0 0 0-2.758 3.602v2.43c0 1.069.76 1.972 1.757 2.164v.51l-2.781.694a2.652 2.652 0 0 0-2.742-.843l-2.04-3.405c.246-.32.394-.72.394-1.154a1.908 1.908 0 0 0-1.905-1.906 1.908 1.908 0 0 0-1.906 1.906 1.907 1.907 0 0 0 2.212 1.878l2.039 3.404a2.642 2.642 0 0 0-.738 1.836c0 .71.276 1.376.778 1.88a2.64 2.64 0 0 0 1.88.777 2.643 2.643 0 0 0 1.453-.435c.068-.009.136-.022.202-.039l5.447-1.36a1.842 1.842 0 0 0 1.4-1.79v-1.952a2.14 2.14 0 0 0 1.129-.594c.406-.407.63-.948.63-1.523v-1.862c.149.014.3.02.45.02.237.001.466.031.686.088l-1.994 6.608a2.204 2.204 0 0 0 3.646 2.214L24 46.324l1.078 1.05c.406.4.969.627 1.537.625.704 0 1.348-.324 1.768-.889a2.18 2.18 0 0 0 .34-1.95l-1.994-6.608c.22-.057.449-.087.684-.087.226 0 .45-.016.67-.045v1.886a2.147 2.147 0 0 0 1.76 2.117v1.951c0 .85.575 1.587 1.398 1.791l5.23 1.307a2.654 2.654 0 0 0 4.151-1.434 3.4 3.4 0 0 0 2.201-.995 3.403 3.403 0 0 0 1.004-2.422c0-.916-.357-1.776-1.003-2.421a3.395 3.395 0 0 0-1.72-.932v-.81h.469a.703.703 0 1 0 0-1.406h-.468v-.503a.703.703 0 1 0-1.406 0v.503h-.468a.703.703 0 1 0 0 1.406h.468v.81a3.43 3.43 0 0 0-2.709 3.644 2.672 2.672 0 0 0-.907.657l-2.548-.637v-.51c.997-.191 1.758-1.095 1.758-2.163v-2.431c0-1.797-1.277-3.3-2.97-3.652.021-.186.033-.375.033-.566v-.134c.32-.011.66-.05.997-.06.725 0 1.41.349 1.836.933a2.849 2.849 0 0 0 3.961.77 2.846 2.846 0 0 0 1.237-2.525 2.847 2.847 0 0 0 3.21-1.178c.52-.8.578-1.778.24-2.618.128.018.257.027.385.027a2.87 2.87 0 0 0 2.782-2.235c.228-1.024-.15-2.061-.896-2.735a2.84 2.84 0 0 0 1.092-.707 2.833 2.833 0 0 0 .798-2.085Zm-9.085-5.932c.004.036.008.072.01.108a3.746 3.746 0 0 0-1.49-.516 3.394 3.394 0 0 0 .103-1.428 2.324 2.324 0 0 1 1.377 1.836Zm-10.944-1.044h2.197a.703.703 0 0 0 0-1.406h-3.243a.452.452 0 0 1-.456-.455c0-.252.205-.456.456-.456h7.242a2 2 0 0 1 1.998 1.998 2.001 2.001 0 0 1-1.998 1.998 5.471 5.471 0 0 0-5.465 5.466v1.237h-3.996v-1.237a9.44 9.44 0 0 1 3.265-7.145ZM9.068 15.239l.01-.107a2.324 2.324 0 0 1 1.388-1.841 3.414 3.414 0 0 0 .103 1.43 3.747 3.747 0 0 0-1.501.518Zm4.769.527a2.001 2.001 0 0 1-1.999-1.998 2 2 0 0 1 1.999-1.998h7.242a.456.456 0 0 1 0 .91h-3.243a.703.703 0 0 0 0 1.407h2.196a9.437 9.437 0 0 1 3.266 7.145v1.237H19.3v-1.237a5.471 5.471 0 0 0-5.464-5.465ZM5.11 38.224a.5.5 0 1 1 1 0 .5.5 0 0 1-1 0ZM16.637 44.8l-5.449 1.36a.438.438 0 0 1-.108.014.703.703 0 0 0-.434.15 1.264 1.264 0 0 1-.772.268 1.246 1.246 0 0 1-1.25-1.25 1.245 1.245 0 0 1 1.25-1.251c.464 0 .887.255 1.105.665.152.285.478.43.792.352l3.787-.946a.703.703 0 0 0 .532-.682v-1.273a2.16 2.16 0 0 0 .442-.31c.132.12.28.223.439.308v2.168a.439.439 0 0 1-.334.427Zm2.092-4.495a.746.746 0 0 1-.748.748.748.748 0 0 1-.747-.748.703.703 0 1 0-1.406 0c0 .203-.08.392-.224.534a.741.741 0 0 1-.538.214c-.404-.007-.733-.364-.733-.796v-2.43c0-1.078.729-1.986 1.73-2.247a4.816 4.816 0 0 0 1.04 1.485 4.923 4.923 0 0 0 1.626 1.048v2.192Zm8.525 5.965a.789.789 0 0 1-.639.322.8.8 0 0 1-.556-.226l-1.567-1.528a.703.703 0 0 0-.982 0l-1.567 1.528a.796.796 0 0 1-1.319-.8l1.898-6.29c.33.337.576.76.696 1.242a.806.806 0 0 0 1.565 0c.12-.482.366-.906.696-1.242l1.898 6.289a.79.79 0 0 1-.123.705Zm.158-9.212A4.11 4.11 0 0 0 24 38.869a4.113 4.113 0 0 0-3.413-1.81c-1.983-.001-3.537-1.515-3.537-3.447v-7.986c0-.965.786-1.75 1.752-1.75h10.395c.966 0 1.752.785 1.752 1.751v7.983c0 1.932-1.554 3.447-3.538 3.449Zm12.99 3.543a2 2 0 0 1 1.427.592c.382.38.592.887.592 1.427 0 .539-.21 1.046-.592 1.427-.33.33-.754.531-1.212.58a2.65 2.65 0 0 0-2.23-1.922c-.002-.028-.004-.056-.004-.085 0-1.114.906-2.02 2.018-2.02Zm-4.204 4.445a.703.703 0 0 0 .779-.33 1.253 1.253 0 0 1 1.08-.625 1.246 1.246 0 0 1 1.25 1.25 1.246 1.246 0 0 1-1.25 1.251 1.23 1.23 0 0 1-.81-.3.702.702 0 0 0-.287-.149L31.581 44.8a.438.438 0 0 1-.333-.427v-2.167c.16-.085.308-.188.44-.309.135.123.283.226.44.31v1.273c0 .322.22.603.533.682l3.537.884Zm-2.31-7.22v2.431c0 .432-.33.789-.734.797a.751.751 0 0 1-.762-.749.703.703 0 1 0-1.406 0 .749.749 0 0 1-1.497 0V38.02a4.924 4.924 0 0 0 1.408-.956 4.81 4.81 0 0 0 1.06-1.526 2.326 2.326 0 0 1 1.93 2.289Zm12.3-15.656a1.435 1.435 0 0 1-1.041.442h-2.683a.703.703 0 0 0-.17 1.385l2.23.558c.78.195 1.276.97 1.108 1.728a1.456 1.456 0 0 1-1.41 1.134 1.47 1.47 0 0 1-.353-.043l-2.118-.53a.703.703 0 0 0-.56 1.267l.776.517c.679.453.881 1.36.452 2.02a1.446 1.446 0 0 1-2.016.415l-1.101-.734a.703.703 0 0 0-.975.975l.4.6c.457.685.294 1.604-.364 2.048a1.445 1.445 0 0 1-2.027-.417 3.684 3.684 0 0 0-2.983-1.526c-.336.004-.674.046-.997.058v-4.086a3.922 3.922 0 0 0 3.461-1.467l.01-.011a.667.667 0 0 0 .01-.013c.987-1.237.91-3.151-.176-4.358a1.44 1.44 0 0 1 .053-1.99 1.437 1.437 0 0 1 1.022-.423h8.36c.797 0 1.47.625 1.497 1.393.014.397-.13.773-.405 1.058Z"/><path d="M30.012 33.072a.703.703 0 1 0-1.406 0v.538c0 .62-.526 1.105-1.196 1.105a6.415 6.415 0 0 0-3.41.971 6.418 6.418 0 0 0-3.41-.97c-.681-.001-1.195-.475-1.195-1.103v-7.394h9.21v4.04a.703.703 0 1 0 1.407 0v-4.631a.815.815 0 0 0-.814-.815H18.802a.814.814 0 0 0-.813.814v7.986c0 1.405 1.142 2.507 2.6 2.509 1.087 0 2.123.339 2.995.98a.702.702 0 0 0 .833 0 5.02 5.02 0 0 1 2.993-.98c1.46-.002 2.602-1.105 2.602-2.512v-.538ZM18.544 9.427h10.913a.703.703 0 0 0 0-1.406h-.224l.324-1.346a3.633 3.633 0 0 0-.683-3.115 3.632 3.632 0 0 0-2.87-1.392h-1.3V.704a.703.703 0 1 0-1.407 0V2.17h-1.3a3.632 3.632 0 0 0-2.87 1.391 3.632 3.632 0 0 0-.682 3.115l.323 1.346h-.224a.703.703 0 0 0 0 1.406Zm6.635-5.852-.716 4.446h-.925l-.716-4.446h2.357Zm2.59.856c.43.544.582 1.242.42 1.915l-.402 1.675h-1.9l.704-4.369c.461.124.874.393 1.178.779Zm-7.957 1.915a2.234 2.234 0 0 1 .42-1.915 2.233 2.233 0 0 1 1.178-.779l.704 4.369h-1.9l-.402-1.675Z"/></g><defs><clipPath id="da"><path d="M0 0h48v48H0z"/></clipPath></defs></symbol><symbol viewBox="0 0 48 48" id="goals-2" xmlns="http://www.w3.org/2000/svg"><g clip-path="url(#ea)"><path d="M43.589 31.539a3.258 3.258 0 0 0-3.013-.133l-4.345-2.509a3.267 3.267 0 0 0-1.378-2.386V21.49a3.267 3.267 0 0 0 1.378-2.387l.863-.498a.703.703 0 0 0-.703-1.218l-.38.22a3.27 3.27 0 0 0-.47-.812l3.38-1.952c.117.29.275.565.47.813l-.164.094a.703.703 0 0 0 .703 1.218l.646-.373c.17.079.35.143.534.193A3.264 3.264 0 0 0 44.784 12a3.265 3.265 0 0 0-6.08 1.346l-4.348 2.51a3.263 3.263 0 0 0-2.757 0l-4.348-2.51a3.267 3.267 0 0 0-1.376-2.357V5.94A3.264 3.264 0 0 0 24 0a3.265 3.265 0 0 0-1.875 5.939v.807a.703.703 0 1 0 1.406 0v-.247c.306.044.623.045.938 0v3.93a3.286 3.286 0 0 0-.938 0v-.402a.703.703 0 1 0-1.406 0v.962a3.267 3.267 0 0 0-1.376 2.356l-4.349 2.51a3.263 3.263 0 0 0-2.757 0l-4.347-2.51A3.265 3.265 0 0 0 3.216 12a3.264 3.264 0 0 0 1.195 4.462c.945.546 2.06.574 3.012.133l4.345 2.508a3.267 3.267 0 0 0 1.379 2.387v5.02a3.267 3.267 0 0 0-1.379 2.387l-4.345 2.509a3.319 3.319 0 0 0-.534-.194 3.244 3.244 0 0 0-2.478.327 3.244 3.244 0 0 0-1.522 1.983A3.245 3.245 0 0 0 3.215 36a3.265 3.265 0 0 0 6.08-1.346l.757-.436A.703.703 0 1 0 9.349 33l-.271.157a3.309 3.309 0 0 0-.469-.812l3.38-1.951c.117.294.276.566.47.811l-.14.08a.703.703 0 1 0 .704 1.218l.62-.359a3.261 3.261 0 0 0 2.757 0l4.346 2.51a3.268 3.268 0 0 0 1.379 2.386v5.021A3.264 3.264 0 0 0 24 48.001a3.264 3.264 0 0 0 1.875-5.939V37.04a3.267 3.267 0 0 0 1.379-2.386l4.346-2.51c.85.398 1.865.417 2.756 0l4.348 2.51A3.265 3.265 0 0 0 44.784 36a3.264 3.264 0 0 0-1.195-4.461ZM22.139 3.266c0-1.025.835-1.86 1.86-1.86 1.026 0 1.86.835 1.86 1.86 0 1.026-.834 1.86-1.86 1.86a1.862 1.862 0 0 1-1.86-1.86Zm16.783 29.89-3.38-1.95a3.27 3.27 0 0 0 .47-.812l3.379 1.95a3.3 3.3 0 0 0-.469.813Zm-5.475-7.205a3.286 3.286 0 0 0-.938 0V22.05c.306.044.623.046.938 0v3.902Zm-7.59 8.334A1.862 1.862 0 0 1 24 36.227a1.862 1.862 0 0 1-1.857-1.96c.052-.98.865-1.76 1.857-1.76s1.805.781 1.857 1.76v.018Zm-4.436-18.621-3.366 1.943a3.267 3.267 0 0 0-.47-.812l3.372-1.946c.115.295.272.569.463.815Zm-3.146 3.44 4.32-2.494a3.262 3.262 0 0 0 2.81 0l4.32 2.493a3.268 3.268 0 0 0 1.378 2.387v5.02a3.267 3.267 0 0 0-1.379 2.387l-4.346 2.51a3.263 3.263 0 0 0-2.757 0l-4.346-2.51a3.268 3.268 0 0 0-1.378-2.386V21.49a3.268 3.268 0 0 0 1.378-2.387Zm8.768-4.255 3.371 1.946a3.267 3.267 0 0 0-.47.811l-3.365-1.942a3.26 3.26 0 0 0 .464-.815Zm-8.988 15.545 3.381 1.952a3.27 3.27 0 0 0-.47.81l-3.38-1.951c.193-.244.352-.517.47-.811Zm8.508 1.952 3.381-1.952c.118.294.277.566.47.811l-3.38 1.952a3.272 3.272 0 0 0-.47-.811Zm14.463-20.323a1.859 1.859 0 1 1 1.862 3.222 1.859 1.859 0 0 1-1.862-3.222Zm-6.191 6.691v.023a1.862 1.862 0 0 1-1.857 1.94 1.862 1.862 0 0 1-1.86-1.86c0-1.024.833-1.86 1.86-1.86.99 0 1.803.78 1.857 1.757Zm-8.975-5.052c0 1.025-.834 1.86-1.86 1.86a1.862 1.862 0 0 1-1.86-1.86c0-1.025.834-1.86 1.86-1.86 1.025 0 1.86.835 1.86 1.86Zm-8.979 5.155c0 1.025-.834 1.86-1.86 1.86a1.862 1.862 0 0 1-1.86-1.86c0-1.024.834-1.86 1.86-1.86 1.029 0 1.86.837 1.86 1.86Zm-7.804-3.973 3.38 1.951a3.27 3.27 0 0 0-.47.811l-3.378-1.95c.194-.247.352-.522.468-.812Zm-3.963.4a1.859 1.859 0 1 1 1.857-3.22 1.859 1.859 0 0 1-1.857 3.22Zm9.439 6.805c.306.044.623.046.937 0v3.902a3.286 3.286 0 0 0-.937 0V22.05Zm-7.58 13.929a1.862 1.862 0 0 1-2.726-2.092 1.86 1.86 0 1 1 2.727 2.092Zm6.189-6.794c0-1.026.834-1.86 1.86-1.86 1.025 0 1.86.834 1.86 1.86 0 1.024-.833 1.86-1.86 1.86a1.862 1.862 0 0 1-1.86-1.86ZM24 46.594a1.862 1.862 0 0 1-1.86-1.86c0-1.025.834-1.86 1.86-1.86 1.025 0 1.86.835 1.86 1.86 0 1.026-.835 1.86-1.86 1.86Zm.468-5.092a3.286 3.286 0 0 0-.937 0V37.6c.306.044.623.045.938 0v3.902Zm6.65-12.318c0-1.026.834-1.86 1.86-1.86 1.025 0 1.86.834 1.86 1.86 0 1.024-.833 1.86-1.86 1.86a1.862 1.862 0 0 1-1.86-1.86Zm12.448 6.113a1.862 1.862 0 0 1-2.54.68 1.859 1.859 0 1 1 2.54-.68Z"/><path d="M20.084 26.505h1.412v1.412c0 .44.359.8.8.8h3.408c.441 0 .8-.36.8-.8v-1.413h1.412a.8.8 0 0 0 .8-.8v-3.408a.8.8 0 0 0-.8-.8h-1.412v-1.412a.8.8 0 0 0-.8-.8h-3.408a.8.8 0 0 0-.8.8v1.412h-1.412a.8.8 0 0 0-.8.8v3.408a.8.8 0 0 0 .8.8Zm.605-3.603h1.413a.8.8 0 0 0 .8-.8V20.69h2.196v1.412c0 .441.359.8.8.8h1.413v2.196h-1.413c-.441 0-.8.36-.8.8v1.413h-2.196v-1.413c0-.44-.359-.8-.8-.8h-1.413v-2.196Z"/></g><defs><clipPath id="ea"><path d="M0 0h48v48H0z"/></clipPath></defs></symbol><symbol viewBox="0 0 48 48" id="goals-3" xmlns="http://www.w3.org/2000/svg"><path d="M32.666 41.474a19.303 19.303 0 0 1-8.667 2.026 19.64 19.64 0 0 1-3.612-.334l-.276 1.475c1.282.24 2.584.36 3.888.36a20.79 20.79 0 0 0 9.334-2.184l-.667-1.343Zm7.551-28.307 1.246-.834a21.1 21.1 0 0 0-8.13-7.15l-.667 1.344a19.597 19.597 0 0 1 7.55 6.64ZM8.542 12.111a19.553 19.553 0 0 1 8.236-6.23l-.556-1.393a21.02 21.02 0 0 0-13.094 17.18l1.49.165a19.428 19.428 0 0 1 3.924-9.721Z"/><path d="M25.032 39.391A2.25 2.25 0 1 0 27 35.379v-7.758a2.251 2.251 0 0 0 .689-3.852 2.251 2.251 0 0 0-2.657-.16l-3.282-1.915V18.75a2.252 2.252 0 0 0-2.25-2.25.75.75 0 0 1-.75-.75v-3H16.4l2.349-3.523V9c0-.573.082-1.144.245-1.694l3.194 3.194h2.56V9H22.81l-3.158-3.159a6.046 6.046 0 0 1 1.939-1.939l1.659 1.659V7.5h1.5V4.94l-1.695-1.695a5.99 5.99 0 0 1 6.488 2.151L27.44 7.5h-1.19V9h1.811l2.25-2.25c.29.715.44 1.479.44 2.25v.556a5.96 5.96 0 0 1-.247 1.694H25.94l-1.72 1.72 1.061 1.06 1.28-1.28h3.268a5.971 5.971 0 0 1-.469.648l-1.838 2.205a2.254 2.254 0 0 0-.521 1.44V22.5h1.5v-5.457c0-.175.061-.345.174-.48l1.837-2.205a7.514 7.514 0 0 0 1.739-4.802V9a7.5 7.5 0 0 0-14.997-.232l-2.1 3.15a1.5 1.5 0 0 0 1.248 2.332h.849v1.5A2.253 2.253 0 0 0 19.5 18a.751.751 0 0 1 .75.75v2.07l-3.022-1.763a2.252 2.252 0 0 0-3.16-2.358 2.247 2.247 0 0 0-1.297 2.358l-7.804 4.552A2.25 2.25 0 1 0 3 27.621v7.758a2.25 2.25 0 1 0 1.967 4.012l7.804 4.553a2.248 2.248 0 0 0 3.161 2.357 2.25 2.25 0 0 0 1.296-2.358l7.804-4.552ZM5.298 27.131l7.472 4.075a2.193 2.193 0 0 0 0 .588L5.298 35.87a2.253 2.253 0 0 0-.798-.49v-7.76a2.27 2.27 0 0 0 .798-.49Zm.682 10.075 7.472-4.075c.228.217.5.384.798.49v8.508a2.255 2.255 0 0 0-.788.48L5.89 38.194a2.23 2.23 0 0 0 .09-.987ZM15 30.75a.75.75 0 1 1 0 1.501.75.75 0 0 1 0-1.5Zm.75 2.871a2.27 2.27 0 0 0 .798-.49l7.472 4.075c-.045.332-.014.669.09.987l-7.573 4.417a2.254 2.254 0 0 0-.787-.48v-8.51Zm8.952-6.49c.228.217.5.384.798.49v7.758c-.298.106-.57.273-.798.49l-7.472-4.075a2.193 2.193 0 0 0 0-.588l7.472-4.075Zm1.548 11.12a.75.75 0 1 1 0-1.502.75.75 0 0 1 0 1.501ZM27 25.5a.75.75 0 1 1-1.5 0 .75.75 0 0 1 1.5 0Zm-2.89-.694a2.229 2.229 0 0 0-.09.987l-7.472 4.076a2.253 2.253 0 0 0-.798-.49V20.87c.293-.104.56-.268.787-.48l7.572 4.416ZM15 18a.75.75 0 1 1 0 1.501.75.75 0 0 1 0-1.5Zm-1.538 2.39c.227.213.495.377.788.481v8.508c-.298.106-.57.273-.798.49L5.98 25.795a2.228 2.228 0 0 0-.09-.987l7.572-4.416ZM3.75 24.75a.75.75 0 1 1 0 1.5.75.75 0 0 1 0-1.5ZM3 37.5a.75.75 0 1 1 1.5 0 .75.75 0 0 1-1.5 0ZM15 45a.75.75 0 1 1 0-1.5.75.75 0 0 1 0 1.5Zm26.7-5.1-1.45-1.087 2.35-1.763A9.736 9.736 0 0 0 45 24.065V24h-.041a9.719 9.719 0 0 0-2.359-2.55l-2.35-1.762L41.7 18.6A8.288 8.288 0 0 0 45 12h-1.5c0 .767-.133 1.528-.39 2.25h-8.22A6.723 6.723 0 0 1 34.5 12H33a8.29 8.29 0 0 0 3.3 6.6l1.45 1.088-2.35 1.762A9.719 9.719 0 0 0 33.041 24H33v.065a9.736 9.736 0 0 0 2.4 12.985l2.35 1.763L36.3 39.9a8.288 8.288 0 0 0-3.3 6.6h1.5c0-.767.133-1.528.39-2.25h8.22c.257.722.39 1.483.39 2.25H45a8.29 8.29 0 0 0-3.3-6.6ZM33.035 30h11.93a8.283 8.283 0 0 1-.873 3H33.909a8.28 8.28 0 0 1-.873-3Zm0-1.5a8.281 8.281 0 0 1 .873-3h10.184a8.28 8.28 0 0 1 .873 3h-11.93ZM37.2 17.4a6.724 6.724 0 0 1-1.558-1.65h6.716A6.726 6.726 0 0 1 40.8 17.4L39 18.75l-1.8-1.35Zm-.9 5.25 2.7-2.025 2.7 2.025c.522.392.996.846 1.41 1.35h-8.22a8.185 8.185 0 0 1 1.41-1.35Zm0 13.2a8.182 8.182 0 0 1-1.41-1.35h8.22a8.182 8.182 0 0 1-1.41 1.35L39 37.875l-2.7-2.025Zm-.658 6.9A6.723 6.723 0 0 1 37.2 41.1l1.8-1.35 1.8 1.35a6.725 6.725 0 0 1 1.558 1.65h-6.716Z"/></symbol><symbol viewBox="0 0 48 48" id="goals-4" xmlns="http://www.w3.org/2000/svg"><path d="M45.75 27a.75.75 0 0 0 .75-.75v-12a.75.75 0 0 0-.75-.75h-7.5a.75.75 0 0 0 0 1.5H45v10.5H30V15h5.25a.75.75 0 1 0 0-1.5h-6a.75.75 0 0 0-.75.75v12a.75.75 0 0 0 .75.75h5.25v3h-7.556c.034-.518.056-1.02.056-1.5 0-7.99-3.624-14.25-8.25-14.25h-9c-2.276 0-4.386 1.53-5.941 4.306a.75.75 0 1 0 1.308.733c1.278-2.282 2.924-3.539 4.633-3.539h5.275C12.322 18.065 10.5 22.841 10.5 28.5c0 2.025.261 4.042.778 6H4.5a3.038 3.038 0 0 0-.637.072A21.56 21.56 0 0 1 3 28.5c-.015-2.235.322-4.46.998-6.59a.75.75 0 1 0-1.425-.47 23.592 23.592 0 0 0-.07 13.838A2.985 2.985 0 0 0 1.5 37.5v8.25a.75.75 0 0 0 .75.75h3a.75.75 0 1 0 0-1.5H3v-7.5A1.5 1.5 0 0 1 4.5 36H15a1.5 1.5 0 0 1 1.5 1.5V45H8.25a.75.75 0 0 0 0 1.5h15a.75.75 0 0 0 .75-.75v-6.21A14.706 14.706 0 0 0 25.771 36h2.354L30 38.5v4.073l-1.425 2.842a.75.75 0 0 0 .675 1.085H42a.75.75 0 0 0 .6-1.2l-2.1-2.8v-4.073L41.714 36h1.036a.75.75 0 1 0 0-1.5H15.965a16.241 16.241 0 0 1-.742-3H45v3.75a.75.75 0 1 0 1.5 0v-4.5a.75.75 0 0 0-.75-.75H40.5v-3h5.25ZM12 28.5c0-6.911 3.091-12.75 6.75-12.75s6.75 5.84 6.75 12.75c0 .476-.024.975-.06 1.5h-4.515a3.757 3.757 0 0 0-3.675-3h-2.19c.382-5.164 2.64-8.25 3.69-8.25.991 0 3.525 3.163 3.73 9.026a.75.75 0 0 0 1.5-.052c-.215-6.172-2.929-10.474-5.23-10.474-2.475 0-5.25 4.811-5.25 11.25a19.669 19.669 0 0 0 .884 6h-1.552a21.785 21.785 0 0 1-.832-6Zm5.583 7.5h3.3c-.835 1.61-1.711 2.25-2.13 2.25a1.366 1.366 0 0 1-.75-.38v-.37a2.97 2.97 0 0 0-.42-1.5ZM18 45v-2.317c.248.041.499.064.75.067a5.681 5.681 0 0 0 3.75-1.514V45H18Zm.75-3.75a3.509 3.509 0 0 1-.75-.091V39.59c.238.098.492.152.75.16 1.334 0 2.758-1.43 3.789-3.75h1.633c-1.279 3.262-3.303 5.25-5.422 5.25ZM39 39v3h-1.5v-3H39Zm-3 3h-1.5v-3H36v3Zm-3 0h-1.5v-3H33v3Zm-2.537 3 .75-1.5h8.162L40.5 45H30.463Zm9.573-9-.75 1.5h-8.161L30 36h10.036ZM15 28.5h2.25a2.25 2.25 0 0 1 2.112 1.5H15.06a20.18 20.18 0 0 1-.06-1.5ZM39 30h-3v-3h3v3Z"/><path d="M36 17.25a.75.75 0 0 0-.75-.75h-3a.75.75 0 0 0-.75.75v3a.75.75 0 0 0 .75.75h3a.75.75 0 0 0 .75-.75v-3Zm-1.5 2.25H33V18h1.5v1.5Zm8.25-1.5a.75.75 0 1 0 0-1.5h-3a.75.75 0 0 0 0 1.5h3Zm-5.25 2.25a.75.75 0 0 0 .75.75h5.25a.75.75 0 1 0 0-1.5h-5.25a.75.75 0 0 0-.75.75Zm3.75 2.25a.75.75 0 0 0 0 1.5h1.5a.75.75 0 1 0 0-1.5h-1.5Zm-6 0h-3a.75.75 0 0 0 0 1.5h3a.75.75 0 1 0 0-1.5Zm3 1.5a.75.75 0 1 0 0-1.5.75.75 0 0 0 0 1.5ZM13.5 39.75a.75.75 0 1 0 0-1.5H6a.75.75 0 0 0 0 1.5h7.5Zm-9 3a.75.75 0 0 0 .75.75h8.25a.75.75 0 1 0 0-1.5H5.25a.75.75 0 0 0-.75.75Zm.75-10.5h3a.75.75 0 1 0 0-1.5h-3a.75.75 0 0 0 0 1.5ZM4.5 28.5a.75.75 0 0 0 .75.75h3a.75.75 0 1 0 0-1.5h-3a.75.75 0 0 0-.75.75Zm.75-5.25a2.25 2.25 0 1 0 4.5 0 2.25 2.25 0 0 0-4.5 0Zm3 0a.75.75 0 1 1-1.5 0 .75.75 0 0 1 1.5 0Zm2.25-3.75a.75.75 0 1 0 0-1.5H8.25a.75.75 0 0 0 0 1.5h2.25Z"/></symbol><symbol viewBox="0 0 48 48" id="goals-5" xmlns="http://www.w3.org/2000/svg"><g clip-path="url(#ha)"><path d="M47.295 44.292h-3.237V31.11a.704.704 0 1 0-1.41 0v13.183h-5.486v-23.19c0-.13.105-.235.235-.235h5.017c.13 0 .235.106.235.235v7.188a.704.704 0 1 0 1.409 0v-7.188c0-.906-.738-1.644-1.644-1.644h-5.017c-.907 0-1.644.738-1.644 1.644v23.19h-2.299V26.23c0-.906-.737-1.644-1.644-1.644h-5.017c-.906 0-1.644.738-1.644 1.644v18.063h-2.298V31.357c0-.906-.738-1.643-1.644-1.643H16.19c-.907 0-1.644.737-1.644 1.643v6.16a.704.704 0 1 0 1.409 0v-6.16c0-.13.105-.235.235-.235h5.017c.13 0 .235.106.235.235v12.935h-5.487v-3.956a.704.704 0 1 0-1.41 0v3.956h-2.298v-7.808c0-.906-.737-1.643-1.644-1.643H5.586c-.906 0-1.644.737-1.644 1.643v7.808H.705a.705.705 0 0 0 0 1.41h46.59a.704.704 0 1 0 0-1.41ZM26.558 26.23c0-.13.106-.235.235-.235h5.017c.13 0 .235.106.235.235v18.063h-5.487V26.23ZM5.351 36.484c0-.129.106-.234.235-.234h5.017c.13 0 .235.105.235.234v7.808H5.351v-7.808ZM7.523 26.43c.039 0 .078-.001.117-.004 5.195-.36 10.081-1.495 14.521-3.37 5.98-2.525 10.93-6.332 14.722-11.32l2.375 1.651c.468.349 1.18-.07 1.103-.649l-.984-9.803a.709.709 0 0 0-.879-.612l-9.541 2.485c-.57.129-.715.943-.225 1.26l2.396 1.667c-.477.749-1.527 2.234-3.358 4.05a.705.705 0 0 0 .992 1c2.823-2.8 3.89-4.848 3.933-4.933a.705.705 0 0 0-.224-.9l-1.677-1.166 7.263-1.892.75 7.463-1.679-1.167a.704.704 0 0 0-.97.163c-3.692 5.05-8.585 8.888-14.545 11.405-5.352 2.26-10.606 3.022-14.07 3.262-.203.052-.265-.32-.063-.341 7.719-2.382 14.165-5.73 19.16-9.953a.704.704 0 1 0-.91-1.076c-4.849 4.099-11.129 7.357-18.665 9.683-.783.241-1.242 1-1.092 1.804a1.562 1.562 0 0 0 1.55 1.293Z"/></g><defs><clipPath id="ha"><path d="M0 0h48v48H0z"/></clipPath></defs></symbol><symbol viewBox="0 0 48 50" id="goals-6" xmlns="http://www.w3.org/2000/svg"><path d="M46.936 6.316a3.442 3.442 0 0 0-2.55-1.021c-1.648.046-3.028 1.311-3.347 2.946-1.638.307-2.883 1.781-2.883 3.55v9.15c0 .399.315.722.703.722a.713.713 0 0 0 .703-.722v-9.15c0-.941.588-1.744 1.407-2.042v14.08c-1.376-1.052-3.377-.915-4.637.378l-9.775 10.036a6.543 6.543 0 0 0-1.854 4.595v9.722c0 .399.315.722.703.722h15.797a.696.696 0 0 0 .54-.26.736.736 0 0 0 .152-.59l-.89-5.026 6.393-10.84a5.179 5.179 0 0 0 .602-2.42V8.904c0-.983-.378-1.902-1.064-2.587Zm-.342 23.831a3.7 3.7 0 0 1-.409 1.689l-6.52 11.056a.738.738 0 0 0-.091.503l.787 4.443H26.109v-9c0-1.35.512-2.62 1.442-3.574l9.776-10.036a2.07 2.07 0 0 1 2.983 0 2.207 2.207 0 0 1 0 3.062l-9.776 10.037a.736.736 0 0 0 0 1.021.69.69 0 0 0 .994 0l9.817-10.08a3.63 3.63 0 0 0 1.03-2.564V8.963c0-1.195.92-2.193 2.05-2.225a2.062 2.062 0 0 1 1.53.612c.412.412.639.963.639 1.553v21.244Zm-25.15 4.096-9.776-10.036c-1.26-1.294-3.261-1.43-4.637-.378V9.75a2.166 2.166 0 0 1 1.407 2.041v9.151c0 .399.314.722.703.722a.713.713 0 0 0 .703-.722v-9.15c0-1.769-1.245-3.243-2.883-3.55-.32-1.635-1.699-2.9-3.347-2.946a3.442 3.442 0 0 0-2.55 1.02A3.629 3.629 0 0 0 0 8.904v21.244a5.18 5.18 0 0 0 .602 2.42l6.393 10.839-.89 5.025a.735.735 0 0 0 .152.592.697.697 0 0 0 .54.259h15.797a.713.713 0 0 0 .703-.722v-9.723a6.543 6.543 0 0 0-1.854-4.594Zm.447 13.595H7.639l.787-4.443a.738.738 0 0 0-.09-.503L1.815 31.836a3.7 3.7 0 0 1-.409-1.689V8.903c0-.59.227-1.141.639-1.553.411-.41.955-.629 1.53-.612 1.13.032 2.05 1.03 2.05 2.225v17.74a3.63 3.63 0 0 0 1.03 2.566l9.816 10.08a.69.69 0 0 0 .995 0 .736.736 0 0 0 0-1.022L7.69 28.29a2.207 2.207 0 0 1 0-3.062 2.07 2.07 0 0 1 2.984 0l9.775 10.036a5.089 5.089 0 0 1 1.442 3.574v9ZM24 10.924c-1.163 0-2.11.972-2.11 2.166s.947 2.166 2.11 2.166c1.163 0 2.11-.972 2.11-2.166s-.947-2.166-2.11-2.166Zm0 2.888a.713.713 0 0 1-.703-.722c0-.398.315-.722.703-.722.388 0 .703.324.703.722a.713.713 0 0 1-.703.722Z"/><path d="m26.623 25.518.674-2.14c.499-.168.986-.376 1.456-.62l1.951 1.024a.688.688 0 0 0 .731-.056 12.979 12.979 0 0 0 2.924-3.002.738.738 0 0 0 .055-.75l-.998-2.003c.238-.483.44-.983.604-1.496l2.084-.692a.716.716 0 0 0 .478-.57 13.557 13.557 0 0 0 0-4.245.717.717 0 0 0-.478-.571l-2.084-.692a10.97 10.97 0 0 0-.604-1.495l.998-2.004a.738.738 0 0 0-.056-.75 12.979 12.979 0 0 0-2.923-3.002.688.688 0 0 0-.73-.056l-1.952 1.024c-.47-.244-.957-.452-1.456-.62l-.674-2.14a.709.709 0 0 0-.556-.49 12.55 12.55 0 0 0-4.134 0 .709.709 0 0 0-.556.49l-.674 2.14a10.37 10.37 0 0 0-1.456.62l-1.952-1.024a.688.688 0 0 0-.73.056 12.999 12.999 0 0 0-2.924 3.002.738.738 0 0 0-.055.75l.997 2.003c-.237.483-.44.983-.604 1.496l-2.084.692a.716.716 0 0 0-.477.57 13.569 13.569 0 0 0 0 4.245.717.717 0 0 0 .477.571l2.084.692c.165.513.367 1.013.604 1.495l-.997 2.004a.738.738 0 0 0 .055.75 12.995 12.995 0 0 0 2.923 3.002c.215.157.497.18.731.056l1.951-1.024c.47.244.958.451 1.457.62l.674 2.14a.71.71 0 0 0 .556.49 12.552 12.552 0 0 0 4.134 0 .708.708 0 0 0 .556-.49Zm-4.043-.872-.652-2.069a.712.712 0 0 0-.473-.471 8.968 8.968 0 0 1-1.864-.793.686.686 0 0 0-.66-.01l-1.886.99a11.538 11.538 0 0 1-2.008-2.063l.965-1.936a.74.74 0 0 0-.01-.678 9.478 9.478 0 0 1-.773-1.913.713.713 0 0 0-.46-.486l-2.014-.669a12.093 12.093 0 0 1 0-2.916l2.015-.669a.714.714 0 0 0 .459-.486 9.482 9.482 0 0 1 .772-1.913.739.739 0 0 0 .01-.678l-.964-1.936a11.66 11.66 0 0 1 2.008-2.062l1.887.99c.208.11.455.105.66-.01a8.971 8.971 0 0 1 1.863-.794.712.712 0 0 0 .473-.471l.652-2.069a11.144 11.144 0 0 1 2.84 0l.651 2.069c.072.228.25.404.474.471a8.971 8.971 0 0 1 1.863.793c.205.116.452.12.66.01l1.886-.989a11.548 11.548 0 0 1 2.008 2.062l-.964 1.936a.738.738 0 0 0 .01.678c.326.606.586 1.25.773 1.913.065.23.237.412.46.486l2.014.67a12.093 12.093 0 0 1 0 2.915l-2.015.669a.714.714 0 0 0-.459.486 9.489 9.489 0 0 1-.772 1.913.739.739 0 0 0-.01.678l.963 1.936a11.668 11.668 0 0 1-2.008 2.062l-1.886-.99a.687.687 0 0 0-.66.01 8.957 8.957 0 0 1-1.863.794.712.712 0 0 0-.474.471l-.651 2.069c-.943.12-1.897.12-2.84 0Z"/><path d="M21.684 9.692a.694.694 0 0 0 .8.14 3.465 3.465 0 0 1 3.031 0 .69.69 0 0 0 .8-.14l2.06-2.115a.734.734 0 0 0-.109-1.112 7.543 7.543 0 0 0-8.531 0 .734.734 0 0 0-.109 1.112l2.058 2.115Zm5.045-2.467L25.653 8.33a4.77 4.77 0 0 0-3.306 0l-1.075-1.104a6.155 6.155 0 0 1 5.457 0Zm-5.901 7.421a3.731 3.731 0 0 1 0-3.112.736.736 0 0 0-.137-.822L18.631 8.6a.693.693 0 0 0-1.083.112 8.093 8.093 0 0 0-.001 8.76.7.7 0 0 0 .586.322.694.694 0 0 0 .497-.211l2.06-2.115a.736.736 0 0 0 .137-.821Zm-1.464.142-1.076 1.104a6.626 6.626 0 0 1 .001-5.603l1.075 1.104a5.15 5.15 0 0 0 0 3.395Zm7.808-3.254a3.731 3.731 0 0 1 0 3.112.736.736 0 0 0 .137.821l2.059 2.114a.694.694 0 0 0 1.083-.112 8.093 8.093 0 0 0 .001-8.76.7.7 0 0 0-.515-.319.695.695 0 0 0-.568.208l-2.06 2.115a.736.736 0 0 0-.137.821Zm1.464-.142 1.076-1.104a6.626 6.626 0 0 1-.001 5.603l-1.075-1.104a5.15 5.15 0 0 0 0-3.395Zm-.06 7.792a.734.734 0 0 0-.202-.582l-2.059-2.114a.69.69 0 0 0-.8-.14 3.465 3.465 0 0 1-3.03 0 .689.689 0 0 0-.8.14l-2.06 2.115a.733.733 0 0 0 .109 1.112 7.567 7.567 0 0 0 4.264 1.322c1.485 0 2.97-.441 4.267-1.323a.725.725 0 0 0 .311-.53Zm-7.305-.229 1.075-1.105a4.772 4.772 0 0 0 3.307 0l1.075 1.104a6.155 6.155 0 0 1-5.457.001Z"/></symbol><symbol viewBox="0 0 24 24" id="instagram" xmlns="http://www.w3.org/2000/svg"><path d="M11.999 7.377a4.624 4.624 0 1 0 0 9.248 4.624 4.624 0 0 0 0-9.248Zm0 7.627a3.004 3.004 0 1 1 0-6.008 3.004 3.004 0 0 1 0 6.008Zm4.807-6.719a1.078 1.078 0 1 0 0-2.156 1.078 1.078 0 0 0 0 2.156Z"/><path d="M20.533 6.11A4.605 4.605 0 0 0 17.9 3.48a6.607 6.607 0 0 0-2.186-.42c-.963-.042-1.268-.054-3.71-.054s-2.755 0-3.71.054a6.554 6.554 0 0 0-2.184.42 4.6 4.6 0 0 0-2.633 2.63 6.585 6.585 0 0 0-.419 2.186c-.043.962-.056 1.267-.056 3.71 0 2.442 0 2.753.056 3.71.015.748.156 1.486.419 2.187a4.61 4.61 0 0 0 2.634 2.632 6.583 6.583 0 0 0 2.185.45c.963.042 1.268.055 3.71.055s2.755 0 3.71-.055a6.616 6.616 0 0 0 2.186-.42 4.613 4.613 0 0 0 2.633-2.632c.263-.7.404-1.438.419-2.186.043-.962.056-1.267.056-3.71s0-2.753-.056-3.71a6.583 6.583 0 0 0-.421-2.217Zm-1.218 9.533a5.046 5.046 0 0 1-.311 1.688 2.987 2.987 0 0 1-1.712 1.71c-.535.2-1.1.305-1.67.312-.95.044-1.218.055-3.654.055-2.438 0-2.687 0-3.655-.055a4.961 4.961 0 0 1-1.67-.311 2.984 2.984 0 0 1-1.718-1.711 5.08 5.08 0 0 1-.311-1.67c-.043-.95-.053-1.217-.053-3.653 0-2.437 0-2.686.053-3.655a5.038 5.038 0 0 1 .311-1.687c.305-.79.93-1.41 1.719-1.712a5.01 5.01 0 0 1 1.669-.311c.95-.043 1.218-.055 3.655-.055s2.687 0 3.654.055a4.96 4.96 0 0 1 1.67.31 2.99 2.99 0 0 1 1.712 1.713 5.06 5.06 0 0 1 .311 1.669c.043.95.054 1.218.054 3.655 0 2.436 0 2.698-.043 3.654h-.011v-.001Z"/></symbol><symbol viewBox="0 0 65 65" id="sPress-1" xmlns="http://www.w3.org/2000/svg"><g clip-path="url(#ka)"><path d="M49.166 4.25V.5h-49v54.625c0 5.17 4.206 9.375 9.375 9.375h45.25c5.17 0 9.376-4.206 9.376-9.375V4.25h-15ZM9.542 60.75a5.631 5.631 0 0 1-5.625-5.625V4.25h41.5v50.875c0 2.109.7 4.057 1.879 5.625H9.54Zm50.874-5.625a5.631 5.631 0 0 1-5.624 5.625 5.631 5.631 0 0 1-5.626-5.625V8h3.75v47.125h3.75V8h3.75v47.125Z"/><path d="M7.667 8v11.25h34V8h-34Zm30.25 7.5h-26.5v-3.75h26.5v3.75Zm3.749 7.5h-34v3.75h34V23ZM22.791 34.25H7.666V38h15.125v-3.75Zm18.875 0H26.542V38h15.124v-3.75Zm-18.875 7.5H7.666v3.75h15.125v-3.75Zm18.875 0H26.542v3.75h15.124v-3.75Zm-18.875 7.5H7.666V53h15.125v-3.75Zm18.875 0H26.542V53h15.124v-3.75Z"/></g><defs><clipPath id="ka"><path transform="translate(.167 .5)" d="M0 0h64v64H0z"/></clipPath></defs></symbol><symbol viewBox="0 0 65 65" id="sPress-2" xmlns="http://www.w3.org/2000/svg"><g clip-path="url(#la)"><path d="M60 21a10.5 10.5 0 1 0-10.5 10.5A10.512 10.512 0 0 0 60 21Zm-10.5 6.5A6.5 6.5 0 1 1 56 21a6.507 6.507 0 0 1-6.5 6.5Z"/><path d="M59.5 31.5H42.844l-11.835-4.748c-4.22-1.825-7.636 4.348-3.868 6.965L39.118 42.5H6.5v-38h43v2a2 2 0 0 0 4 0v-2a2 2 0 1 0 0-4h-51a2 2 0 1 0 0 4v40a2 2 0 0 0 2 2h22v2.35a6 6 0 1 0 4 0V46.5h10v16a2 2 0 0 0 2 2h14a2 2 0 0 0 2-2v-10h1a5.006 5.006 0 0 0 5-5v-11a5.006 5.006 0 0 0-5-5Zm-31 25a2 2 0 1 1 0-4 2 2 0 0 1 0 4Zm32-9a1.001 1.001 0 0 1-1 1h-8.985l6.83-3.188a2 2 0 0 0-1.69-3.624l-8.057 3.76a3.7 3.7 0 0 0 1.565 7.052H54.5v8h-10v-18a2 2 0 0 0-.817-1.613L29.52 30.465l12.193 4.891c.237.095.49.144.745.144H59.5a1.001 1.001 0 0 1 1 1v11Z"/><path d="M12.5 38.5a2 2 0 1 0 0-4 2 2 0 0 0 0 4Zm12-17a2 2 0 0 0-2-2h-10a2 2 0 0 0 0 4h10a2 2 0 0 0 2-2Zm10-8a2 2 0 0 0-2-2h-20a2 2 0 0 0 0 4h20a2 2 0 0 0 2-2Z"/></g><defs><clipPath id="la"><path transform="translate(.5 .5)" d="M0 0h64v64H0z"/></clipPath></defs></symbol><symbol viewBox="0 0 65 65" id="sPress-3" xmlns="http://www.w3.org/2000/svg"><path fill-rule="evenodd" clip-rule="evenodd" d="M15.833 27.097a1.875 1.875 0 0 0 1.879-.007l12.05-7.029a1.875 1.875 0 0 0 0-3.239l-12.05-7.03a1.875 1.875 0 0 0-2.82 1.62v14.059c0 .671.359 1.291.941 1.626Zm2.809-4.89v-7.53l6.454 3.765-6.454 3.764Z"/><path fill-rule="evenodd" clip-rule="evenodd" d="M.833 34.508c0 1.036.84 1.875 1.875 1.875h38.159c1.035 0 1.875-.84 1.875-1.875V2.375c0-1.036-.84-1.875-1.875-1.875H2.709C1.673.5.833 1.34.833 2.375v32.133Zm3.75-1.875V4.25h34.409v28.383H4.584Z"/><path fill-rule="evenodd" clip-rule="evenodd" d="M30.959 62.625c0 1.035.839 1.875 1.875 1.875h30.124c1.036 0 1.876-.84 1.876-1.875V30.492c0-1.036-.84-1.875-1.876-1.875H40.867c-1.036 0-1.875.84-1.875 1.875v2.141h-6.158c-1.036 0-1.876.84-1.876 1.875v28.117Zm3.75-1.875V36.383h6.158c1.035 0 1.875-.84 1.875-1.875v-2.141h18.342V60.75H34.707Z"/><path fill-rule="evenodd" clip-rule="evenodd" d="M4.85 58.608c0 1.036.84 1.875 1.875 1.875h26.108c1.036 0 1.876-.84 1.876-1.875v-8.033c0-.497-.198-.974-.55-1.326l-8.033-8.033a1.875 1.875 0 0 0-2.652 0l-6.707 6.707-2.691-2.69a1.875 1.875 0 0 0-2.652 0L5.4 51.258a1.875 1.875 0 0 0-.549 1.325v6.025Zm3.75-1.875V53.36l4.15-4.15 2.69 2.69c.733.733 1.92.733 2.653 0l6.707-6.707 6.159 6.159v5.381H8.6Z"/><path fill-rule="evenodd" clip-rule="evenodd" d="M4.85 58.608c0 1.036.84 1.875 1.875 1.875h26.108c1.036 0 1.876-.84 1.876-1.875v-24.1c0-1.035-.84-1.875-1.876-1.875H6.726c-1.035 0-1.875.84-1.875 1.875v24.1Zm3.75-1.875v-20.35h22.36v20.35H8.6Zm30.392-6.158a5.893 5.893 0 0 0 5.892 5.892 5.893 5.893 0 0 0 5.891-5.892 5.893 5.893 0 0 0-5.891-5.892 5.893 5.893 0 0 0-5.892 5.892Zm5.892 2.142a2.143 2.143 0 0 1-2.142-2.142c0-1.182.96-2.142 2.142-2.142a2.143 2.143 0 0 1 0 4.283Z"/><path fill-rule="evenodd" clip-rule="evenodd" d="M48.9 52.45c1.036 0 1.875-.84 1.875-1.875V40.4h4.15a1.875 1.875 0 0 0 0-3.75H48.9c-1.035 0-1.875.84-1.875 1.875v12.05c0 1.035.84 1.875 1.875 1.875Zm-9.908-21.958c0 1.035.84 1.875 1.875 1.875h18.075c1.035 0 1.875-.84 1.875-1.875v-24.1c0-1.036-.84-1.875-1.875-1.875H40.867c-1.036 0-1.875.84-1.875 1.875v24.1Zm3.75-1.875V8.267h14.325v20.35H42.742Z"/><path fill-rule="evenodd" clip-rule="evenodd" d="M38.992 14.425c0 1.036.84 1.875 1.875 1.875h10.042a1.875 1.875 0 0 0 0-3.75H40.867c-1.036 0-1.875.84-1.875 1.875Zm0 8.033c0 1.036.84 1.875 1.875 1.875h10.042a1.875 1.875 0 0 0 0-3.75H40.867c-1.036 0-1.875.84-1.875 1.875Z"/></symbol><symbol viewBox="0 0 16 16" id="telegram" xmlns="http://www.w3.org/2000/svg"><path d="m14.629 3.698-2.012 9.618c-.152.679-.548.848-1.11.528l-3.066-2.29-1.48 1.442c-.163.166-.3.305-.616.305l.22-3.165 5.683-5.204c.247-.223-.054-.347-.384-.123L4.839 9.29l-3.024-.959c-.658-.208-.67-.667.137-.986L13.78 2.727c.548-.208 1.027.124.849.971Z"/></symbol><symbol viewBox="0 0 16 16" id="viber" xmlns="http://www.w3.org/2000/svg"><path d="M8 1.335c-1.071.013-3.374.19-4.662 1.37-.958.948-1.292 2.35-1.331 4.084-.033 1.728-.072 4.973 3.058 5.856v1.346s-.02.538.337.648c.438.14.688-.275 1.105-.72l.778-.879c2.142.178 3.782-.232 3.97-.293.435-.139 2.883-.451 3.283-3.696.41-3.351-.2-5.463-1.301-6.418h-.007c-.332-.306-1.668-1.279-4.652-1.29 0 0-.222-.014-.578-.008Zm.037.942a7.02 7.02 0 0 1 .488.011c2.527.007 3.732.767 4.017 1.023.927.794 1.405 2.697 1.055 5.495-.332 2.713-2.317 2.885-2.685 3.002-.156.05-1.6.406-3.42.289 0 0-1.356 1.634-1.78 2.055-.067.074-.146.095-.196.085-.071-.018-.093-.107-.089-.229l.013-2.233c-2.655-.733-2.498-3.5-2.47-4.946.033-1.446.304-2.628 1.113-3.43 1.088-.982 3.043-1.115 3.953-1.122Zm.2 1.446a.166.166 0 1 0 0 .332 3.136 3.136 0 0 1 2.242.883c.606.588.9 1.378.912 2.411 0 .092.074.167.167.167V7.51a.167.167 0 0 0 .168-.165 3.588 3.588 0 0 0-1.009-2.646c-.66-.645-1.496-.977-2.48-.977Zm-2.198.382a.523.523 0 0 0-.342.067H5.69a2.61 2.61 0 0 0-.637.523 1.003 1.003 0 0 0-.256.525.71.71 0 0 0 .026.302l.01.006c.172.504.396.988.67 1.444a8.48 8.48 0 0 0 1.29 1.762l.015.022.024.017.015.018.017.015c.532.505 1.127.94 1.769 1.295.734.4 1.18.588 1.447.667v.004c.078.024.15.034.221.034.228-.016.444-.109.613-.262a2.53 2.53 0 0 0 .517-.638v-.004c.128-.241.085-.469-.1-.623-.37-.323-.77-.61-1.195-.857-.285-.155-.574-.061-.69.095l-.25.315c-.129.156-.361.134-.361.134l-.007.004C7.093 8.527 6.63 6.772 6.63 6.772s-.022-.239.139-.36l.312-.252c.15-.122.254-.41.094-.695a7.498 7.498 0 0 0-.856-1.194.475.475 0 0 0-.28-.167Zm2.486.495c-.221 0-.221.334.003.334A2.098 2.098 0 0 1 10 5.572 1.94 1.94 0 0 1 10.5 7a.168.168 0 0 0 .167.165l.007.009a.169.169 0 0 0 .167-.167c.015-.662-.191-1.218-.595-1.663C9.84 4.9 9.273 4.65 8.549 4.6h-.024Zm.274.898c-.228-.006-.236.335-.01.341.55.029.816.306.851.877a.166.166 0 0 0 .165.163h.007a.168.168 0 0 0 .16-.178c-.039-.744-.445-1.164-1.166-1.202H8.8Z"/></symbol><symbol viewBox="0 0 24 24" id="vk" xmlns="http://www.w3.org/2000/svg"><path d="M21.579 6.855c.14-.465 0-.806-.662-.806h-2.193c-.558 0-.813.295-.953.619 0 0-1.115 2.719-2.695 4.482-.51.513-.743.675-1.021.675-.139 0-.341-.162-.341-.627V6.855c0-.558-.161-.806-.626-.806H9.642c-.348 0-.558.258-.558.504 0 .528.79.65.871 2.138v3.228c0 .707-.127.836-.407.836-.743 0-2.551-2.73-3.624-5.853-.209-.607-.42-.852-.98-.852H2.752c-.627 0-.752.295-.752.619 0 .582.743 3.462 3.461 7.27 1.812 2.602 4.363 4.012 6.687 4.012 1.393 0 1.565-.313 1.565-.853v-1.966c0-.626.133-.752.574-.752.324 0 .882.164 2.183 1.417 1.486 1.486 1.732 2.153 2.567 2.153h2.192c.626 0 .939-.313.759-.931-.197-.615-.907-1.51-1.849-2.57-.512-.603-1.277-1.253-1.51-1.578-.325-.42-.231-.604 0-.976.001 0 2.672-3.761 2.95-5.04Z"/></symbol><symbol viewBox="0 0 16 16" id="whatsapp" xmlns="http://www.w3.org/2000/svg"><path fill-rule="evenodd" clip-rule="evenodd" d="M12.269 3.755A5.947 5.947 0 0 0 8.035 2 5.994 5.994 0 0 0 2.05 7.985a5.98 5.98 0 0 0 .799 2.992L2 14.077l3.173-.832c.877.477 1.86.728 2.86.728h.002a5.993 5.993 0 0 0 5.533-8.276 5.953 5.953 0 0 0-1.3-1.942Zm-4.234 9.208h-.002c-.89 0-1.765-.24-2.532-.694l-.181-.108-1.883.494.502-1.835-.118-.188a4.965 4.965 0 0 1-.76-2.647 4.982 4.982 0 0 1 6.88-4.597c.604.25 1.152.618 1.613 1.081a4.946 4.946 0 0 1 1.455 3.52 4.982 4.982 0 0 1-4.974 4.974Zm2.729-3.726c-.15-.075-.885-.436-1.022-.486-.137-.05-.236-.075-.336.074-.1.15-.387.486-.474.586-.087.1-.175.112-.324.038-.15-.075-.631-.233-1.203-.742a4.505 4.505 0 0 1-.832-1.036c-.087-.15-.009-.231.066-.306.068-.066.15-.174.224-.262.075-.087.1-.149.15-.249.05-.1.025-.187-.013-.262-.037-.075-.337-.811-.461-1.11-.121-.29-.244-.252-.336-.256a6.418 6.418 0 0 0-.286-.005.55.55 0 0 0-.4.186c-.137.15-.523.512-.523 1.248s.536 1.447.61 1.547c.075.1 1.055 1.61 2.555 2.258.358.154.636.246.853.315.358.114.684.098.942.06.287-.043.885-.362 1.01-.711.124-.35.124-.649.087-.711-.038-.063-.138-.101-.287-.176Z"/></symbol></svg>