<svg width="16" height="16" viewBox="0 0 16 16" fill="none" xmlns="http://www.w3.org/2000/svg">
<path fill-rule="evenodd" clip-rule="evenodd" d="M5.33337 0.666668C5.70156 0.666668 6.00004 0.965145 6.00004 1.33333V2H10V1.33333C10 0.965145 10.2985 0.666668 10.6667 0.666668C11.0349 0.666668 11.3334 0.965145 11.3334 1.33333V2H12.6667C13.7713 2 14.6667 2.89543 14.6667 4V13.3333C14.6667 14.4379 13.7713 15.3333 12.6667 15.3333H3.33337C2.2288 15.3333 1.33337 14.4379 1.33337 13.3333V4C1.33337 2.89543 2.2288 2 3.33337 2H4.66671V1.33333C4.66671 0.965145 4.96518 0.666668 5.33337 0.666668ZM4.66671 3.33333H3.33337C2.96518 3.33333 2.66671 3.63181 2.66671 4V6H13.3334V4C13.3334 3.63181 13.0349 3.33333 12.6667 3.33333H11.3334V4C11.3334 4.36819 11.0349 4.66667 10.6667 4.66667C10.2985 4.66667 10 4.36819 10 4V3.33333H6.00004V4C6.00004 4.36819 5.70156 4.66667 5.33337 4.66667C4.96518 4.66667 4.66671 4.36819 4.66671 4V3.33333ZM13.3334 7.33333H2.66671V13.3333C2.66671 13.7015 2.96518 14 3.33337 14H12.6667C13.0349 14 13.3334 13.7015 13.3334 13.3333V7.33333Z" fill="black"/>
</svg>
