<svg width="65" height="64" viewBox="0 0 65 64" fill="none" xmlns="http://www.w3.org/2000/svg">
<path d="M6.29787 0V8.46513H3V12.2079H6.29787V19.2969H3V23.0396H6.29787V30.1286H3V33.8714H6.29787V40.9604H3V44.7031H6.29787V51.7921H3V55.5349H6.29787V64H62V0H6.29787ZM58.25 60.2573H10.0479V55.5348H13.3456V51.792H10.0479V44.703H13.3456V40.9603H10.0479V33.8713H13.3456V30.1285H10.0479V23.0395H13.3456V19.2967H10.0479V12.2079H13.3456V8.46513H10.0479V3.74262H58.25V60.2573Z" fill="#0149D6"/>
<path d="M39.1504 14.601H51.3109V18.3437H39.1504V14.601Z" fill="#0149D6"/>
<path d="M39.1504 30.1394H51.3109V33.8821H39.1504V30.1394Z" fill="#0149D6"/>
<path d="M39.1504 46.9039H51.3109V50.6466H39.1504V46.9039Z" fill="#0149D6"/>
<path d="M33.4027 12.977L30.751 10.3305L24.6863 16.3835L21.8793 13.582L19.2275 16.2284L24.6863 21.6764L33.4027 12.977Z" fill="#0149D6"/>
<path d="M33.4027 28.7453L30.751 26.0988L24.6863 32.1518L21.8793 29.3503L19.2275 31.9968L24.6863 37.4446L33.4027 28.7453Z" fill="#0149D6"/>
<path d="M33.4027 44.5135L30.751 41.8671L24.6863 47.92L21.8792 45.1185L19.2275 47.765L24.6863 53.2129L33.4027 44.5135Z" fill="#0149D6"/>
</svg>
