<svg width="65" height="64" viewBox="0 0 65 64" fill="none" xmlns="http://www.w3.org/2000/svg">
<g clip-path="url(#clip0_850_5584)">
<path d="M32.4997 21.3333C26.6181 21.3333 21.833 26.1171 21.833 32C21.833 37.8829 26.6181 42.6667 32.4997 42.6667C38.3813 42.6667 43.1663 37.8829 43.1663 32C43.1663 29.1563 42.0557 26.4765 40.0386 24.4611C38.0218 22.4427 35.3447 21.3333 32.4997 21.3333ZM32.4997 37.3333C29.5583 37.3333 27.1663 34.94 27.1663 32C27.1663 29.06 29.5583 26.6667 32.4997 26.6667C33.9202 26.6667 35.2589 27.2213 36.2679 28.2317C37.277 29.2421 37.833 30.5808 37.833 32C37.833 34.94 35.441 37.3333 32.4997 37.3333Z" fill="#0149D6"/>
<path d="M56.912 52.6421C61.636 47.0645 64.5 39.8648 64.5 32C64.5 24.1352 61.636 16.9355 56.912 11.3579L59.8424 8.4272C60.3632 7.9064 60.3632 7.0624 59.8424 6.5416L57.9571 4.65653C57.4363 4.13573 56.5923 4.13573 56.0712 4.65653L53.1408 7.5872C47.5635 2.86373 40.364 0 32.5 0C24.636 0 17.4365 2.86373 11.8589 7.5872L8.92853 4.65653C8.40773 4.13573 7.56347 4.13573 7.04267 4.65653L5.15733 6.5416C4.63653 7.0624 4.63653 7.9064 5.15733 8.4272L8.08773 11.3579C3.364 16.9355 0.5 24.1352 0.5 32C0.5 39.8648 3.364 47.0645 8.088 52.6421L5.1576 55.5728C4.6368 56.0936 4.6368 56.9376 5.1576 57.4584L7.04293 59.3437C7.56373 59.8645 8.40773 59.8645 8.9288 59.3437L11.8592 56.4131C17.4365 61.1363 24.636 64 32.5 64C40.364 64 47.5635 61.1363 53.1411 56.4128L56.0715 59.3435C56.5923 59.8643 57.4365 59.8643 57.9573 59.3435L59.8427 57.4581C60.3635 56.9373 60.3635 56.0933 59.8427 55.5725L56.912 52.6421ZM32.5 58.6667C26.1064 58.6667 20.2347 56.4008 15.6357 52.6355L20.2421 48.0285C20.7629 47.5077 20.7629 46.6637 20.2421 46.1429L18.3568 44.2579C17.836 43.7371 16.992 43.7371 16.4709 44.2579L11.8645 48.8648C8.0992 44.2659 5.83333 38.3936 5.83333 32C5.83333 25.6064 8.09893 19.7341 11.8648 15.1352L16.4712 19.7421C16.992 20.2629 17.8363 20.2629 18.3571 19.7421L20.2424 17.8568C20.7632 17.336 20.7632 16.492 20.2424 15.9712L15.6357 11.3645C20.2347 7.5992 26.1064 5.33333 32.5 5.33333C38.8936 5.33333 44.7653 7.5992 49.3643 11.3645L44.7579 15.9712C44.2371 16.492 44.2371 17.336 44.7579 17.8568L46.6432 19.7421C47.164 20.2629 48.008 20.2629 48.5291 19.7421L53.1355 15.1352C56.9011 19.7341 59.1667 25.6064 59.1667 32C59.1667 38.3936 56.9008 44.2659 53.1352 48.8648L48.5288 44.2579C48.008 43.7371 47.1637 43.7371 46.6429 44.2579L44.7576 46.1429C44.2368 46.6637 44.2368 47.5077 44.7576 48.0285L49.364 52.6355C44.7653 56.4008 38.8936 58.6667 32.5 58.6667Z" fill="#0149D6"/>
</g>
<defs>
<clipPath id="clip0_850_5584">
<rect width="64" height="64" fill="white" transform="translate(0.5)"/>
</clipPath>
</defs>
</svg>
