<svg width="65" height="65" viewBox="0 0 65 65" fill="none" xmlns="http://www.w3.org/2000/svg">
<path fill-rule="evenodd" clip-rule="evenodd" d="M15.833 27.0968C16.4152 27.4311 17.1317 27.4287 17.7116 27.0905L29.7616 20.0612C30.3376 19.7252 30.6918 19.1085 30.6918 18.4416C30.6918 17.7747 30.3376 17.158 29.7616 16.822L17.7116 9.79289C17.1317 9.45461 16.4152 9.45221 15.833 9.78659C15.2508 10.121 14.8918 10.7411 14.8918 11.4125V25.4709C14.8918 26.1422 15.2508 26.7624 15.833 27.0968ZM18.6418 22.2064V14.6769L25.0957 18.4416L18.6418 22.2064Z" fill="#0149D6"/>
<path fill-rule="evenodd" clip-rule="evenodd" d="M0.833496 34.5083C0.833496 35.5438 1.67296 36.3833 2.7085 36.3833H40.8669C41.9024 36.3833 42.7419 35.5438 42.7419 34.5083V2.37499C42.7419 1.33945 41.9024 0.499992 40.8669 0.499992H2.7085C1.67296 0.499992 0.833496 1.33945 0.833496 2.37499V34.5083ZM4.5835 32.6333V4.25H38.9919V32.6333H4.5835Z" fill="#0149D6"/>
<path fill-rule="evenodd" clip-rule="evenodd" d="M30.9585 62.625C30.9585 63.6605 31.798 64.5 32.8335 64.5H62.9585C63.994 64.5 64.8335 63.6605 64.8335 62.625V30.4917C64.8335 29.4562 63.994 28.6167 62.9585 28.6167H40.8669C39.8313 28.6167 38.9919 29.4562 38.9919 30.4917V32.6333H32.8335C31.798 32.6333 30.9585 33.4728 30.9585 34.5083V62.625ZM34.7085 60.75V36.3834H40.8669C41.9024 36.3834 42.7419 35.5439 42.7419 34.5083V32.3667H61.0835V60.75H34.7085Z" fill="#0149D6"/>
<path fill-rule="evenodd" clip-rule="evenodd" d="M4.8501 58.6083C4.8501 59.6439 5.68956 60.4833 6.7251 60.4833H32.8335C33.869 60.4833 34.7085 59.6439 34.7085 58.6083V50.5749C34.7085 50.0777 34.5109 49.6007 34.1593 49.2491L26.1259 41.2158C25.3937 40.4836 24.2065 40.4836 23.4743 41.2158L16.7667 47.9233L14.0759 45.2326C13.3437 44.5004 12.1565 44.5004 11.4243 45.2326L5.39927 51.2576C5.04764 51.6092 4.8501 52.0862 4.8501 52.5834V58.6083ZM8.6001 56.7333V53.3601L12.7501 49.2101L15.4409 51.9008C16.1732 52.633 17.3603 52.633 18.0925 51.9008L24.8001 45.1933L30.9585 51.3516V56.7333H8.6001Z" fill="#0149D6"/>
<path fill-rule="evenodd" clip-rule="evenodd" d="M4.8501 58.6083C4.8501 59.6438 5.68956 60.4833 6.7251 60.4833H32.8335C33.869 60.4833 34.7085 59.6438 34.7085 58.6083V34.5083C34.7085 33.4727 33.869 32.6333 32.8335 32.6333H6.7251C5.68956 32.6333 4.8501 33.4727 4.8501 34.5083V58.6083ZM8.6001 56.7333V36.3833H30.9585V56.7333H8.6001Z" fill="#0149D6"/>
<path fill-rule="evenodd" clip-rule="evenodd" d="M38.9919 50.575C38.9919 53.8277 41.6307 56.4668 44.8836 56.4668C48.1364 56.4668 50.7752 53.8277 50.7752 50.575C50.7752 47.3224 48.1364 44.6834 44.8836 44.6834C41.6307 44.6834 38.9919 47.3224 38.9919 50.575ZM44.8836 52.7168C43.7019 52.7168 42.7419 51.7568 42.7419 50.575C42.7419 49.3934 43.7019 48.4334 44.8836 48.4334C46.0652 48.4334 47.0252 49.3934 47.0252 50.575C47.0252 51.7568 46.0652 52.7168 44.8836 52.7168Z" fill="#0149D6"/>
<path fill-rule="evenodd" clip-rule="evenodd" d="M48.9001 52.4499C49.9357 52.4499 50.7751 51.6105 50.7751 50.5749V40.4001H54.9251C55.9607 40.4001 56.8001 39.5606 56.8001 38.525C56.8001 37.4895 55.9607 36.65 54.9251 36.65H48.9001C47.8646 36.65 47.0251 37.4895 47.0251 38.525V50.5749C47.0251 51.6105 47.8646 52.4499 48.9001 52.4499Z" fill="#0149D6"/>
<path fill-rule="evenodd" clip-rule="evenodd" d="M38.9919 30.4918C38.9919 31.5273 39.8314 32.3668 40.8669 32.3668H58.9419C59.9775 32.3668 60.8169 31.5273 60.8169 30.4918V6.39175C60.8169 5.35622 59.9775 4.51675 58.9419 4.51675H40.8669C39.8314 4.51675 38.9919 5.35622 38.9919 6.39175V30.4918ZM42.7419 28.6168V8.26676H57.0669V28.6168H42.7419Z" fill="#0149D6"/>
<path fill-rule="evenodd" clip-rule="evenodd" d="M38.9919 14.4251C38.9919 15.4606 39.8314 16.3001 40.8669 16.3001H50.9086C51.9441 16.3001 52.7836 15.4606 52.7836 14.4251C52.7836 13.3895 51.9441 12.5501 50.9086 12.5501H40.8669C39.8314 12.5501 38.9919 13.3895 38.9919 14.4251Z" fill="#0149D6"/>
<path fill-rule="evenodd" clip-rule="evenodd" d="M38.9919 22.4584C38.9919 23.4939 39.8314 24.3334 40.8669 24.3334H50.9086C51.9441 24.3334 52.7836 23.4939 52.7836 22.4584C52.7836 21.4229 51.9441 20.5834 50.9086 20.5834H40.8669C39.8314 20.5834 38.9919 21.4229 38.9919 22.4584Z" fill="#0149D6"/>
</svg>
